
<svg xmlns="http://www.w3.org/2000/svg" version="1.1" xmlns:xlink="http://www.w3.org/1999/xlink" preserveAspectRatio="none" x="0px" y="0px" width="1400px" height="550px" viewBox="0 0 1400 550">
<defs>
<g id="Layer0_0_FILL">
<path fill="#FFFFFF" stroke="none" d="
M 1312.4 425.75
Q 1309.6 425.75 1307.6 427.15 1305.5 428.55 1304.4 430.95 1303.3 433.35 1303.3 436.15 1303.3 439.15 1304.3 441.55 1305.4 443.85 1307.5 445.25 1309.6 446.65 1312.6 446.65 1315.1 446.65 1317 445.75 1318.9 444.95 1320.4 442.95 1320.4 442.65 1320 442.25 1319.7 441.85 1319.4 441.65 1318.3 442.85 1316.9 443.55 1315.5 444.15 1314 444.15 1310.8 444.15 1309.3 442.05 1307.8 439.95 1307.6 436.55 1312.2 436.35 1319.9 436.35 1320.4 435.65 1320.6 434.85 1320.3 430.65 1318.3 428.15 1316.4 425.75 1312.4 425.75
M 1309 429.35
Q 1310.2 427.85 1312 427.85 1313.9 427.85 1314.9 429.55 1316 431.35 1316 434.35
L 1307.6 434.35
Q 1307.8 430.85 1309 429.35
M 1340 427.15
Q 1338.6 426.05 1336.9 426.05 1333.8 426.05 1331.6 429.65 1331.3 430.05 1331 430.85 1330.8 431.65 1330.7 431.95 1330.7 431.75 1331 430.45 1331.3 429.15 1331.3 427.65 1331.3 426.05 1330.3 425.75 1329.3 426.25 1327.5 426.65 1326 427.1 1324.75 427.15 1324.55 427.15 1324.4 427.15 1324 427.85 1324 428.85 1324.4 428.85 1324.75 428.9 1325.6 428.95 1326.1 429.15 1326.8 429.55 1327 430.15 1327.3 430.85 1327.3 431.95
L 1327.3 440.65
Q 1327.3 442.85 1326.7 443.65 1326.1 444.3 1324.75 444.45 1324.5 444.45 1324.2 444.45 1324 445.15 1324 446.35 1324.35 446.35 1324.75 446.35 1326.55 446.25 1329.8 446.25 1333.4 446.25 1335.4 446.35 1335.4 445.15 1335.2 444.45 1333.7 444.45 1332.8 444.05 1332 443.65 1331.6 442.65 1331.3 441.65 1331.3 439.75
L 1331.3 435.55
Q 1331.3 433.95 1331.8 432.45 1332.4 431.05 1333.3 430.15 1334.2 429.35 1335 429.35 1336 429.35 1336.5 430.05 1337.1 430.75 1337.1 432.75 1338.5 432.75 1339.7 432.35 1339.7 429.15 1340 427.15
M 1349 443.65
Q 1349 442.55 1348.2 441.75 1347.4 440.85 1346.1 440.85 1344.7 440.85 1343.8 441.75 1342.9 442.65 1342.9 443.85 1342.9 445.15 1343.7 445.95 1344.5 446.65 1345.9 446.65 1347.3 446.65 1348.1 445.95 1349 445.15 1349 443.65
M 450.8 516.25
Q 449.7 517.45 448.3 518.15 446.9 518.75 445.4 518.75 442.2 518.75 440.7 516.65 439.2 514.55 439 511.15 443.6 510.95 451.3 510.95 451.8 510.25 452 509.45 451.7 505.25 449.7 502.75 447.8 500.35 443.8 500.35 441 500.35 439 501.75 436.9 503.15 435.8 505.55 434.7 507.95 434.7 510.75 434.7 513.75 435.7 516.15 436.8 518.45 438.9 519.85 441 521.25 444 521.25 446.5 521.25 448.4 520.35 450.3 519.55 451.8 517.55 451.8 517.25 451.4 516.85 451.1 516.45 450.8 516.25
M 446.3 504.15
Q 447.4 505.95 447.4 508.95
L 439 508.95
Q 439.2 505.45 440.4 503.95 441.6 502.45 443.4 502.45 445.3 502.45 446.3 504.15
M 355.7 516.55
Q 354.2 517.45 352.1 517.95 352 518.35 351.9 519.15 351.8 520.05 351.8 520.55 353.9 520.85 353.9 522.75 353.9 523.85 353.1 525.35 352.4 526.85 351 528.35 351.3 528.65 351.7 528.85 352.1 528.95 352.4 528.95 354.5 527.05 355.8 524.55 357.2 522.15 357.2 519.75 357.2 517.15 355.7 516.55
M 377.5 502.05
Q 377.5 500.65 376.5 500.35 375.7 500.85 373.7 501.35 371.7 501.75 370.6 501.75 370.2 502.45 370.2 503.45 371.6 503.45 372.3 503.75 373 504.05 373.3 504.75 373.5 505.45 373.5 506.55
L 373.5 515.25
Q 373.5 517.45 372.9 518.25 372.2 519.05 370.4 519.05 370.2 519.75 370.2 520.95 372.4 520.85 375.3 520.85 378 520.85 380.3 520.95 380.3 519.85 380 519.05 378.6 519.05 378 518.25 377.5 517.45 377.5 515.25
L 377.5 502.05
M 401.9 502.25
Q 400.1 500.55 397.4 500.55 395.3 500.55 393.6 501.45 391.9 502.45 391 503.65 390.7 504.05 390.6 504.35 390.4 504.65 390.3 504.85 390.7 503.65 390.7 502.25 390.7 500.65 389.7 500.35 388.7 500.85 386.9 501.25 385.2 501.75 383.8 501.75 383.4 502.45 383.4 503.45 384.8 503.45 385.5 503.75 386.2 504.15 386.4 504.75 386.7 505.45 386.7 506.55
L 386.7 515.25
Q 386.7 517.45 386 518.25 385.4 519.05 383.6 519.05 383.4 519.75 383.4 520.95 385.3 520.85 388.7 520.85 390.2 520.85 393.9 520.95 393.9 519.75 393.7 519.05 392 519.05 391.3 518.25 390.7 517.45 390.7 515.25
L 390.7 510.55
Q 390.7 508.05 391.4 506.35 392.1 504.65 393.2 503.95 394.4 503.25 395.6 503.25 397.5 503.25 398.6 504.45 399.7 505.65 399.7 508.55
L 399.7 515.25
Q 399.7 517.45 399 518.25 398.3 519.05 396.7 519.05 396.5 519.75 396.5 520.95 397 520.95 397.3 520.95 399.9 520.85 401.7 520.85 404.6 520.85 406.5 520.95 406.5 519.75 406.3 519.05 404.9 519.05 404.3 518.25 403.7 517.45 403.7 515.25
L 403.7 507.75
Q 403.7 503.95 401.9 502.25
M 377 490.85
Q 376.3 490.05 375.1 490.05 374.1 490.05 373.3 490.85 372.5 491.65 372.5 492.75 372.5 493.85 373.3 494.55 374 495.35 375.1 495.35 376.2 495.35 377 494.55 377.8 493.75 377.8 492.75 377.8 491.55 377 490.85
M 337 416.45
Q 334.9 416.45 333.8 416.45
L 330.7 416.55
Q 327.9 416.55 326.1 416.35 326.1 417.65 326.3 418.25 328.1 418.35 328.7 419.15 329.4 419.85 329.4 422.15
L 329.4 440.15
Q 329.4 441.85 329.1 442.75 328.8 443.65 328.2 444.05 327.5 444.45 326.3 444.45 326.1 445.15 326.1 446.35 329.4 446.25 338 446.25 343.4 446.25 346 443.85 348.6 441.45 348.6 437.55 348.6 430.55 340 430.05 342.9 429.65 344.6 427.65 346.4 425.75 346.4 422.85 346.4 419.25 343.8 417.85 341.3 416.45 337 416.45
M 335.3 418.35
Q 338 418.35 339.9 419.75 341.9 421.05 341.9 424.15 341.9 429.75 334.9 429.75
L 333.5 429.75 333.5 418.55
Q 334.3 418.35 335.3 418.35
M 333.8 442.85
Q 333.5 442.05 333.5 440.15
L 333.5 431.65 334.5 431.65
Q 343.9 431.65 343.9 438.15 343.9 441.15 342.3 442.75 340.8 444.35 337.6 444.35 335.8 444.35 335 444.05 334.2 443.75 333.8 442.85
M 368.9 441.65
Q 367.8 442.85 366.4 443.55 365 444.15 363.5 444.15 360.3 444.15 358.8 442.05 357.3 439.95 357.1 436.55 361.7 436.35 369.4 436.35 369.9 435.65 370.1 434.85 369.8 430.65 367.8 428.15 365.9 425.75 361.9 425.75 359.1 425.75 357.1 427.15 355 428.55 353.9 430.95 352.8 433.35 352.8 436.15 352.8 439.15 353.8 441.55 354.9 443.85 357 445.25 359.1 446.65 362.1 446.65 364.6 446.65 366.5 445.75 368.4 444.95 369.9 442.95 369.9 442.65 369.5 442.25 369.2 441.85 368.9 441.65
M 358.5 429.35
Q 359.7 427.85 361.5 427.85 363.4 427.85 364.4 429.55 365.5 431.35 365.5 434.35
L 357.1 434.35
Q 357.3 430.85 358.5 429.35
M 379.2 429.25
Q 379.2 428.65 379.8 428.35 380.3 428.05 381.5 427.95 381.7 427.35 381.7 425.95 379.5 426.05 376.9 426.05 374.8 426.05 372.6 426.05 372.6 427.15 372.8 427.95 373.8 428.25 374.3 428.75 374.8 429.25 375.3 430.55 378.3 437.85 381.4 446.65 382.1 446.65 382.5 446.55 382.9 446.45 383.3 446.25
L 389.1 431.85
Q 392.2 438.95 395.2 446.65 396.6 446.65 397.3 446.25
L 401.7 433.45
Q 402.4 431.15 402.9 430.05 403.4 429.05 403.8 428.55 404.2 428.05 404.9 427.95 405.3 427.05 405.3 425.95 403.8 426.05 401.4 426.05 399.2 426.05 397.5 425.95 397.5 426.95 397.9 427.95 399.1 428.05 399.7 428.65 400.3 429.15 400.3 430.45 400.3 431.65 399.7 433.55
L 397.2 441.05
Q 393.4 431.55 391 425.95 389.8 425.95 389.2 426.05
L 383.4 441.05
Q 381 434.05 379.6 430.55 379.2 429.75 379.2 429.25
M 424.7 490.35
Q 422.7 490.75 421.6 490.75 421.2 491.45 421.2 492.45 422.6 492.45 423.3 492.75 424 493.05 424.3 493.75 424.5 494.45 424.5 495.55
L 424.5 500.95
Q 422.6 500.35 420.8 500.35 417.6 500.35 415.1 501.75 412.6 503.25 411.2 505.85 409.9 508.35 409.9 511.45 409.9 516.45 412 518.85 414.1 521.25 418.1 521.25 420.1 521.25 421.8 520.25 423.4 519.15 424.1 517.95 424.7 516.95 425.1 516.15 425.1 516.35 424.9 517.15 424.8 517.95 424.8 518.75 424.8 520.05 425 520.55 425.3 520.95 425.9 521.25 426.8 520.75 428.3 520.35 429.8 519.95 430.9 519.85 431.2 519.15 431.2 517.85 429.4 517.85 428.9 517.15 428.4 516.55 428.4 514.85
L 428.4 491.05
Q 428.4 489.65 427.5 489.35 426.7 489.85 424.7 490.35
M 417.7 503.05
Q 419.1 502.35 420.6 502.35 421.8 502.35 422.7 502.75 423.6 503.15 424.5 503.85
L 424.5 510.05
Q 424.5 514.35 422.9 516.45 421.3 518.45 419.1 518.45 418 518.45 416.9 517.75 415.8 516.95 415 515.25 414.2 513.55 414.2 510.95 414.2 507.65 415.2 505.75 416.2 503.85 417.7 503.05
M 422.8 428.15
Q 420.9 425.75 416.9 425.75 414.1 425.75 412.1 427.15 410 428.55 408.9 430.95 407.8 433.35 407.8 436.15 407.8 439.15 408.8 441.55 409.9 443.85 412 445.25 414.1 446.65 417.1 446.65 419.6 446.65 421.5 445.75 423.4 444.95 424.9 442.95 424.9 442.65 424.5 442.25 424.2 441.85 423.9 441.65 422.8 442.85 421.4 443.55 420 444.15 418.5 444.15 415.3 444.15 413.8 442.05 412.3 439.95 412.1 436.55 416.7 436.35 424.4 436.35 424.9 435.65 425.1 434.85 424.8 430.65 422.8 428.15
M 416.5 427.85
Q 418.4 427.85 419.4 429.55 420.5 431.35 420.5 434.35
L 412.1 434.35
Q 412.3 430.85 413.5 429.35 414.7 427.85 416.5 427.85
M 447.6 428.85
Q 447.6 427.15 447.3 426.05
L 440.1 426.05
Q 438.9 425.75 437.3 425.75 433.5 425.75 431.5 427.75 429.4 429.85 429.4 433.05 429.4 434.85 430.1 436.25 430.9 437.65 432.2 438.65 429.8 440.85 429.8 443.25 429.8 444.55 430.3 445.35 430.8 446.15 432 446.55 428.7 448.05 428.7 451.25 428.7 454.25 430.6 455.75 432.4 457.25 436.4 457.25 439.4 457.25 441.9 455.85 444.4 454.55 445.8 452.45 447.3 450.35 447.3 448.35 447.3 446.55 446.5 445.45 445.7 444.45 444 443.95 442.3 443.45 439.3 443.45 436.4 443.45 435.1 443.35 433.8 443.25 433.4 442.85 432.9 442.45 432.9 441.65 432.9 440.65 434 439.55 435.6 440.15 437.4 440.15 441.2 440.15 443.3 438.05 445.4 435.95 445.4 432.75 445.4 431.65 444.9 430.45 444.4 429.15 443.4 428.15 445.6 428.35 447.6 428.85
M 436.9 427.65
Q 438.9 427.65 440.1 429.35 441.3 430.95 441.3 433.45 441.3 435.65 440.3 436.85 439.4 438.15 437.9 438.15 435.8 438.15 434.6 436.65 433.5 435.15 433.5 432.45 433.5 430.45 434.3 429.05 435.2 427.65 436.9 427.65
M 436.4 447.05
Q 439.4 447.05 440.9 447.35 442.5 447.65 443.1 448.25 443.6 448.85 443.6 450.05 443.6 451.35 442.9 452.45 442.1 453.55 440.7 454.25 439.3 454.85 437.4 454.85 434.8 454.85 433.6 453.75 432.5 452.65 432.5 450.35 432.5 449.15 432.8 448.35 433.2 447.65 434 446.95 435.3 447.05 436.4 447.05
M 457 427.65
Q 457 426.05 456 425.75 455 426.25 453.4 426.65 451.8 427.15 450.4 427.15 450.1 427.85 450.1 428.85 451.4 428.85 452 429.15 452.7 429.55 452.8 430.15 453 430.75 453 431.95
L 453 438.65
Q 453 442.85 454.6 444.65 456.2 446.45 459.3 446.45 461.1 446.45 462.3 445.95 463.6 445.35 464.8 444.15 465.8 443.15 466.2 442.25 466.1 443.15 466.1 444.15 466.1 445.45 466.3 445.95 466.6 446.35 467.2 446.65 468.1 446.15 469.6 445.75 471.1 445.35 472.2 445.25 472.5 444.55 472.5 443.25 470.7 443.25 470.2 442.55 469.7 441.95 469.7 440.25
L 469.7 427.65
Q 469.7 426.05 468.8 425.75 467.7 426.15 466.1 426.55 464.4 426.85 462.8 426.95 462.5 427.35 462.5 427.65 462.5 427.95 462.5 428.65 463.9 428.65 464.6 428.95 465.3 429.35 465.5 429.95 465.8 430.55 465.8 431.75
L 465.8 436.25
Q 465.8 439.95 464.3 441.85 462.9 443.75 460.6 443.75 458.6 443.75 457.8 442.25 457 440.75 457 437.65
L 457 427.65
M 581.2 503.55
Q 581.8 504.35 582 505.35 582.2 506.35 582.2 509.05 579.4 509.45 577 510.15 574.7 510.75 572.8 512.35 570.9 513.85 570.9 516.45 570.9 518.75 572.4 519.95 573.9 521.15 576.6 521.15 579.5 521.15 581.2 519.65 582.3 518.75 582.8 517.45 582.7 517.95 582.7 518.65 582.7 519.85 583 520.45 583.3 521.05 583.8 521.25 584.8 520.75 586.1 520.35 587.5 519.95 588.6 519.85 588.9 519.15 588.9 517.85 587.7 517.75 587.1 517.45 586.5 517.15 586.3 516.45 586.1 515.75 586.1 514.45
L 586.1 509.55
Q 586.1 506.45 585.7 504.75 585.3 503.05 584.3 501.95 582.6 500.35 579.6 500.35 577.9 500.35 575.9 500.85 573.9 501.35 572.1 502.25 572.4 503.65 572.4 505.55 572.4 506.65 572.4 507.05 572.7 507.25 573.4 507.25 574.1 507.35 574.6 507.35 574.7 505.55 575.6 503.95 576.5 502.25 578.5 502.25 580.2 502.25 581.2 503.55
M 575.2 515.65
Q 575.2 513.85 576.2 512.85 577.2 511.85 578.6 511.55 580 511.15 582.2 510.85
L 582.2 512.55
Q 582.2 514.55 581.5 516.05 580.8 517.45 579.9 518.05 578.9 518.75 577.8 518.75 576.7 518.75 575.9 517.95 575.2 517.15 575.2 515.65
M 610.9 502.25
Q 610.9 500.65 610 500.35 608.9 500.75 607.3 501.15 605.6 501.45 604 501.55 603.7 501.95 603.7 502.25 603.7 502.55 603.7 503.25 605.1 503.25 605.8 503.55 606.5 503.95 606.7 504.55 607 505.15 607 506.35
L 607 510.85
Q 607 514.55 605.5 516.45 604.1 518.35 601.8 518.35 599.8 518.35 599 516.85 598.2 515.35 598.2 512.25
L 598.2 502.25
Q 598.2 500.65 597.2 500.35 596.2 500.85 594.6 501.25 593 501.75 591.6 501.75 591.3 502.45 591.3 503.45 592.6 503.45 593.2 503.75 593.9 504.15 594 504.75 594.2 505.35 594.2 506.55
L 594.2 513.25
Q 594.2 517.45 595.8 519.25 597.4 521.05 600.5 521.05 602.3 521.05 603.5 520.55 604.8 519.95 606 518.75 607 517.75 607.4 516.85 607.3 517.75 607.3 518.75 607.3 520.05 607.5 520.55 607.8 520.95 608.4 521.25 609.3 520.75 610.8 520.35 612.3 519.95 613.4 519.85 613.7 519.15 613.7 517.85 611.9 517.85 611.4 517.15 610.9 516.55 610.9 514.85
L 610.9 502.25
M 488.3 507.75
Q 488.3 503.95 486.6 502.25 484.8 500.55 482.1 500.55 480 500.55 478.3 501.45 476.7 502.45 475.8 503.65 475.4 504.25 475 505.15 475 504.65 474.9 504.05 474.2 502.15 472.7 501.25 471.2 500.35 469.2 500.35 467.1 500.35 465.5 501.25 463.8 502.25 463 503.45 462.8 503.65 462.2 504.85 462.4 503.15 462.4 502.05 462.4 500.65 461.4 500.35 460.6 500.75 458.8 501.25 456.9 501.75 455.8 501.75 455.4 502.45 455.4 503.45 456.8 503.45 457.5 503.75 458.2 504.15 458.4 504.75 458.7 505.45 458.7 506.55
L 458.7 515.25
Q 458.7 517.45 458.1 518.25 457.4 519.05 455.6 519.05 455.4 519.75 455.4 520.95 457.5 520.85 460.7 520.85 463.7 520.85 465.9 520.95 465.9 519.75 465.7 519.05 463.9 519.05 463.3 518.25 462.6 517.45 462.6 515.25
L 462.6 510.35
Q 462.6 507.85 463.3 506.15 464 504.45 465.1 503.75 466.3 502.95 467.5 502.95 469.4 502.95 470.5 504.15 471.5 505.45 471.5 508.35
L 471.5 515.25
Q 471.5 517.45 470.9 518.25 470.3 519.05 468.5 519.05 468.3 519.75 468.3 520.95 470.6 520.85 473.5 520.85 476.5 520.85 478.7 520.95 478.7 519.75 478.5 519.05 476.8 519.05 476.1 518.25 475.5 517.45 475.5 515.25
L 475.5 510.55
Q 475.5 508.05 476.2 506.35 476.9 504.65 478 503.95 479.1 503.25 480.3 503.25 482.3 503.25 483.3 504.45 484.4 505.65 484.4 508.55
L 484.4 515.25
Q 484.4 517.45 483.7 518.25 483.1 519.05 481.3 519.05 481.1 519.75 481.1 520.95 483.3 520.85 486.4 520.85 489.2 520.85 491.2 520.95 491.2 519.75 490.9 519.05 489.5 519.05 488.9 518.25 488.3 517.45 488.3 515.25
L 488.3 507.75
M 530.5 504.75
Q 530.7 505.45 530.7 506.55
L 530.7 515.25
Q 530.7 517.45 530.1 518.25 529.4 519.05 527.6 519.05 527.4 519.75 527.4 520.95 529.6 520.85 532.5 520.85 535.2 520.85 537.5 520.95 537.5 519.85 537.2 519.05 535.8 519.05 535.2 518.25 534.7 517.45 534.7 515.25
L 534.7 502.05
Q 534.7 500.65 533.7 500.35 532.9 500.85 530.9 501.35 528.9 501.75 527.8 501.75 527.4 502.45 527.4 503.45 528.8 503.45 529.5 503.75 530.2 504.05 530.5 504.75
M 555.8 502.75
Q 553.9 500.35 549.9 500.35 547.1 500.35 545.1 501.75 543 503.15 541.9 505.55 540.8 507.95 540.8 510.75 540.8 513.75 541.8 516.15 542.9 518.45 545 519.85 547.1 521.25 550.1 521.25 552.6 521.25 554.5 520.35 556.4 519.55 557.9 517.55 557.9 517.25 557.5 516.85 557.2 516.45 556.9 516.25 555.8 517.45 554.4 518.15 553 518.75 551.5 518.75 548.3 518.75 546.8 516.65 545.3 514.55 545.1 511.15 549.7 510.95 557.4 510.95 557.9 510.25 558.1 509.45 557.8 505.25 555.8 502.75
M 549.5 502.45
Q 551.4 502.45 552.4 504.15 553.5 505.95 553.5 508.95
L 545.1 508.95
Q 545.3 505.45 546.5 503.95 547.7 502.45 549.5 502.45
M 534.2 494.55
Q 535 493.75 535 492.75 535 491.55 534.2 490.85 533.5 490.05 532.3 490.05 531.3 490.05 530.5 490.85 529.7 491.65 529.7 492.75 529.7 493.85 530.5 494.55 531.2 495.35 532.3 495.35 533.4 495.35 534.2 494.55
M 510.2 493.75
Q 511.5 492.65 513.8 492.65 515.9 492.65 517.2 493.95 518.4 495.25 519 498.85 520.5 498.85 521.5 498.45 521.2 496.55 521.2 492.65 520 491.85 518 491.25 516 490.75 513.9 490.75 509.8 490.75 507.4 492.85 505 494.95 505 498.65 505 501.15 506.1 502.85 507.3 504.55 508.8 505.55 510.4 506.55 513.1 507.85 515.4 508.95 516.6 509.65 517.9 510.45 518.8 511.65 519.7 512.85 519.7 514.55 519.7 516.65 518.3 517.85 516.9 519.15 514 519.15 510.7 519.15 509 517.25 507.4 515.45 507.3 511.95 505.9 511.95 504.9 512.15 504.9 515.95 504.5 518.45 506.8 519.85 508.8 520.55 510.9 521.25 513.4 521.25 516.8 521.25 519 520.05 521.3 518.95 522.4 517.05 523.5 515.05 523.5 512.75 523.5 510.45 522.4 508.75 521.3 507.15 519.7 506.15 518.1 505.15 515.5 503.95 513.3 502.75 511.9 501.95 510.7 501.15 509.8 499.95 508.8 498.75 508.8 497.05 508.8 494.95 510.2 493.75
M 494.3 427.65
Q 492.5 425.95 489.8 425.95 487.7 425.95 486 426.85 484.3 427.85 483.4 429.05 483.1 429.45 483 429.75 482.8 430.05 482.7 430.25 483.1 429.05 483.1 427.65 483.1 426.05 482.1 425.75 481.1 426.25 479.3 426.65 477.6 427.15 476.2 427.15 475.8 427.85 475.8 428.85 477.2 428.85 477.9 429.15 478.6 429.55 478.8 430.15 479.1 430.85 479.1 431.95
L 479.1 440.65
Q 479.1 442.85 478.4 443.65 477.8 444.45 476 444.45 475.8 445.15 475.8 446.35 477.7 446.25 481.1 446.25 482.6 446.25 486.3 446.35 486.3 445.15 486.1 444.45 484.4 444.45 483.7 443.65 483.1 442.85 483.1 440.65
L 483.1 435.95
Q 483.1 433.45 483.8 431.75 484.5 430.05 485.6 429.35 486.8 428.65 488 428.65 489.9 428.65 491 429.85 492.1 431.05 492.1 433.95
L 492.1 440.65
Q 492.1 442.85 491.4 443.65 490.7 444.45 489.1 444.45 488.9 445.15 488.9 446.35 489.4 446.35 489.7 446.35 492.3 446.25 494.1 446.25 497 446.25 498.9 446.35 498.9 445.15 498.7 444.45 497.3 444.45 496.7 443.65 496.1 442.85 496.1 440.65
L 496.1 433.15
Q 496.1 429.35 494.3 427.65
M 505.1 427.75
Q 503 429.85 503 433.05 503 434.85 503.7 436.25 504.5 437.65 505.8 438.65 503.4 440.85 503.4 443.25 503.4 444.55 503.9 445.35 504.4 446.15 505.6 446.55 502.3 448.05 502.3 451.25 502.3 454.25 504.2 455.75 506 457.25 510 457.25 513 457.25 515.5 455.85 518 454.55 519.4 452.45 520.9 450.35 520.9 448.35 520.9 446.55 520.1 445.45 519.3 444.45 517.6 443.95 515.9 443.45 512.9 443.45 510 443.45 508.7 443.35 507.4 443.25 507 442.85 506.5 442.45 506.5 441.65 506.5 440.65 507.6 439.55 509.2 440.15 511 440.15 514.8 440.15 516.9 438.05 519 435.95 519 432.75 519 431.65 518.5 430.45 518 429.15 517 428.15 519.2 428.35 521.2 428.85 521.2 427.15 520.9 426.05
L 513.7 426.05
Q 512.5 425.75 510.9 425.75 507.1 425.75 505.1 427.75
M 510.5 427.65
Q 512.5 427.65 513.7 429.35 514.9 430.95 514.9 433.45 514.9 435.65 513.9 436.85 513 438.15 511.5 438.15 509.4 438.15 508.2 436.65 507.1 435.15 507.1 432.45 507.1 430.45 507.9 429.05 508.8 427.65 510.5 427.65
M 517.2 450.05
Q 517.2 451.35 516.5 452.45 515.7 453.55 514.3 454.25 512.9 454.85 511 454.85 508.4 454.85 507.2 453.75 506.1 452.65 506.1 450.35 506.1 449.15 506.4 448.35 506.8 447.65 507.6 446.95 508.9 447.05 510 447.05 513 447.05 514.5 447.35 516.1 447.65 516.7 448.25 517.2 448.85 517.2 450.05
M 547 418.15
Q 547.7 418.45 548 419.15 548.2 419.85 548.2 420.95
L 548.2 426.35
Q 546.3 425.75 544.5 425.75 541.3 425.75 538.8 427.15 536.3 428.65 534.9 431.25 533.6 433.75 533.6 436.85 533.6 441.85 535.7 444.25 537.8 446.65 541.8 446.65 543.8 446.65 545.5 445.65 547.1 444.55 547.8 443.35 548.4 442.35 548.8 441.55 548.8 441.75 548.6 442.55 548.5 443.35 548.5 444.15 548.5 445.45 548.7 445.95 549 446.35 549.6 446.65 550.5 446.15 552 445.75 553.5 445.35 554.6 445.25 554.9 444.55 554.9 443.25 553.1 443.25 552.6 442.55 552.1 441.95 552.1 440.25
L 552.1 416.45
Q 552.1 415.05 551.2 414.75 550.4 415.25 548.4 415.75 546.4 416.15 545.3 416.15 544.9 416.85 544.9 417.85 546.3 417.85 547 418.15
M 541.4 428.45
Q 542.8 427.75 544.3 427.75 545.5 427.75 546.4 428.15 547.3 428.55 548.2 429.25
L 548.2 435.45
Q 548.2 439.75 546.6 441.85 545 443.85 542.8 443.85 541.7 443.85 540.6 443.15 539.5 442.35 538.7 440.65 537.9 438.95 537.9 436.35 537.9 433.05 538.9 431.15 539.9 429.25 541.4 428.45
M 625.2 490.55
Q 623.1 491.75 621.8 493.95 620.5 496.25 620.5 499.35
L 620.5 501.15 617.6 501.15
Q 617 501.95 617 503.15 618.8 503.15 620.5 503.45
L 620.5 515.25
Q 620.5 517.45 619.9 518.25 619.2 519.05 617.5 519.05 617.2 519.75 617.2 520.95 619 520.85 623 520.85 626.6 520.85 628.6 520.95 628.6 519.75 628.4 519.05 626.9 519.05 626.1 518.65 625.3 518.25 624.9 517.25 624.5 516.25 624.5 514.35
L 624.5 503.55
Q 626.3 503.15 628.5 503.15 629 502.45 629 501.15
L 624.5 501.15 624.5 498.05
Q 624.5 494.95 625.3 493.45 626.1 491.85 627.8 491.85 629.5 491.85 630.4 493.05 631.2 494.15 631.2 496.05 632.5 496.05 633.7 495.65 633.7 493.05 633.9 490.55 633 489.95 632.1 489.65 631.2 489.45 629.7 489.45 627.3 489.45 625.2 490.55
M 573.4 428.15
Q 571.5 425.75 567.5 425.75 564.7 425.75 562.7 427.15 560.6 428.55 559.5 430.95 558.4 433.35 558.4 436.15 558.4 439.15 559.4 441.55 560.5 443.85 562.6 445.25 564.7 446.65 567.7 446.65 570.2 446.65 572.1 445.75 574 444.95 575.5 442.95 575.5 442.65 575.1 442.25 574.8 441.85 574.5 441.65 573.4 442.85 572 443.55 570.6 444.15 569.1 444.15 565.9 444.15 564.4 442.05 562.9 439.95 562.7 436.55 567.3 436.35 575 436.35 575.5 435.65 575.7 434.85 575.4 430.65 573.4 428.15
M 567.1 427.85
Q 569 427.85 570 429.55 571.1 431.35 571.1 434.35
L 562.7 434.35
Q 562.9 430.85 564.1 429.35 565.3 427.85 567.1 427.85
M 583.4 431.35
Q 583.1 430.75 583.1 429.95 583.1 428.85 583.9 428.15 584.7 427.55 586.1 427.55 588.2 427.55 589.5 428.95 590.9 430.45 591 432.35 592.4 432.35 593.2 431.85 593 430.75 593 429.35 593 428.55 593.1 427.25 591.7 426.45 590.2 426.05 588.7 425.75 586.8 425.75 585.2 425.75 583.5 426.35 581.8 426.95 580.6 428.25 579.5 429.45 579.5 431.25 579.5 432.95 580.1 434.05 580.7 435.25 582.1 436.05 583.4 436.85 586 437.85 588 438.65 589 439.25 590 439.85 590.4 440.45 590.7 440.95 590.7 441.75 590.7 442.95 589.7 443.75 588.7 444.55 587 444.55 584.7 444.55 583.3 443.15 581.9 441.85 581.6 439.05 580 439.05 579.3 439.55 579.4 440.85 579.4 442.05 579.4 443.85 579.3 445.05 580.9 445.85 582.4 446.25 584 446.65 586.5 446.65 590 446.65 592.3 444.95 594.6 443.25 594.6 440.45 594.6 438.85 594 437.75 593.4 436.75 592.1 435.85 590.7 434.95 588.3 434.05 586 433.15 584.9 432.45 583.8 431.85 583.4 431.35
M 621.9 416.15
Q 617.9 416.15 614.4 417.85 610.9 419.55 608.8 422.95 606.6 426.25 606.6 430.95 606.6 435.65 608.5 439.25 610.3 442.75 613.5 444.75 616.8 446.65 621.1 446.65 624.7 446.65 627.7 445.75 630.6 444.85 632.6 443.35 632.3 442.75 632.2 441.95 632.1 441.25 632.1 440.25
L 632.1 438.25
Q 632.1 436.25 632.2 435.35 632.4 434.45 632.8 434.25 633.2 433.95 634.1 433.85 634.4 433.15 634.4 431.85 632.6 431.95 629.2 431.95 625.6 431.95 623.9 431.85 623.9 433.25 624.2 433.85 626 433.95 626.7 434.15 627.4 434.45 627.7 435.35 627.9 436.15 627.9 438.25
L 627.9 440.45
Q 627.9 442.05 627.6 442.75 627.3 443.45 626.4 443.75 625.4 444.15 624.4 444.35 623.4 444.45 622 444.45 618.5 444.45 616.1 442.55 613.7 440.65 612.5 437.35 611.3 434.15 611.3 430.05 611.3 426.75 612.5 424.05 613.7 421.25 616.2 419.55 618.7 417.95 622.3 417.95 625.7 417.95 627.6 419.55 629.5 421.15 629.7 425.35 630.9 425.35 632 425.05 632 420.65 632.5 418.15 630.5 417.25 627.7 416.65 625 416.15 621.9 416.15
M 73.1 419.45
Q 68.4 416.45 61.2 416.45 59.4 416.45 58.6 416.45
L 56 416.55
Q 51.8 416.55 49.8 416.35 49.8 417.65 50 418.25 51.8 418.35 52.4 419.15 53.1 419.85 53.1 422.15
L 53.1 440.15
Q 53.1 441.85 52.8 442.75 52.5 443.65 51.9 444.05 51.2 444.45 50 444.45 49.8 445.15 49.8 446.35 53.1 446.25 61.2 446.25 67.3 446.25 72.6 443.05 77.9 439.95 77.9 430.65 77.9 422.45 73.1 419.45
M 58.7 418.15
Q 59.7 418.05 60.4 418.05 64 418.05 66.9 419.45 69.8 420.85 71.6 423.75 73.3 426.75 73.3 431.25 73.3 438.35 70.1 441.35 66.9 444.25 61.2 444.25 59.5 444.25 58.6 443.95 57.8 443.55 57.5 442.75 57.2 441.85 57.2 440.15
L 57.2 418.45
Q 57.8 418.35 58.7 418.15
M 99.6 436.15
Q 99.6 439.15 100.6 441.55 101.4 443.25 102.75 444.45 103.25 444.9 103.8 445.25 105.9 446.65 108.9 446.65 111.4 446.65 113.3 445.75 115.2 444.95 116.7 442.95 116.7 442.65 116.3 442.25 116 441.85 115.7 441.65 114.6 442.85 113.2 443.55 111.8 444.15 110.3 444.15 107.1 444.15 105.6 442.05 104.1 439.95 103.9 436.55 108.5 436.35 116.2 436.35 116.7 435.65 116.9 434.85 116.6 430.65 114.6 428.15 112.7 425.75 108.7 425.75 105.9 425.75 103.9 427.15 103.3 427.55 102.75 428.05 101.5 429.25 100.7 430.95 99.6 433.35 99.6 436.15
M 105.3 429.35
Q 106.5 427.85 108.3 427.85 110.2 427.85 111.2 429.55 112.3 431.35 112.3 434.35
L 103.9 434.35
Q 104.1 430.85 105.3 429.35
M 96.7 432.35
Q 96.7 429.15 97 427.15 95.6 426.05 93.9 426.05 90.8 426.05 88.6 429.65 88.3 430.05 88 430.85 87.8 431.65 87.7 431.95 87.7 431.75 88 430.45 88.3 429.15 88.3 427.65 88.3 426.05 87.3 425.75 86.3 426.25 84.5 426.65 82.8 427.15 81.4 427.15 81 427.85 81 428.85 82.4 428.85 83.1 429.15 83.8 429.55 84 430.15 84.3 430.85 84.3 431.95
L 84.3 440.65
Q 84.3 442.85 83.7 443.65 83 444.45 81.2 444.45 81 445.15 81 446.35 82.8 446.25 86.8 446.25 90.4 446.25 92.4 446.35 92.4 445.15 92.2 444.45 90.7 444.45 89.8 444.05 89 443.65 88.6 442.65 88.3 441.65 88.3 439.75
L 88.3 435.55
Q 88.3 433.95 88.8 432.45 89.4 431.05 90.3 430.15 91.2 429.35 92 429.35 93 429.35 93.5 430.05 94.1 430.75 94.1 432.75 95.5 432.75 96.7 432.35
M 122.4 418.15
Q 123.1 418.45 123.3 419.15 123.5 419.85 123.5 420.95
L 123.5 440.65
Q 123.5 442.85 122.9 443.65 122.2 444.45 120.5 444.45 120.3 445.15 120.3 446.35 122.2 446.25 125.5 446.25 127.1 446.25 130.8 446.35 130.8 445.15 130.5 444.45 128.8 444.45 128.2 443.65 127.5 442.85 127.5 440.65
L 127.5 435.95
Q 127.5 433.45 128.2 431.75 128.9 430.05 130.1 429.35 131.2 428.65 132.5 428.65 134.4 428.65 135.5 429.85 136.6 431.05 136.6 433.95
L 136.6 440.65
Q 136.6 442.85 135.9 443.65 135.2 444.45 133.5 444.45 133.3 445.15 133.3 446.35 133.9 446.35 134.2 446.35 136.7 446.25 138.6 446.25 141.5 446.25 143.3 446.35 143.3 445.15 143.1 444.45 141.8 444.45 141.1 443.65 140.5 442.85 140.5 440.65
L 140.5 433.15
Q 140.5 429.35 138.8 427.65 137 425.95 134.2 425.95 132.1 425.95 130.4 426.85 128.7 427.85 127.9 429.05 127.6 429.45 127.4 429.75 127.3 430.05 127.2 430.25 127.5 429.05 127.5 427.65
L 127.5 416.45
Q 127.5 415.05 126.5 414.75 125.8 415.25 123.8 415.75 121.7 416.15 120.6 416.15 120.2 416.85 120.2 417.85 121.7 417.85 122.4 418.15
M 265.25 501
Q 264.55 501.3 263.9 501.75 261.8 503.15 260.7 505.55 259.6 507.95 259.6 510.75 259.6 513.75 260.6 516.15 261.7 518.45 263.8 519.85 264.5 520.3 265.25 520.6 266.85 521.25 268.9 521.25 271.4 521.25 273.3 520.35 275.2 519.55 276.7 517.55 276.7 517.25 276.3 516.85 276 516.45 275.7 516.25 274.6 517.45 273.2 518.15 271.8 518.75 270.3 518.75 267.1 518.75 265.6 516.65 265.4 516.4 265.25 516.15 264.1 514.15 263.9 511.15 264.55 511.1 265.25 511.1 269.6 510.95 276.2 510.95 276.7 510.25 276.9 509.45 276.6 505.25 274.6 502.75 272.7 500.35 268.7 500.35 266.8 500.35 265.25 501
M 268.3 502.45
Q 270.2 502.45 271.2 504.15 272.3 505.95 272.3 508.95
L 263.9 508.95
Q 264.1 505.5 265.25 504.05 265.25 504 265.3 503.95 266.5 502.45 268.3 502.45
M 323.9 519.05
Q 323.7 519.75 323.7 520.95 325.6 520.85 329 520.85 330.5 520.85 334.2 520.95 334.2 519.75 334 519.05 332.3 519.05 331.6 518.25 331 517.45 331 515.25
L 331 510.55
Q 331 508.05 331.7 506.35 332.4 504.65 333.5 503.95 334.7 503.25 335.9 503.25 337.8 503.25 338.9 504.45 340 505.65 340 508.55
L 340 515.25
Q 340 517.45 339.3 518.25 338.6 519.05 337 519.05 336.8 519.75 336.8 520.95 337.3 520.95 337.6 520.95 340.2 520.85 342 520.85 344.9 520.85 346.8 520.95 346.8 519.75 346.6 519.05 345.2 519.05 344.6 518.25 344 517.45 344 515.25
L 344 507.75
Q 344 503.95 342.2 502.25 340.4 500.55 337.7 500.55 335.6 500.55 333.9 501.45 332.2 502.45 331.3 503.65 331 504.05 330.9 504.35 330.7 504.65 330.6 504.85 331 503.65 331 502.25 331 500.65 330 500.35 329 500.85 327.2 501.25 325.5 501.75 324.1 501.75 323.7 502.45 323.7 503.45 325.1 503.45 325.8 503.75 326.5 504.15 326.7 504.75 327 505.45 327 506.55
L 327 515.25
Q 327 517.45 326.3 518.25 325.7 519.05 323.9 519.05
M 299.4 503.45
Q 299.4 501.75 299.1 500.65
L 291.9 500.65
Q 290.7 500.35 289.1 500.35 285.3 500.35 283.3 502.35 281.2 504.45 281.2 507.65 281.2 509.45 281.9 510.85 282.7 512.25 284 513.25 281.6 515.45 281.6 517.85 281.6 519.15 282.1 519.95 282.6 520.75 283.8 521.15 280.5 522.65 280.5 525.85 280.5 528.85 282.4 530.35 284.2 531.85 288.2 531.85 291.2 531.85 293.7 530.45 296.2 529.15 297.6 527.05 299.1 524.95 299.1 522.95 299.1 521.15 298.3 520.05 297.5 519.05 295.8 518.55 294.1 518.05 291.1 518.05 288.2 518.05 286.9 517.95 285.6 517.85 285.2 517.45 284.7 517.05 284.7 516.25 284.7 515.25 285.8 514.15 287.4 514.75 289.2 514.75 293 514.75 295.1 512.65 297.2 510.55 297.2 507.35 297.2 506.25 296.7 505.05 296.2 503.75 295.2 502.75 297.4 502.95 299.4 503.45
M 288.7 502.25
Q 290.7 502.25 291.9 503.95 293.1 505.55 293.1 508.05 293.1 510.25 292.1 511.45 291.2 512.75 289.7 512.75 287.6 512.75 286.4 511.25 285.3 509.75 285.3 507.05 285.3 505.05 286.1 503.65 287 502.25 288.7 502.25
M 294.9 522.85
Q 295.4 523.45 295.4 524.65 295.4 525.95 294.7 527.05 293.9 528.15 292.5 528.85 291.1 529.45 289.2 529.45 286.6 529.45 285.4 528.35 284.3 527.25 284.3 524.95 284.3 523.75 284.6 522.95 285 522.25 285.8 521.55 287.1 521.65 288.2 521.65 291.2 521.65 292.7 521.95 294.3 522.25 294.9 522.85
M 312.1 500.35
Q 309.3 500.35 307.3 501.75 305.2 503.15 304.1 505.55 303 507.95 303 510.75 303 513.75 304 516.15 305.1 518.45 307.2 519.85 309.3 521.25 312.3 521.25 314.8 521.25 316.7 520.35 318.6 519.55 320.1 517.55 320.1 517.25 319.7 516.85 319.4 516.45 319.1 516.25 318 517.45 316.6 518.15 315.2 518.75 313.7 518.75 310.5 518.75 309 516.65 307.5 514.55 307.3 511.15 311.9 510.95 319.6 510.95 320.1 510.25 320.3 509.45 320 505.25 318 502.75 316.1 500.35 312.1 500.35
M 308.7 503.95
Q 309.9 502.45 311.7 502.45 313.6 502.45 314.6 504.15 315.7 505.95 315.7 508.95
L 307.3 508.95
Q 307.5 505.45 308.7 503.95
M 219.6 502.75
Q 217.7 500.35 213.7 500.35 210.9 500.35 208.9 501.75 206.8 503.15 205.7 505.55 204.6 507.95 204.6 510.75 204.6 513.75 205.6 516.15 206.7 518.45 208.8 519.85 210.9 521.25 213.9 521.25 216.4 521.25 218.3 520.35 220.2 519.55 221.7 517.55 221.7 517.25 221.3 516.85 221 516.45 220.7 516.25 219.6 517.45 218.2 518.15 216.8 518.75 215.3 518.75 212.1 518.75 210.6 516.65 209.1 514.55 208.9 511.15 213.5 510.95 221.2 510.95 221.7 510.25 221.9 509.45 221.6 505.25 219.6 502.75
M 213.3 502.45
Q 215.2 502.45 216.2 504.15 217.3 505.95 217.3 508.95
L 208.9 508.95
Q 209.1 505.45 210.3 503.95 211.5 502.45 213.3 502.45
M 242.8 500.55
Q 241.6 500.55 241 500.65
L 235.2 515.65
Q 232.8 508.65 231.4 505.15 231 504.35 231 503.85 231 503.25 231.6 502.95 232.1 502.65 233.3 502.55 233.5 501.95 233.5 500.55 231.3 500.65 228.7 500.65 226.6 500.65 224.4 500.65 224.4 501.75 224.6 502.55 225.6 502.85 226.1 503.35 226.6 503.85 227.1 505.15 230.1 512.45 233.2 521.25 233.9 521.25 234.3 521.15 234.7 521.05 235.1 520.85
L 240.9 506.45
Q 244 513.55 247 521.25 248.4 521.25 249.1 520.85
L 253.5 508.05
Q 254.2 505.75 254.7 504.65 255.2 503.65 255.6 503.15 256 502.65 256.7 502.55 257.1 501.65 257.1 500.55 255.6 500.65 253.2 500.65 251 500.65 249.3 500.55 249.3 501.55 249.7 502.55 250.9 502.65 251.5 503.25 252.1 503.75 252.1 505.05 252.1 506.25 251.5 508.15
L 249 515.65
Q 245.2 506.15 242.8 500.55
M 178.1 492.85
Q 179.9 492.95 180.5 493.75 181.2 494.45 181.2 496.75
L 181.2 514.75
Q 181.2 516.45 180.9 517.35 180.6 518.25 180 518.65 179.3 519.05 178.1 519.05 177.9 519.75 177.9 520.95 181.2 520.85 189.8 520.85 195.2 520.85 197.8 518.45 200.4 516.05 200.4 512.15 200.4 505.15 191.8 504.65 194.7 504.25 196.4 502.25 198.2 500.35 198.2 497.45 198.2 493.85 195.6 492.45 193.1 491.05 188.8 491.05 186.7 491.05 185.6 491.05
L 182.5 491.15
Q 179.7 491.15 177.9 490.95 177.9 492.25 178.1 492.85
M 187.1 492.95
Q 189.8 492.95 191.7 494.35 193.7 495.65 193.7 498.75 193.7 504.35 186.7 504.35
L 185.3 504.35 185.3 493.15
Q 186.1 492.95 187.1 492.95
M 185.3 506.25
L 186.3 506.25
Q 195.7 506.25 195.7 512.75 195.7 515.75 194.1 517.35 192.6 518.95 189.4 518.95 187.6 518.95 186.8 518.65 186 518.35 185.6 517.45 185.3 516.65 185.3 514.75
L 185.3 506.25
M 163.3 436.35
Q 163.8 435.65 164 434.85 163.7 430.65 161.7 428.15 159.8 425.75 155.8 425.75 153 425.75 151 427.15 148.9 428.55 147.8 430.95 146.7 433.35 146.7 436.15 146.7 439.15 147.7 441.55 148.8 443.85 150.9 445.25 153 446.65 156 446.65 158.5 446.65 160.4 445.75 162.3 444.95 163.8 442.95 163.8 442.65 163.4 442.25 163.1 441.85 162.8 441.65 161.7 442.85 160.3 443.55 158.9 444.15 157.4 444.15 154.2 444.15 152.7 442.05 151.2 439.95 151 436.55 155.6 436.35 163.3 436.35
M 155.4 427.85
Q 157.3 427.85 158.3 429.55 159.4 431.35 159.4 434.35
L 151 434.35
Q 151.2 430.85 152.4 429.35 153.6 427.85 155.4 427.85
M 175.4 431.75
Q 176.1 430.05 177.2 429.35 178.4 428.65 179.6 428.65 181.5 428.65 182.6 429.85 183.7 431.05 183.7 433.95
L 183.7 440.65
Q 183.7 442.85 183 443.65 182.3 444.45 180.7 444.45 180.5 445.15 180.5 446.35 181 446.35 181.3 446.35 183.9 446.25 185.7 446.25 188.6 446.25 190.5 446.35 190.5 445.15 190.3 444.45 188.9 444.45 188.3 443.65 187.7 442.85 187.7 440.65
L 187.7 433.15
Q 187.7 429.35 185.9 427.65 184.1 425.95 181.4 425.95 179.3 425.95 177.6 426.85 175.9 427.85 175 429.05 174.7 429.45 174.6 429.75 174.4 430.05 174.3 430.25 174.7 429.05 174.7 427.65 174.7 426.05 173.7 425.75 172.7 426.25 170.9 426.65 169.2 427.15 167.8 427.15 167.4 427.85 167.4 428.85 168.8 428.85 169.5 429.15 170.2 429.55 170.4 430.15 170.7 430.85 170.7 431.95
L 170.7 440.65
Q 170.7 442.85 170 443.65 169.4 444.45 167.6 444.45 167.4 445.15 167.4 446.35 169.3 446.25 172.7 446.25 174.2 446.25 177.9 446.35 177.9 445.15 177.7 444.45 176 444.45 175.3 443.65 174.7 442.85 174.7 440.65
L 174.7 435.95
Q 174.7 433.45 175.4 431.75
M 214 417.85
Q 215.4 417.85 216.1 418.15 216.8 418.45 217.1 419.15 217.3 419.85 217.3 420.95
L 217.3 426.35
Q 215.4 425.75 213.6 425.75 210.4 425.75 207.9 427.15 205.4 428.65 204 431.25 202.7 433.75 202.7 436.85 202.7 441.85 204.8 444.25 206.9 446.65 210.9 446.65 212.9 446.65 214.6 445.65 216.2 444.55 216.9 443.35 217.5 442.35 217.9 441.55 217.9 441.75 217.7 442.55 217.6 443.35 217.6 444.15 217.6 445.45 217.8 445.95 218.1 446.35 218.7 446.65 219.6 446.15 221.1 445.75 222.6 445.35 223.7 445.25 224 444.55 224 443.25 222.2 443.25 221.7 442.55 221.2 441.95 221.2 440.25
L 221.2 416.45
Q 221.2 415.05 220.3 414.75 219.5 415.25 217.5 415.75 215.5 416.15 214.4 416.15 214 416.85 214 417.85
M 215.5 428.15
Q 216.4 428.55 217.3 429.25
L 217.3 435.45
Q 217.3 439.75 215.7 441.85 214.1 443.85 211.9 443.85 210.8 443.85 209.7 443.15 208.6 442.35 207.8 440.65 207 438.95 207 436.35 207 433.05 208 431.15 209 429.25 210.5 428.45 211.9 427.75 213.4 427.75 214.6 427.75 215.5 428.15
M 246 427.65
Q 246 426.05 245.1 425.75 244 426.15 242.4 426.55 240.7 426.85 239.1 426.95 238.8 427.35 238.8 427.65 238.8 427.95 238.8 428.65 240.2 428.65 240.9 428.95 241.6 429.35 241.8 429.95 242.1 430.55 242.1 431.75
L 242.1 436.25
Q 242.1 439.95 240.6 441.85 239.2 443.75 236.9 443.75 234.9 443.75 234.1 442.25 233.3 440.75 233.3 437.65
L 233.3 427.65
Q 233.3 426.05 232.3 425.75 231.3 426.25 229.7 426.65 228.1 427.15 226.7 427.15 226.4 427.85 226.4 428.85 227.7 428.85 228.3 429.15 229 429.55 229.1 430.15 229.3 430.75 229.3 431.95
L 229.3 438.65
Q 229.3 442.85 230.9 444.65 232.5 446.45 235.6 446.45 237.4 446.45 238.6 445.95 239.9 445.35 241.1 444.15 242.1 443.15 242.5 442.25 242.4 443.15 242.4 444.15 242.4 445.45 242.6 445.95 242.9 446.35 243.5 446.65 244.4 446.15 245.9 445.75 247.4 445.35 248.5 445.25 248.8 444.55 248.8 443.25 247 443.25 246.5 442.55 246 441.95 246 440.25
L 246 427.65
M 255.1 430.15
Q 255.4 430.85 255.4 431.95
L 255.4 440.65
Q 255.4 442.85 254.8 443.65 254.1 444.45 252.3 444.45 252.1 445.15 252.1 446.35 253.9 446.25 257.9 446.25 261.5 446.25 263.5 446.35 263.5 445.15 263.3 444.45 261.8 444.45 260.9 444.05 260.1 443.65 259.7 442.65 259.4 441.65 259.4 439.75
L 259.4 435.55
Q 259.4 433.95 259.9 432.45 260.5 431.05 261.4 430.15 262.3 429.35 263.1 429.35 264.1 429.35 264.6 430.05 265.2 430.75 265.2 432.75
L 265.25 432.75
Q 266.6 432.75 267.8 432.35 267.8 429.15 268.1 427.15 266.8 426.15 265.25 426.05 265.15 426.05 265 426.05 261.9 426.05 259.7 429.65 259.4 430.05 259.1 430.85 258.9 431.65 258.8 431.95 258.8 431.75 259.1 430.45 259.4 429.15 259.4 427.65 259.4 426.05 258.4 425.75 257.4 426.25 255.6 426.65 253.9 427.15 252.5 427.15 252.1 427.85 252.1 428.85 253.5 428.85 254.2 429.15 254.9 429.55 255.1 430.15
M 286.2 432.65
Q 286.2 429.65 286.5 427.65 283.9 425.75 279.8 425.75 277 425.75 274.9 427.15 272.8 428.65 271.7 431.15 270.7 433.55 270.7 436.25 270.7 439.55 272 441.95 273.3 444.25 275.4 445.45 277.5 446.65 279.8 446.65 284.6 446.65 287 442.85 286.9 442.45 286.6 442.05 286.3 441.75 285.9 441.55 285 442.85 283.7 443.45 282.5 444.15 281 444.15 279.1 444.15 277.7 442.95 276.2 441.75 275.5 439.85 274.7 437.85 274.7 435.55 274.7 431.85 276 429.85 277.3 427.75 279.5 427.75 281.4 427.75 282.6 429.15 283.9 430.55 284.1 433.05 285.5 433.05 286.2 432.65
M 296.4 414.75
Q 295.7 415.25 293.7 415.75 291.6 416.15 290.5 416.15 290.1 416.85 290.1 417.85 291.6 417.85 292.3 418.15 293 418.45 293.2 419.15 293.4 419.85 293.4 420.95
L 293.4 440.65
Q 293.4 442.85 292.8 443.65 292.1 444.45 290.4 444.45 290.2 445.15 290.2 446.35 292.1 446.25 295.4 446.25 297 446.25 300.7 446.35 300.7 445.15 300.4 444.45 298.7 444.45 298.1 443.65 297.4 442.85 297.4 440.65
L 297.4 435.95
Q 297.4 433.45 298.1 431.75 298.8 430.05 300 429.35 301.1 428.65 302.4 428.65 304.3 428.65 305.4 429.85 306.5 431.05 306.5 433.95
L 306.5 440.65
Q 306.5 442.85 305.8 443.65 305.1 444.45 303.4 444.45 303.2 445.15 303.2 446.35 303.8 446.35 304.1 446.35 306.6 446.25 308.5 446.25 311.4 446.25 313.2 446.35 313.2 445.15 313 444.45 311.7 444.45 311 443.65 310.4 442.85 310.4 440.65
L 310.4 433.15
Q 310.4 429.35 308.7 427.65 306.9 425.95 304.1 425.95 302 425.95 300.3 426.85 298.6 427.85 297.8 429.05 297.5 429.45 297.3 429.75 297.2 430.05 297.1 430.25 297.4 429.05 297.4 427.65
L 297.4 416.45
Q 297.4 415.05 296.4 414.75
M 1106.6 504.75
Q 1106.8 505.45 1106.8 506.55
L 1106.8 515.25
Q 1106.8 517.45 1106.2 518.25 1105.5 519.05 1103.7 519.05 1103.5 519.75 1103.5 520.95 1105.7 520.85 1108.6 520.85 1111.3 520.85 1113.6 520.95 1113.6 519.85 1113.3 519.05 1111.9 519.05 1111.3 518.25 1110.8 517.45 1110.8 515.25
L 1110.8 502.05
Q 1110.8 500.65 1109.8 500.35 1109 500.85 1107 501.35 1105 501.75 1103.9 501.75 1103.5 502.45 1103.5 503.45 1104.9 503.45 1105.6 503.75 1106.3 504.05 1106.6 504.75
M 1018.5 501.15
Q 1016.8 501.45 1015.2 501.55 1014.9 501.95 1014.9 502.25 1014.9 502.55 1014.9 503.25 1016.3 503.25 1017 503.55 1017.7 503.95 1017.9 504.55 1018.2 505.15 1018.2 506.35
L 1018.2 510.85
Q 1018.2 514.55 1016.7 516.45 1015.3 518.35 1013 518.35 1011 518.35 1010.2 516.85 1009.4 515.35 1009.4 512.25
L 1009.4 502.25
Q 1009.4 500.65 1008.4 500.35 1007.4 500.85 1005.8 501.25 1004.2 501.75 1002.8 501.75 1002.5 502.45 1002.5 503.45 1003.8 503.45 1004.4 503.75 1005.1 504.15 1005.2 504.75 1005.4 505.35 1005.4 506.55
L 1005.4 513.25
Q 1005.4 517.45 1007 519.25 1008.6 521.05 1011.7 521.05 1013.5 521.05 1014.7 520.55 1016 519.95 1017.2 518.75 1018.2 517.75 1018.6 516.85 1018.5 517.75 1018.5 518.75 1018.5 520.05 1018.7 520.55 1019 520.95 1019.6 521.25 1020.5 520.75 1022 520.35 1023.5 519.95 1024.6 519.85 1024.9 519.15 1024.9 517.85 1023.1 517.85 1022.6 517.15 1022.1 516.55 1022.1 514.85
L 1022.1 502.25
Q 1022.1 500.65 1021.2 500.35 1020.1 500.75 1018.5 501.15
M 1035.8 503.65
Q 1035.5 504.05 1035.4 504.35 1035.2 504.65 1035.1 504.85 1035.5 503.65 1035.5 502.25 1035.5 500.65 1034.5 500.35 1033.5 500.85 1031.7 501.25 1030 501.75 1028.6 501.75 1028.2 502.45 1028.2 503.45 1029.6 503.45 1030.3 503.75 1031 504.15 1031.2 504.75 1031.5 505.45 1031.5 506.55
L 1031.5 515.25
Q 1031.5 517.45 1030.8 518.25 1030.2 519.05 1028.4 519.05 1028.2 519.75 1028.2 520.95 1030.1 520.85 1033.5 520.85 1035 520.85 1038.7 520.95 1038.7 519.75 1038.5 519.05 1036.8 519.05 1036.1 518.25 1035.5 517.45 1035.5 515.25
L 1035.5 510.55
Q 1035.5 508.05 1036.2 506.35 1036.9 504.65 1038 503.95 1039.2 503.25 1040.4 503.25 1042.3 503.25 1043.4 504.45 1044.5 505.65 1044.5 508.55
L 1044.5 515.25
Q 1044.5 517.45 1043.8 518.25 1043.1 519.05 1041.5 519.05 1041.3 519.75 1041.3 520.95 1041.8 520.95 1042.1 520.95 1044.7 520.85 1046.5 520.85 1049.4 520.85 1051.3 520.95 1051.3 519.75 1051.1 519.05 1049.7 519.05 1049.1 518.25 1048.5 517.45 1048.5 515.25
L 1048.5 507.75
Q 1048.5 503.95 1046.7 502.25 1044.9 500.55 1042.2 500.55 1040.1 500.55 1038.4 501.45 1036.7 502.45 1035.8 503.65
M 1013.5 427.45
Q 1013.5 426.05 1012.5 425.75 1011.7 426.25 1009.7 426.75 1007.7 427.15 1006.6 427.15 1006.2 427.85 1006.2 428.85 1007.6 428.85 1008.3 429.15 1009 429.45 1009.3 430.15 1009.5 430.85 1009.5 431.95
L 1009.5 440.65
Q 1009.5 442.85 1008.9 443.65 1008.2 444.45 1006.4 444.45 1006.2 445.15 1006.2 446.35 1008.4 446.25 1011.3 446.25 1014 446.25 1016.3 446.35 1016.3 445.25 1016 444.45 1014.6 444.45 1014 443.65 1013.5 442.85 1013.5 440.65
L 1013.5 427.45
M 1023.4 429.95
Q 1023.4 428.85 1024.2 428.15 1025 427.55 1026.4 427.55 1028.5 427.55 1029.8 428.95 1031.2 430.45 1031.3 432.35 1032.7 432.35 1033.5 431.85 1033.3 430.75 1033.3 429.35 1033.3 428.55 1033.4 427.25 1032 426.45 1030.5 426.05 1029 425.75 1027.1 425.75 1025.5 425.75 1023.8 426.35 1022.1 426.95 1020.9 428.25 1019.8 429.45 1019.8 431.25 1019.8 432.95 1020.4 434.05 1021 435.25 1022.4 436.05 1023.7 436.85 1026.3 437.85 1028.3 438.65 1029.3 439.25 1030.3 439.85 1030.7 440.45 1031 440.95 1031 441.75 1031 442.95 1030 443.75 1029 444.55 1027.3 444.55 1025 444.55 1023.6 443.15 1022.2 441.85 1021.9 439.05 1020.3 439.05 1019.6 439.55 1019.7 440.85 1019.7 442.05 1019.7 443.85 1019.6 445.05 1021.2 445.85 1022.7 446.25 1024.3 446.65 1026.8 446.65 1030.3 446.65 1032.6 444.95 1034.9 443.25 1034.9 440.45 1034.9 438.85 1034.3 437.75 1033.7 436.75 1032.4 435.85 1031 434.95 1028.6 434.05 1026.3 433.15 1025.2 432.45 1024.1 431.85 1023.7 431.35 1023.4 430.75 1023.4 429.95
M 1013.8 418.15
Q 1013.8 416.95 1013 416.25 1012.3 415.45 1011.1 415.45 1010.1 415.45 1009.3 416.25 1008.5 417.05 1008.5 418.15 1008.5 419.25 1009.3 419.95 1010 420.75 1011.1 420.75 1012.2 420.75 1013 419.95 1013.8 419.15 1013.8 418.15
M 1108.4 490.05
Q 1107.4 490.05 1106.6 490.85 1105.8 491.65 1105.8 492.75 1105.8 493.85 1106.6 494.55 1107.3 495.35 1108.4 495.35 1109.5 495.35 1110.3 494.55 1111.1 493.75 1111.1 492.75 1111.1 491.55 1110.3 490.85 1109.6 490.05 1108.4 490.05
M 1094.4 494.15
Q 1094.2 493.75 1093.8 493.55 1092.3 494.85 1090.5 495.35
L 1090.5 501.15 1087.8 501.15
Q 1087.4 502.05 1087.4 503.05 1089.2 503.25 1090.5 503.65
L 1090.5 515.55
Q 1090.5 518.55 1091.8 519.95 1093 521.25 1095.7 521.25 1097 521.25 1098.4 520.65 1099.9 520.05 1100.6 519.25 1100.5 518.45 1100 517.85 1099.3 518.35 1098.6 518.65 1097.9 518.85 1097.1 518.85 1094.5 518.85 1094.5 514.65
L 1094.5 503.65
Q 1096.6 503.25 1099.8 503.05 1100.2 502.05 1100.2 501.15
L 1094.5 501.15 1094.5 495.85
Q 1094.5 494.55 1094.4 494.15
M 1069.5 490.35
Q 1067.5 490.75 1066.4 490.75 1066 491.45 1066 492.45 1067.4 492.45 1068.1 492.75 1068.8 493.05 1069.1 493.75 1069.3 494.45 1069.3 495.55
L 1069.3 500.95
Q 1067.4 500.35 1065.6 500.35 1062.4 500.35 1059.9 501.75 1057.4 503.25 1056 505.85 1054.7 508.35 1054.7 511.45 1054.7 516.45 1056.8 518.85 1058.9 521.25 1062.9 521.25 1064.9 521.25 1066.6 520.25 1068.2 519.15 1068.9 517.95 1069.5 516.95 1069.9 516.15 1069.9 516.35 1069.7 517.15 1069.6 517.95 1069.6 518.75 1069.6 520.05 1069.8 520.55 1070.1 520.95 1070.7 521.25 1071.6 520.75 1073.1 520.35 1074.6 519.95 1075.7 519.85 1076 519.15 1076 517.85 1074.2 517.85 1073.7 517.15 1073.2 516.55 1073.2 514.85
L 1073.2 491.05
Q 1073.2 489.65 1072.3 489.35 1071.5 489.85 1069.5 490.35
M 1067.5 502.75
Q 1068.4 503.15 1069.3 503.85
L 1069.3 510.05
Q 1069.3 514.35 1067.7 516.45 1066.1 518.45 1063.9 518.45 1062.8 518.45 1061.7 517.75 1060.6 516.95 1059.8 515.25 1059 513.55 1059 510.95 1059 507.65 1060 505.75 1061 503.85 1062.5 503.05 1063.9 502.35 1065.4 502.35 1066.6 502.35 1067.5 502.75
M 1053.9 432.65
Q 1053.9 429.65 1054.2 427.65 1051.6 425.75 1047.5 425.75 1044.7 425.75 1042.6 427.15 1040.5 428.65 1039.4 431.15 1038.4 433.55 1038.4 436.25 1038.4 439.55 1039.7 441.95 1041 444.25 1043.1 445.45 1045.2 446.65 1047.5 446.65 1052.3 446.65 1054.7 442.85 1054.6 442.45 1054.3 442.05 1054 441.75 1053.6 441.55 1052.7 442.85 1051.4 443.45 1050.2 444.15 1048.7 444.15 1046.8 444.15 1045.4 442.95 1043.9 441.75 1043.2 439.85 1042.4 437.85 1042.4 435.55 1042.4 431.85 1043.7 429.85 1045 427.75 1047.2 427.75 1049.1 427.75 1050.3 429.15 1051.6 430.55 1051.8 433.05 1053.2 433.05 1053.9 432.65
M 1064.1 414.75
Q 1063.4 415.25 1061.4 415.75 1059.3 416.15 1058.2 416.15 1057.8 416.85 1057.8 417.85 1059.3 417.85 1060 418.15 1060.7 418.45 1060.9 419.15 1061.1 419.85 1061.1 420.95
L 1061.1 440.65
Q 1061.1 442.85 1060.5 443.65 1059.8 444.45 1058.1 444.45 1057.9 445.15 1057.9 446.35 1059.8 446.25 1063.1 446.25 1064.7 446.25 1068.4 446.35 1068.4 445.15 1068.1 444.45 1066.4 444.45 1065.8 443.65 1065.1 442.85 1065.1 440.65
L 1065.1 435.95
Q 1065.1 433.45 1065.8 431.75 1066.5 430.05 1067.7 429.35 1068.8 428.65 1070.1 428.65 1072 428.65 1073.1 429.85 1074.2 431.05 1074.2 433.95
L 1074.2 440.65
Q 1074.2 442.85 1073.5 443.65 1072.8 444.45 1071.1 444.45 1070.9 445.15 1070.9 446.35 1071.5 446.35 1071.8 446.35 1074.3 446.25 1076.2 446.25 1079.1 446.25 1080.9 446.35 1080.9 445.15 1080.7 444.45 1079.4 444.45 1078.7 443.65 1078.1 442.85 1078.1 440.65
L 1078.1 433.15
Q 1078.1 429.35 1076.4 427.65 1074.6 425.95 1071.8 425.95 1069.7 425.95 1068 426.85 1066.3 427.85 1065.5 429.05 1065.2 429.45 1065 429.75 1064.9 430.05 1064.8 430.25 1065.1 429.05 1065.1 427.65
L 1065.1 416.45
Q 1065.1 415.05 1064.1 414.75
M 1097.9 443.55
Q 1096.5 444.15 1095 444.15 1091.8 444.15 1090.3 442.05 1088.8 439.95 1088.6 436.55 1093.2 436.35 1100.9 436.35 1101.4 435.65 1101.6 434.85 1101.3 430.65 1099.3 428.15 1097.4 425.75 1093.4 425.75 1090.6 425.75 1088.6 427.15 1087.85 427.65 1087.25 428.25 1086.1 429.4 1085.4 430.95 1084.3 433.35 1084.3 436.15 1084.3 439.15 1085.3 441.55 1086.05 443.1 1087.25 444.25 1087.8 444.8 1088.5 445.25 1090.6 446.65 1093.6 446.65 1096.1 446.65 1098 445.75 1099.9 444.95 1101.4 442.95 1101.4 442.65 1101 442.25 1100.7 441.85 1100.4 441.65 1099.3 442.85 1097.9 443.55
M 1095.9 429.55
Q 1097 431.35 1097 434.35
L 1088.6 434.35
Q 1088.8 430.85 1090 429.35 1091.2 427.85 1093 427.85 1094.9 427.85 1095.9 429.55
M 1108 430.15
Q 1108.3 430.85 1108.3 431.95
L 1108.3 440.65
Q 1108.3 442.85 1107.6 443.65 1107 444.45 1105.2 444.45 1105 445.15 1105 446.35 1106.9 446.25 1110.3 446.25 1111.8 446.25 1115.5 446.35 1115.5 445.15 1115.3 444.45 1113.6 444.45 1112.9 443.65 1112.3 442.85 1112.3 440.65
L 1112.3 435.95
Q 1112.3 433.45 1113 431.75 1113.7 430.05 1114.8 429.35 1116 428.65 1117.2 428.65 1119.1 428.65 1120.2 429.85 1121.3 431.05 1121.3 433.95
L 1121.3 440.65
Q 1121.3 442.85 1120.6 443.65 1119.9 444.45 1118.3 444.45 1118.1 445.15 1118.1 446.35 1118.6 446.35 1118.9 446.35 1121.5 446.25 1123.3 446.25 1126.2 446.25 1128.1 446.35 1128.1 445.15 1127.9 444.45 1126.5 444.45 1125.9 443.65 1125.3 442.85 1125.3 440.65
L 1125.3 433.15
Q 1125.3 429.35 1123.5 427.65 1121.7 425.95 1119 425.95 1116.9 425.95 1115.2 426.85 1113.5 427.85 1112.6 429.05 1112.3 429.45 1112.2 429.75 1112 430.05 1111.9 430.25 1112.3 429.05 1112.3 427.65 1112.3 426.05 1111.3 425.75 1110.3 426.25 1108.5 426.65 1106.8 427.15 1105.4 427.15 1105 427.85 1105 428.85 1106.4 428.85 1107.1 429.15 1107.8 429.55 1108 430.15
M 1218 515.45
Q 1216.6 515.45 1215.7 516.35 1214.8 517.25 1214.8 518.45 1214.8 519.75 1215.6 520.55 1216.4 521.25 1217.8 521.25 1219.2 521.25 1220 520.55 1220.9 519.75 1220.9 518.25 1220.9 517.15 1220.1 516.35 1219.3 515.45 1218 515.45
M 1137.2 515.55
Q 1138.6 512.95 1138.6 509.65 1138.6 504.95 1136.4 502.65 1134.3 500.35 1130.3 500.35 1128.3 500.35 1126.7 501.35 1125 502.35 1124.3 503.55 1123.7 504.55 1123.3 505.45 1123.6 504.25 1123.8 503.55 1124 502.95 1124 502.25 1124 500.65 1123 500.35 1122 500.85 1120.2 501.25 1118.5 501.75 1117.1 501.75 1116.7 502.45 1116.7 503.45 1118.1 503.45 1118.8 503.75 1119.5 504.15 1119.7 504.75 1120 505.45 1120 506.55
L 1120 525.95
Q 1120 528.15 1119.4 528.85 1118.7 529.65 1116.9 529.75 1116.7 530.35 1116.7 531.65 1118.5 531.55 1122.5 531.55 1126.1 531.55 1128.1 531.65 1128.1 530.35 1127.9 529.75 1126.4 529.65 1125.5 529.25 1124.7 528.95 1124.3 527.95 1124 526.95 1124 525.05
L 1124 520.65
Q 1125.8 521.25 1127.6 521.25 1130.8 521.25 1133.3 519.75 1135.8 518.25 1137.2 515.55
M 1129.3 503.05
Q 1131.4 503.05 1132.8 505.15 1134.2 507.25 1134.2 510.65 1134.2 513.85 1133.2 515.85 1132.2 517.75 1130.7 518.45 1129.3 519.25 1127.8 519.25 1126.6 519.25 1125.7 518.85 1124.8 518.45 1124 517.65
L 1124 511.45
Q 1124 507.25 1125.5 505.15 1127.1 503.05 1129.3 503.05
M 1161.6 502.65
Q 1159.5 500.35 1155.5 500.35 1153.5 500.35 1151.9 501.35 1150.2 502.35 1149.5 503.55 1148.9 504.55 1148.5 505.45 1148.8 504.25 1149 503.55 1149.2 502.95 1149.2 502.25 1149.2 500.65 1148.2 500.35 1147.2 500.85 1145.4 501.25 1143.7 501.75 1142.3 501.75 1141.9 502.45 1141.9 503.45 1143.3 503.45 1144 503.75 1144.7 504.15 1144.9 504.75 1145.2 505.45 1145.2 506.55
L 1145.2 525.95
Q 1145.2 528.15 1144.6 528.85 1143.9 529.65 1142.1 529.75 1141.9 530.35 1141.9 531.65 1143.7 531.55 1147.7 531.55 1151.3 531.55 1153.3 531.65 1153.3 530.35 1153.1 529.75 1151.6 529.65 1150.7 529.25 1149.9 528.95 1149.5 527.95 1149.2 526.95 1149.2 525.05
L 1149.2 520.65
Q 1151 521.25 1152.8 521.25 1156 521.25 1158.5 519.75 1161 518.25 1162.4 515.55 1163.8 512.95 1163.8 509.65 1163.8 504.95 1161.6 502.65
M 1154.5 503.05
Q 1156.6 503.05 1158 505.15 1159.4 507.25 1159.4 510.65 1159.4 513.85 1158.4 515.85 1157.4 517.75 1155.9 518.45 1154.5 519.25 1153 519.25 1151.8 519.25 1150.9 518.85 1150 518.45 1149.2 517.65
L 1149.2 511.45
Q 1149.2 507.25 1150.7 505.15 1152.3 503.05 1154.5 503.05
M 1182.3 502.75
Q 1180.4 500.35 1176.4 500.35 1173.6 500.35 1171.6 501.75 1169.5 503.15 1168.4 505.55 1167.3 507.95 1167.3 510.75 1167.3 513.75 1168.3 516.15 1169.4 518.45 1171.5 519.85 1173.6 521.25 1176.6 521.25 1179.1 521.25 1181 520.35 1182.9 519.55 1184.4 517.55 1184.4 517.25 1184 516.85 1183.7 516.45 1183.4 516.25 1182.3 517.45 1180.9 518.15 1179.5 518.75 1178 518.75 1174.8 518.75 1173.3 516.65 1171.8 514.55 1171.6 511.15 1176.2 510.95 1183.9 510.95 1184.4 510.25 1184.6 509.45 1184.3 505.25 1182.3 502.75
M 1176 502.45
Q 1177.9 502.45 1178.9 504.15 1180 505.95 1180 508.95
L 1171.6 508.95
Q 1171.8 505.45 1173 503.95 1174.2 502.45 1176 502.45
M 1200.2 503.25
Q 1202.1 503.25 1203.2 504.45 1204.3 505.65 1204.3 508.55
L 1204.3 515.25
Q 1204.3 517.45 1203.6 518.25 1202.9 519.05 1201.3 519.05 1201.1 519.75 1201.1 520.95 1201.6 520.95 1201.9 520.95 1204.5 520.85 1206.3 520.85 1209.2 520.85 1211.1 520.95 1211.1 519.75 1210.9 519.05 1209.5 519.05 1208.9 518.25 1208.3 517.45 1208.3 515.25
L 1208.3 507.75
Q 1208.3 503.95 1206.5 502.25 1204.7 500.55 1202 500.55 1199.9 500.55 1198.2 501.45 1196.5 502.45 1195.6 503.65 1195.3 504.05 1195.2 504.35 1195 504.65 1194.9 504.85 1195.3 503.65 1195.3 502.25 1195.3 500.65 1194.3 500.35 1193.3 500.85 1191.5 501.25 1189.8 501.75 1188.4 501.75 1188 502.45 1188 503.45 1189.4 503.45 1190.1 503.75 1190.8 504.15 1191 504.75 1191.3 505.45 1191.3 506.55
L 1191.3 515.25
Q 1191.3 517.45 1190.6 518.25 1190 519.05 1188.2 519.05 1188 519.75 1188 520.95 1189.9 520.85 1193.3 520.85 1194.8 520.85 1198.5 520.95 1198.5 519.75 1198.3 519.05 1196.6 519.05 1195.9 518.25 1195.3 517.45 1195.3 515.25
L 1195.3 510.55
Q 1195.3 508.05 1196 506.35 1196.7 504.65 1197.8 503.95 1199 503.25 1200.2 503.25
M 1148 431.55
Q 1148.7 429.85 1149.8 429.15 1151 428.35 1152.2 428.35 1154.1 428.35 1155.2 429.55 1156.2 430.85 1156.2 433.75
L 1156.2 440.65
Q 1156.2 442.85 1155.6 443.65 1155 444.45 1153.2 444.45 1153 445.15 1153 446.35 1155.3 446.25 1158.2 446.25 1161.2 446.25 1163.4 446.35 1163.4 445.15 1163.2 444.45 1161.5 444.45 1160.8 443.65 1160.2 442.85 1160.2 440.65
L 1160.2 435.95
Q 1160.2 433.45 1160.9 431.75 1161.6 430.05 1162.7 429.35 1163.8 428.65 1165 428.65 1167 428.65 1168 429.85 1169.1 431.05 1169.1 433.95
L 1169.1 440.65
Q 1169.1 442.85 1168.4 443.65 1167.8 444.45 1166 444.45 1165.8 445.15 1165.8 446.35 1168 446.25 1171.1 446.25 1173.9 446.25 1175.9 446.35 1175.9 445.15 1175.6 444.45 1174.2 444.45 1173.6 443.65 1173 442.85 1173 440.65
L 1173 433.15
Q 1173 429.35 1171.3 427.65 1169.5 425.95 1166.8 425.95 1164.7 425.95 1163 426.85 1161.4 427.85 1160.5 429.05 1160.1 429.65 1159.7 430.55 1159.7 430.05 1159.6 429.45 1158.9 427.55 1157.4 426.65 1155.9 425.75 1153.9 425.75 1151.8 425.75 1150.2 426.65 1148.5 427.65 1147.7 428.85 1147.5 429.05 1146.9 430.25 1147.1 428.55 1147.1 427.45 1147.1 426.05 1146.1 425.75 1145.3 426.15 1143.5 426.65 1141.6 427.15 1140.5 427.15 1140.1 427.85 1140.1 428.85 1141.5 428.85 1142.2 429.15 1142.9 429.55 1143.1 430.15 1143.4 430.85 1143.4 431.95
L 1143.4 440.65
Q 1143.4 442.85 1142.8 443.65 1142.1 444.45 1140.3 444.45 1140.1 445.15 1140.1 446.35 1142.2 446.25 1145.4 446.25 1148.4 446.25 1150.6 446.35 1150.6 445.15 1150.4 444.45 1148.6 444.45 1148 443.65 1147.3 442.85 1147.3 440.65
L 1147.3 435.75
Q 1147.3 433.25 1148 431.55
M 1186.3 427.45
Q 1186.3 426.05 1185.3 425.75 1184.5 426.25 1182.5 426.75 1180.5 427.15 1179.4 427.15 1179 427.85 1179 428.85 1180.4 428.85 1181.1 429.15 1181.8 429.45 1182.1 430.15 1182.3 430.85 1182.3 431.95
L 1182.3 440.65
Q 1182.3 442.85 1181.7 443.65 1181 444.45 1179.2 444.45 1179 445.15 1179 446.35 1181.2 446.25 1184.1 446.25 1186.8 446.25 1189.1 446.35 1189.1 445.25 1188.8 444.45 1187.4 444.45 1186.8 443.65 1186.3 442.85 1186.3 440.65
L 1186.3 427.45
M 1181.3 418.15
Q 1181.3 419.25 1182.1 419.95 1182.8 420.75 1183.9 420.75 1185 420.75 1185.8 419.95 1186.6 419.15 1186.6 418.15 1186.6 416.95 1185.8 416.25 1185.1 415.45 1183.9 415.45 1182.9 415.45 1182.1 416.25 1181.3 417.05 1181.3 418.15
M 1198.5 419.55
Q 1198.3 419.15 1197.9 418.95 1196.4 420.25 1194.6 420.75
L 1194.6 426.55 1191.9 426.55
Q 1191.5 427.45 1191.5 428.45 1193.3 428.65 1194.6 429.05
L 1194.6 440.95
Q 1194.6 443.95 1195.9 445.35 1197.1 446.65 1199.8 446.65 1201.1 446.65 1202.5 446.05 1204 445.45 1204.7 444.65 1204.6 443.85 1204.1 443.25 1203.4 443.75 1202.7 444.05 1202 444.25 1201.2 444.25 1198.6 444.25 1198.6 440.05
L 1198.6 429.05
Q 1200.7 428.65 1203.9 428.45 1204.3 427.45 1204.3 426.55
L 1198.6 426.55 1198.6 421.25
Q 1198.6 419.95 1198.5 419.55
M 1248.4 427.45
Q 1248.4 426.05 1247.4 425.75 1246.6 426.25 1244.6 426.75 1242.6 427.15 1241.5 427.15 1241.1 427.85 1241.1 428.85 1242.5 428.85 1243.2 429.15 1243.9 429.45 1244.2 430.15 1244.4 430.85 1244.4 431.95
L 1244.4 440.65
Q 1244.4 442.85 1243.8 443.65 1243.1 444.45 1241.3 444.45 1241.1 445.15 1241.1 446.35 1243.3 446.25 1246.2 446.25 1248.9 446.25 1251.2 446.35 1251.2 445.25 1250.9 444.45 1249.5 444.45 1248.9 443.65 1248.4 442.85 1248.4 440.65
L 1248.4 427.45
M 1224.7 418.25
L 1228.6 418.25
Q 1232.4 418.25 1234 419.85 1235.6 421.35 1235.8 423.85 1237.1 423.85 1237.8 423.35 1237.3 421.25 1236.8 416.35 1232.5 416.55 1224.6 416.55 1220.2 416.55 1217.3 416.35 1217.3 417.65 1217.5 418.25 1219.2 418.35 1219.9 419.15 1220.5 419.85 1220.5 422.15
L 1220.5 440.65
Q 1220.5 442.85 1219.9 443.65 1219.2 444.45 1217.5 444.45 1217.3 445.15 1217.3 446.35 1219 446.25 1223.2 446.25 1226.8 446.25 1228.8 446.35 1228.8 445.15 1228.6 444.45 1227.1 444.45 1226.3 444.05 1225.5 443.65 1225 442.65 1224.7 441.65 1224.7 439.75
L 1224.7 433.15 1227.7 433.15
Q 1230.4 433.15 1231.5 433.95 1232.5 434.75 1232.7 437.05 1233.5 437.25 1234.7 437.25 1234.6 435.75 1234.6 432.15 1234.6 428.85 1234.7 427.35 1233.6 427.35 1232.6 427.65 1232.5 429.75 1231.5 430.45 1230.5 431.25 1227.7 431.25
L 1224.7 431.25 1224.7 418.25
M 1247.9 416.25
Q 1247.2 415.45 1246 415.45 1245 415.45 1244.2 416.25 1243.4 417.05 1243.4 418.15 1243.4 419.25 1244.2 419.95 1244.9 420.75 1246 420.75 1247.1 420.75 1247.9 419.95 1248.7 419.15 1248.7 418.15 1248.7 416.95 1247.9 416.25
M 1292.2 426.05
Q 1291 425.75 1289.4 425.75 1285.6 425.75 1283.6 427.75 1281.5 429.85 1281.5 433.05 1281.5 434.85 1282.2 436.25 1283 437.65 1284.3 438.65 1281.9 440.85 1281.9 443.25 1281.9 444.55 1282.4 445.35 1282.9 446.15 1284.1 446.55 1280.8 448.05 1280.8 451.25 1280.8 454.25 1282.7 455.75 1284.5 457.25 1288.5 457.25 1291.5 457.25 1294 455.85 1296.5 454.55 1297.9 452.45 1299.4 450.35 1299.4 448.35 1299.4 446.55 1298.6 445.45 1297.8 444.45 1296.1 443.95 1294.4 443.45 1291.4 443.45 1288.5 443.45 1287.2 443.35 1285.9 443.25 1285.5 442.85 1285 442.45 1285 441.65 1285 440.65 1286.1 439.55 1287.7 440.15 1289.5 440.15 1293.3 440.15 1295.4 438.05 1297.5 435.95 1297.5 432.75 1297.5 431.65 1297 430.45 1296.5 429.15 1295.5 428.15 1297.7 428.35 1299.7 428.85 1299.7 427.15 1299.4 426.05
L 1292.2 426.05
M 1289 427.65
Q 1291 427.65 1292.2 429.35 1293.4 430.95 1293.4 433.45 1293.4 435.65 1292.4 436.85 1291.5 438.15 1290 438.15 1287.9 438.15 1286.7 436.65 1285.6 435.15 1285.6 432.45 1285.6 430.45 1286.4 429.05 1287.3 427.65 1289 427.65
M 1288.5 447.05
Q 1291.5 447.05 1293 447.35 1294.6 447.65 1295.2 448.25 1295.7 448.85 1295.7 450.05 1295.7 451.35 1295 452.45 1294.2 453.55 1292.8 454.25 1291.4 454.85 1289.5 454.85 1286.9 454.85 1285.7 453.75 1284.6 452.65 1284.6 450.35 1284.6 449.15 1284.9 448.35 1285.3 447.65 1286.1 446.95 1287.4 447.05 1288.5 447.05
M 1272.8 427.65
Q 1271 425.95 1268.3 425.95 1266.2 425.95 1264.5 426.85 1262.8 427.85 1261.9 429.05 1261.6 429.45 1261.5 429.75 1261.3 430.05 1261.2 430.25 1261.6 429.05 1261.6 427.65 1261.6 426.05 1260.6 425.75 1259.6 426.25 1257.8 426.65 1256.1 427.15 1254.7 427.15 1254.3 427.85 1254.3 428.85 1255.7 428.85 1256.4 429.15 1257.1 429.55 1257.3 430.15 1257.6 430.85 1257.6 431.95
L 1257.6 440.65
Q 1257.6 442.85 1256.9 443.65 1256.3 444.45 1254.5 444.45 1254.3 445.15 1254.3 446.35 1256.2 446.25 1259.6 446.25 1261.1 446.25 1264.8 446.35 1264.8 445.15 1264.6 444.45 1262.9 444.45 1262.2 443.65 1261.6 442.85 1261.6 440.65
L 1261.6 435.95
Q 1261.6 433.45 1262.3 431.75 1263 430.05 1264.1 429.35 1265.3 428.65 1266.5 428.65 1268.4 428.65 1269.5 429.85 1270.6 431.05 1270.6 433.95
L 1270.6 440.65
Q 1270.6 442.85 1269.9 443.65 1269.2 444.45 1267.6 444.45 1267.4 445.15 1267.4 446.35 1267.9 446.35 1268.2 446.35 1270.8 446.25 1272.6 446.25 1275.5 446.25 1277.4 446.35 1277.4 445.15 1277.2 444.45 1275.8 444.45 1275.2 443.65 1274.6 442.85 1274.6 440.65
L 1274.6 433.15
Q 1274.6 429.35 1272.8 427.65
M 759.1 500.35
Q 756.3 500.35 754 501.65 751.7 503.05 750.4 505.45 749.2 507.85 749.2 510.75 749.2 513.85 750.4 516.25 751.6 518.65 753.9 519.95 756.1 521.25 759.1 521.25 762 521.25 764.3 519.85 766.5 518.55 767.8 516.15 769.1 513.75 769.1 510.75 769.1 506.05 766.4 503.15 763.7 500.35 759.1 500.35
M 761.7 503.55
Q 763 504.65 763.8 506.65 764.7 508.65 764.7 511.35 764.7 514.95 763.3 517.05 762 519.15 759.5 519.15 756.7 519.15 755.2 516.65 753.6 514.25 753.6 509.85 753.6 506.45 754.9 504.45 756.2 502.45 758.7 502.45 760.3 502.45 761.7 503.55
M 674.9 500.35
Q 672.1 500.35 670.1 501.75 668 503.15 666.9 505.55 665.8 507.95 665.8 510.75 665.8 513.75 666.8 516.15 667.9 518.45 670 519.85 672.1 521.25 675.1 521.25 677.6 521.25 679.5 520.35 681.4 519.55 682.9 517.55 682.9 517.25 682.5 516.85 682.2 516.45 681.9 516.25 680.8 517.45 679.4 518.15 678 518.75 676.5 518.75 673.3 518.75 671.8 516.65 670.3 514.55 670.1 511.15 674.7 510.95 682.4 510.95 682.9 510.25 683.1 509.45 682.8 505.25 680.8 502.75 678.9 500.35 674.9 500.35
M 671.5 503.95
Q 672.7 502.45 674.5 502.45 676.4 502.45 677.4 504.15 678.5 505.95 678.5 508.95
L 670.1 508.95
Q 670.3 505.45 671.5 503.95
M 698.7 503.25
Q 700.6 503.25 701.7 504.45 702.8 505.65 702.8 508.55
L 702.8 515.25
Q 702.8 517.45 702.1 518.25 701.4 519.05 699.8 519.05 699.6 519.75 699.6 520.95 700.1 520.95 700.4 520.95 703 520.85 704.8 520.85 707.7 520.85 709.6 520.95 709.6 519.75 709.4 519.05 708 519.05 707.4 518.25 706.8 517.45 706.8 515.25
L 706.8 507.75
Q 706.8 503.95 705 502.25 703.2 500.55 700.5 500.55 698.4 500.55 696.7 501.45 695 502.45 694.1 503.65 693.8 504.05 693.7 504.35 693.5 504.65 693.4 504.85 693.8 503.65 693.8 502.25 693.8 500.65 692.8 500.35 691.8 500.85 690 501.25 688.3 501.75 686.9 501.75 686.5 502.45 686.5 503.45 687.9 503.45 688.6 503.75 689.3 504.15 689.5 504.75 689.8 505.45 689.8 506.55
L 689.8 515.25
Q 689.8 517.45 689.1 518.25 688.5 519.05 686.7 519.05 686.5 519.75 686.5 520.95 688.4 520.85 691.8 520.85 693.3 520.85 697 520.95 697 519.75 696.8 519.05 695.1 519.05 694.4 518.25 693.8 517.45 693.8 515.25
L 693.8 510.55
Q 693.8 508.05 694.5 506.35 695.2 504.65 696.3 503.95 697.5 503.25 698.7 503.25
M 658.6 489.35
Q 657.8 489.85 655.8 490.35 653.8 490.75 652.7 490.75 652.3 491.45 652.3 492.45 653.7 492.45 654.4 492.75 655.1 493.05 655.4 493.75 655.6 494.45 655.6 495.55
L 655.6 500.95
Q 653.7 500.35 651.9 500.35 648.7 500.35 646.2 501.75 643.7 503.25 642.3 505.85 641 508.35 641 511.45 641 516.45 643.1 518.85 645.2 521.25 649.2 521.25 651.2 521.25 652.9 520.25 654.5 519.15 655.2 517.95 655.8 516.95 656.2 516.15 656.2 516.35 656 517.15 655.9 517.95 655.9 518.75 655.9 520.05 656.1 520.55 656.4 520.95 657 521.25 657.9 520.75 659.4 520.35 660.9 519.95 662 519.85 662.3 519.15 662.3 517.85 660.5 517.85 660 517.15 659.5 516.55 659.5 514.85
L 659.5 491.05
Q 659.5 489.65 658.6 489.35
M 653.8 502.75
Q 654.7 503.15 655.6 503.85
L 655.6 510.05
Q 655.6 514.35 654 516.45 652.4 518.45 650.2 518.45 649.1 518.45 648 517.75 646.9 516.95 646.1 515.25 645.3 513.55 645.3 510.95 645.3 507.65 646.3 505.75 647.3 503.85 648.8 503.05 650.2 502.35 651.7 502.35 652.9 502.35 653.8 502.75
M 654.1 428.15
Q 652.2 425.75 648.2 425.75 645.4 425.75 643.4 427.15 641.3 428.55 640.2 430.95 639.1 433.35 639.1 436.15 639.1 439.15 640.1 441.55 641.2 443.85 643.3 445.25 645.4 446.65 648.4 446.65 650.9 446.65 652.8 445.75 654.7 444.95 656.2 442.95 656.2 442.65 655.8 442.25 655.5 441.85 655.2 441.65 654.1 442.85 652.7 443.55 651.3 444.15 649.8 444.15 646.6 444.15 645.1 442.05 643.6 439.95 643.4 436.55 648 436.35 655.7 436.35 656.2 435.65 656.4 434.85 656.1 430.65 654.1 428.15
M 650.7 429.55
Q 651.8 431.35 651.8 434.35
L 643.4 434.35
Q 643.6 430.85 644.8 429.35 646 427.85 647.8 427.85 649.7 427.85 650.7 429.55
M 666.1 425.75
Q 665.1 426.25 663.3 426.65 661.6 427.15 660.2 427.15 659.8 427.85 659.8 428.85 661.2 428.85 661.9 429.15 662.6 429.55 662.8 430.15 663.1 430.85 663.1 431.95
L 663.1 440.65
Q 663.1 442.85 662.5 443.65 661.8 444.45 660 444.45 659.8 445.15 659.8 446.35 661.6 446.25 665.6 446.25 669.2 446.25 671.2 446.35 671.2 445.15 671 444.45 669.5 444.45 668.6 444.05 667.8 443.65 667.4 442.65 667.1 441.65 667.1 439.75
L 667.1 435.55
Q 667.1 433.95 667.6 432.45 668.2 431.05 669.1 430.15 670 429.35 670.8 429.35 671.8 429.35 672.3 430.05 672.9 430.75 672.9 432.75 674.3 432.75 675.5 432.35 675.5 429.15 675.8 427.15 674.4 426.05 672.7 426.05 669.6 426.05 667.4 429.65 667.1 430.05 666.8 430.85 666.6 431.65 666.5 431.95 666.5 431.75 666.8 430.45 667.1 429.15 667.1 427.65 667.1 426.05 666.1 425.75
M 681 418.85
Q 680.3 419.55 680.3 420.55 680.3 421.55 681 422.25 681.8 422.85 682.9 422.85 683.9 422.85 684.6 422.15 685.3 421.55 685.3 420.55 685.3 419.45 684.7 418.75 684 418.05 682.8 418.05 681.6 418.05 681 418.85
M 693.6 430.15
Q 693.2 428.45 692.2 427.35 690.5 425.75 687.5 425.75 685.8 425.75 683.8 426.25 681.8 426.75 680 427.65 680.3 429.05 680.3 430.95 680.3 432.05 680.3 432.45 680.6 432.65 681.3 432.65 682 432.75 682.5 432.75 682.6 430.95 683.5 429.35 684.4 427.65 686.4 427.65 688.1 427.65 689.1 428.95 689.7 429.75 689.9 430.75 690.1 431.75 690.1 434.45 687.3 434.85 684.9 435.55 682.6 436.15 680.7 437.75 678.8 439.25 678.8 441.85 678.8 444.15 680.3 445.35 681.8 446.55 684.5 446.55 687.4 446.55 689.1 445.05 690.2 444.15 690.7 442.85 690.6 443.35 690.6 444.05 690.6 445.25 690.9 445.85 691.2 446.45 691.7 446.65 692.7 446.15 694 445.75 695.4 445.35 696.5 445.25 696.8 444.55 696.8 443.25 695.6 443.15 695 442.85 694.4 442.55 694.2 441.85 694 441.15 694 439.85
L 694 434.95
Q 694 431.85 693.6 430.15
M 690.1 436.25
L 690.1 437.95
Q 690.1 439.95 689.4 441.45 688.7 442.85 687.8 443.45 686.8 444.15 685.7 444.15 684.6 444.15 683.8 443.35 683.1 442.55 683.1 441.05 683.1 439.25 684.1 438.25 685.1 437.25 686.5 436.95 687.9 436.55 690.1 436.25
M 706.4 419.55
Q 706.2 419.15 705.8 418.95 704.3 420.25 702.5 420.75
L 702.5 426.55 699.8 426.55
Q 699.4 427.45 699.4 428.45 701.2 428.65 702.5 429.05
L 702.5 440.95
Q 702.5 443.95 703.8 445.35 705 446.65 707.7 446.65 709 446.65 710.4 446.05 711.9 445.45 712.6 444.65 712.5 443.85 712 443.25 711.3 443.75 710.6 444.05 709.9 444.25 709.1 444.25 706.5 444.25 706.5 440.05
L 706.5 429.05
Q 708.6 428.65 711.8 428.45 712.2 427.45 712.2 426.55
L 706.5 426.55 706.5 421.25
Q 706.5 419.95 706.4 419.55
M 689.6 418.65
Q 688.9 419.25 688.9 420.35 688.9 421.45 689.6 422.15 690.2 422.85 691.5 422.85 692.7 422.85 693.3 422.15 693.9 421.35 693.9 420.35 693.9 419.35 693.1 418.75 692.4 418.05 691.3 418.05 690.2 418.05 689.6 418.65
M 787.4 490.35
Q 785.4 490.75 784.3 490.75 783.9 491.45 783.9 492.45 785.3 492.45 786 492.75 786.7 493.05 787 493.75 787.2 494.45 787.2 495.55
L 787.2 500.95
Q 785.3 500.35 783.5 500.35 780.3 500.35 777.8 501.75 775.3 503.25 773.9 505.85 772.6 508.35 772.6 511.45 772.6 516.45 774.7 518.85 776.8 521.25 780.8 521.25 782.8 521.25 784.5 520.25 786.1 519.15 786.8 517.95 787.4 516.95 787.8 516.15 787.8 516.35 787.6 517.15 787.5 517.95 787.5 518.75 787.5 520.05 787.7 520.55 788 520.95 788.6 521.25 789.5 520.75 791 520.35 792.5 519.95 793.6 519.85 793.9 519.15 793.9 517.85 792.1 517.85 791.6 517.15 791.1 516.55 791.1 514.85
L 791.1 491.05
Q 791.1 489.65 790.2 489.35 789.4 489.85 787.4 490.35
M 783.3 502.35
Q 784.5 502.35 785.4 502.75 786.3 503.15 787.2 503.85
L 787.2 510.05
Q 787.2 514.35 785.6 516.45 784 518.45 781.8 518.45 780.7 518.45 779.6 517.75 778.5 516.95 777.7 515.25 776.9 513.55 776.9 510.95 776.9 507.65 777.9 505.75 778.9 503.85 780.4 503.05 781.8 502.35 783.3 502.35
M 733.4 491.05
Q 731.3 491.05 730.2 491.05
L 727.1 491.15
Q 724.3 491.15 722.5 490.95 722.5 492.25 722.7 492.85 724.5 492.95 725.1 493.75 725.8 494.45 725.8 496.75
L 725.8 514.75
Q 725.8 516.45 725.5 517.35 725.2 518.25 724.6 518.65 723.9 519.05 722.7 519.05 722.5 519.75 722.5 520.95 725.8 520.85 734.4 520.85 739.8 520.85 742.4 518.45 745 516.05 745 512.15 745 505.15 736.4 504.65 739.3 504.25 741 502.25 742.8 500.35 742.8 497.45 742.8 493.85 740.2 492.45 737.7 491.05 733.4 491.05
M 731.7 492.95
Q 734.4 492.95 736.3 494.35 738.3 495.65 738.3 498.75 738.3 504.35 731.3 504.35
L 729.9 504.35 729.9 493.15
Q 730.7 492.95 731.7 492.95
M 729.9 506.25
L 730.9 506.25
Q 740.3 506.25 740.3 512.75 740.3 515.75 738.7 517.35 737.2 518.95 734 518.95 732.2 518.95 731.4 518.65 730.6 518.35 730.2 517.45 729.9 516.65 729.9 514.75
L 729.9 506.25
M 731 440.45
Q 731 438.85 730.4 437.75 729.8 436.75 728.5 435.85 727.1 434.95 724.7 434.05 722.4 433.15 721.3 432.45 720.2 431.85 719.8 431.35 719.5 430.75 719.5 429.95 719.5 428.85 720.3 428.15 721.1 427.55 722.5 427.55 724.6 427.55 725.9 428.95 727.3 430.45 727.4 432.35 728.8 432.35 729.6 431.85 729.4 430.75 729.4 429.35 729.4 428.55 729.5 427.25 728.1 426.45 726.6 426.05 725.1 425.75 723.2 425.75 721.6 425.75 719.9 426.35 718.2 426.95 717 428.25 715.9 429.45 715.9 431.25 715.9 432.95 716.5 434.05 717.1 435.25 718.5 436.05 719.8 436.85 722.4 437.85 724.4 438.65 725.4 439.25 726.4 439.85 726.8 440.45 727.1 440.95 727.1 441.75 727.1 442.95 726.1 443.75 725.1 444.55 723.4 444.55 721.1 444.55 719.7 443.15 718.3 441.85 718 439.05 716.4 439.05 715.7 439.55 715.8 440.85 715.8 442.05 715.8 443.85 715.7 445.05 717.3 445.85 718.8 446.25 720.4 446.65 722.9 446.65 726.4 446.65 728.7 444.95 731 443.25 731 440.45
M 744.5 430.85
Q 743.3 433.25 743.3 436.15 743.3 439.25 744.5 441.65 745.7 444.05 748 445.35 750.2 446.65 753.2 446.65 756.1 446.65 758.4 445.25 760.6 443.95 761.9 441.55 763.2 439.15 763.2 436.15 763.2 431.45 760.5 428.55 757.8 425.75 753.2 425.75 750.4 425.75 748.1 427.05 745.8 428.45 744.5 430.85
M 747.7 435.25
Q 747.7 431.85 749 429.85 750.3 427.85 752.8 427.85 754.4 427.85 755.8 428.95 757.1 430.05 757.9 432.05 758.8 434.05 758.8 436.75 758.8 440.35 757.4 442.45 756.1 444.55 753.6 444.55 750.8 444.55 749.3 442.05 747.7 439.65 747.7 435.25
M 806.5 428.15
Q 804.6 425.75 800.6 425.75 797.8 425.75 795.8 427.15 793.7 428.55 792.6 430.95 791.5 433.35 791.5 436.15 791.5 439.15 792.5 441.55 793.6 443.85 795.7 445.25 797.8 446.65 800.8 446.65 803.3 446.65 805.2 445.75 807.1 444.95 808.6 442.95 808.6 442.65 808.2 442.25 807.9 441.85 807.6 441.65 806.5 442.85 805.1 443.55 803.7 444.15 802.2 444.15 799 444.15 797.5 442.05 796 439.95 795.8 436.55 800.4 436.35 808.1 436.35 808.6 435.65 808.8 434.85 808.5 430.65 806.5 428.15
M 800.2 427.85
Q 802.1 427.85 803.1 429.55 804.2 431.35 804.2 434.35
L 795.8 434.35
Q 796 430.85 797.2 429.35 798.4 427.85 800.2 427.85
M 784.3 414.75
Q 783.5 415.25 781.5 415.75 779.5 416.15 778.4 416.15 778 416.85 778 417.85 779.4 417.85 780.1 418.15 780.8 418.45 781.1 419.15 781.3 419.85 781.3 420.95
L 781.3 426.35
Q 779.4 425.75 777.6 425.75 774.4 425.75 771.9 427.15 769.4 428.65 768 431.25 766.7 433.75 766.7 436.85 766.7 441.85 768.8 444.25 770.9 446.65 774.9 446.65 776.9 446.65 778.6 445.65 780.2 444.55 780.9 443.35 781.5 442.35 781.9 441.55 781.9 441.75 781.7 442.55 781.6 443.35 781.6 444.15 781.6 445.45 781.8 445.95 782.1 446.35 782.7 446.65 783.6 446.15 785.1 445.75 786.6 445.35 787.7 445.25 788 444.55 788 443.25 786.2 443.25 785.7 442.55 785.2 441.95 785.2 440.25
L 785.2 416.45
Q 785.2 415.05 784.3 414.75
M 777.4 427.75
Q 778.6 427.75 779.5 428.15 780.4 428.55 781.3 429.25
L 781.3 435.45
Q 781.3 439.75 779.7 441.85 778.1 443.85 775.9 443.85 774.8 443.85 773.7 443.15 772.6 442.35 771.8 440.65 771 438.95 771 436.35 771 433.05 772 431.15 773 429.25 774.5 428.45 775.9 427.75 777.4 427.75
M 919.4 507.25
Q 919.4 504.25 919.7 502.25 917.1 500.35 913 500.35 910.2 500.35 908.1 501.75 906 503.25 904.9 505.75 903.9 508.15 903.9 510.85 903.9 514.15 905.2 516.55 906.5 518.85 908.6 520.05 910.7 521.25 913 521.25 917.8 521.25 920.2 517.45 920.1 517.05 919.8 516.65 919.5 516.35 919.1 516.15 918.2 517.45 916.9 518.05 915.7 518.75 914.2 518.75 912.3 518.75 910.9 517.55 909.4 516.35 908.7 514.45 907.9 512.45 907.9 510.15 907.9 506.45 909.2 504.45 910.5 502.35 912.7 502.35 914.6 502.35 915.8 503.75 917.1 505.15 917.3 507.65 918.7 507.65 919.4 507.25
M 956.7 500.35
Q 953.9 500.35 951.9 501.75 949.8 503.15 948.7 505.55 947.6 507.95 947.6 510.75 947.6 513.75 948.6 516.15 949.7 518.45 951.8 519.85 953.9 521.25 956.9 521.25 959.4 521.25 961.3 520.35 963.2 519.55 964.7 517.55 964.7 517.25 964.3 516.85 964 516.45 963.7 516.25 962.6 517.45 961.2 518.15 959.8 518.75 958.3 518.75 955.1 518.75 953.6 516.65 952.1 514.55 951.9 511.15 956.5 510.95 964.2 510.95 964.7 510.25 964.9 509.45 964.6 505.25 962.6 502.75 960.7 500.35 956.7 500.35
M 956.3 502.45
Q 958.2 502.45 959.2 504.15 960.3 505.95 960.3 508.95
L 951.9 508.95
Q 952.1 505.45 953.3 503.95 954.5 502.45 956.3 502.45
M 971.3 504.75
Q 971.6 505.45 971.6 506.55
L 971.6 515.25
Q 971.6 517.45 970.9 518.25 970.3 519.05 968.5 519.05 968.3 519.75 968.3 520.95 970.2 520.85 973.6 520.85 975.1 520.85 978.8 520.95 978.8 519.75 978.6 519.05 976.9 519.05 976.2 518.25 975.6 517.45 975.6 515.25
L 975.6 510.55
Q 975.6 508.05 976.3 506.35 977 504.65 978.1 503.95 979.3 503.25 980.5 503.25 982.4 503.25 983.5 504.45 984.6 505.65 984.6 508.55
L 984.6 515.25
Q 984.6 517.45 983.9 518.25 983.2 519.05 981.6 519.05 981.4 519.75 981.4 520.95 981.9 520.95 982.2 520.95 984.8 520.85 986.6 520.85 989.5 520.85 991.4 520.95 991.4 519.75 991.2 519.05 989.8 519.05 989.2 518.25 988.6 517.45 988.6 515.25
L 988.6 507.75
Q 988.6 503.95 986.8 502.25 985 500.55 982.3 500.55 980.2 500.55 978.5 501.45 976.8 502.45 975.9 503.65 975.6 504.05 975.5 504.35 975.3 504.65 975.2 504.85 975.6 503.65 975.6 502.25 975.6 500.65 974.6 500.35 973.6 500.85 971.8 501.25 970.1 501.75 968.7 501.75 968.3 502.45 968.3 503.45 969.7 503.45 970.4 503.75 971.1 504.15 971.3 504.75
M 813.5 516.25
Q 812.4 517.45 811 518.15 809.6 518.75 808.1 518.75 804.9 518.75 803.4 516.65 801.9 514.55 801.7 511.15 806.3 510.95 814 510.95 814.5 510.25 814.7 509.45 814.4 505.25 812.4 502.75 810.5 500.35 806.5 500.35 803.7 500.35 801.7 501.75 799.6 503.15 798.5 505.55 797.4 507.95 797.4 510.75 797.4 513.75 798.4 516.15 799.5 518.45 801.6 519.85 803.7 521.25 806.7 521.25 809.2 521.25 811.1 520.35 813 519.55 814.5 517.55 814.5 517.25 814.1 516.85 813.8 516.45 813.5 516.25
M 803.1 503.95
Q 804.3 502.45 806.1 502.45 808 502.45 809 504.15 810.1 505.95 810.1 508.95
L 801.7 508.95
Q 801.9 505.45 803.1 503.95
M 836.6 502.25
Q 834.8 500.55 832.1 500.55 830 500.55 828.3 501.45 826.6 502.45 825.7 503.65 825.4 504.05 825.3 504.35 825.1 504.65 825 504.85 825.4 503.65 825.4 502.25 825.4 500.65 824.4 500.35 823.4 500.85 821.6 501.25 819.9 501.75 818.5 501.75 818.1 502.45 818.1 503.45 819.5 503.45 820.2 503.75 820.9 504.15 821.1 504.75 821.4 505.45 821.4 506.55
L 821.4 515.25
Q 821.4 517.45 820.7 518.25 820.1 519.05 818.3 519.05 818.1 519.75 818.1 520.95 820 520.85 823.4 520.85 824.9 520.85 828.6 520.95 828.6 519.75 828.4 519.05 826.7 519.05 826 518.25 825.4 517.45 825.4 515.25
L 825.4 510.55
Q 825.4 508.05 826.1 506.35 826.8 504.65 827.9 503.95 829.1 503.25 830.3 503.25 832.2 503.25 833.3 504.45 834.4 505.65 834.4 508.55
L 834.4 515.25
Q 834.4 517.45 833.7 518.25 833 519.05 831.4 519.05 831.2 519.75 831.2 520.95 831.7 520.95 832 520.95 834.6 520.85 836.4 520.85 839.3 520.85 841.2 520.95 841.2 519.75 841 519.05 839.6 519.05 839 518.25 838.4 517.45 838.4 515.25
L 838.4 507.75
Q 838.4 503.95 836.6 502.25
M 890.9 501.75
Q 890.5 502.45 890.5 503.45 891.9 503.45 892.6 503.75 893.3 504.05 893.6 504.75 893.8 505.45 893.8 506.55
L 893.8 515.25
Q 893.8 517.45 893.2 518.25 892.5 519.05 890.7 519.05 890.5 519.75 890.5 520.95 892.7 520.85 895.6 520.85 898.3 520.85 900.6 520.95 900.6 519.85 900.3 519.05 898.9 519.05 898.3 518.25 897.8 517.45 897.8 515.25
L 897.8 502.05
Q 897.8 500.65 896.8 500.35 896 500.85 894 501.35 892 501.75 890.9 501.75
M 880.8 490.35
Q 878.7 490.75 877.6 490.75 877.2 491.45 877.2 492.45 878.7 492.45 879.4 492.75 880.1 493.05 880.3 493.75 880.5 494.45 880.5 495.55
L 880.5 515.25
Q 880.5 517.45 879.9 518.25 879.3 519.05 877.5 519.05 877.3 519.75 877.3 520.95 879.5 520.85 882.3 520.85 885 520.85 887.3 520.95 887.3 519.85 887.1 519.05 885.6 519.05 885.1 518.25 884.5 517.45 884.5 515.25
L 884.5 491.05
Q 884.5 489.65 883.5 489.35 882.8 489.85 880.8 490.35
M 858.3 489.35
Q 857.6 489.85 855.6 490.35 853.5 490.75 852.4 490.75 852 491.45 852 492.45 853.5 492.45 854.2 492.75 854.9 493.05 855.1 493.75 855.3 494.45 855.3 495.55
L 855.3 512.65
Q 855.3 515.15 855.1 516.35 854.9 517.65 854.4 518.25 855.8 519.65 858 520.45 860.1 521.25 862.9 521.25 866.2 521.25 868.7 519.75 871.2 518.25 872.5 515.65 873.9 513.15 873.9 510.05 873.9 505.15 871.8 502.65 869.6 500.35 865.7 500.35 863.7 500.35 862 501.35 860.4 502.35 859.7 503.55
L 859.1 504.45
Q 859.3 503.35 859.3 502.55
L 859.3 491.05
Q 859.3 489.65 858.3 489.35
M 860.9 505.15
Q 862.4 503.05 864.6 503.05 865.7 503.05 866.9 503.85 868 504.65 868.8 506.35 869.6 508.05 869.6 510.65 869.6 513.85 868.5 515.85 867.5 517.75 866.1 518.45 864.6 519.25 863.2 519.25 861.9 519.25 861 518.85 860.1 518.45 859.3 517.65
L 859.3 511.45
Q 859.3 507.25 860.9 505.15
M 823.2 429.35
Q 824.2 429.35 824.7 430.05 825.3 430.75 825.3 432.75 826.7 432.75 827.9 432.35 827.9 429.15 828.2 427.15 826.8 426.05 825.1 426.05 822 426.05 819.8 429.65 819.5 430.05 819.2 430.85 819 431.65 818.9 431.95 818.9 431.75 819.2 430.45 819.5 429.15 819.5 427.65 819.5 426.05 818.5 425.75 817.5 426.25 815.7 426.65 814 427.15 812.6 427.15 812.2 427.85 812.2 428.85 813.6 428.85 814.3 429.15 815 429.55 815.2 430.15 815.5 430.85 815.5 431.95
L 815.5 440.65
Q 815.5 442.85 814.9 443.65 814.2 444.45 812.4 444.45 812.2 445.15 812.2 446.35 814 446.25 818 446.25 821.6 446.25 823.6 446.35 823.6 445.15 823.4 444.45 821.9 444.45 821 444.05 820.2 443.65 819.8 442.65 819.5 441.65 819.5 439.75
L 819.5 435.55
Q 819.5 433.95 820 432.45 820.6 431.05 821.5 430.15 822.4 429.35 823.2 429.35
M 866 430.15
Q 866.2 430.75 866.2 431.95
L 866.2 438.65
Q 866.2 442.85 867.8 444.65 869.4 446.45 872.5 446.45 874.3 446.45 875.5 445.95 876.8 445.35 878 444.15 879 443.15 879.4 442.25 879.3 443.15 879.3 444.15 879.3 445.45 879.5 445.95 879.8 446.35 880.4 446.65 881.3 446.15 882.8 445.75 884.3 445.35 885.4 445.25 885.7 444.55 885.7 443.25 883.9 443.25 883.4 442.55 882.9 441.95 882.9 440.25
L 882.9 427.65
Q 882.9 426.05 882 425.75 880.9 426.15 879.3 426.55 877.6 426.85 876 426.95 875.7 427.35 875.7 427.65 875.7 427.95 875.7 428.65 877.1 428.65 877.8 428.95 878.5 429.35 878.7 429.95 879 430.55 879 431.75
L 879 436.25
Q 879 439.95 877.5 441.85 876.1 443.75 873.8 443.75 871.8 443.75 871 442.25 870.2 440.75 870.2 437.65
L 870.2 427.65
Q 870.2 426.05 869.2 425.75 868.2 426.25 866.6 426.65 865 427.15 863.6 427.15 863.3 427.85 863.3 428.85 864.6 428.85 865.2 429.15 865.9 429.55 866 430.15
M 851.3 416.15
Q 850.9 416.85 850.9 417.85 852.3 417.85 853 418.15 853.7 418.45 854 419.15 854.2 419.85 854.2 420.95
L 854.2 426.35
Q 852.3 425.75 850.5 425.75 847.3 425.75 844.8 427.15 842.3 428.65 840.9 431.25 839.6 433.75 839.6 436.85 839.6 441.85 841.7 444.25 843.8 446.65 847.8 446.65 849.8 446.65 851.5 445.65 853.1 444.55 853.8 443.35 854.4 442.35 854.8 441.55 854.8 441.75 854.6 442.55 854.5 443.35 854.5 444.15 854.5 445.45 854.7 445.95 855 446.35 855.6 446.65 856.5 446.15 858 445.75 859.5 445.35 860.6 445.25 860.9 444.55 860.9 443.25 859.1 443.25 858.6 442.55 858.1 441.95 858.1 440.25
L 858.1 416.45
Q 858.1 415.05 857.2 414.75 856.4 415.25 854.4 415.75 852.4 416.15 851.3 416.15
M 852.4 428.15
Q 853.3 428.55 854.2 429.25
L 854.2 435.45
Q 854.2 439.75 852.6 441.85 851 443.85 848.8 443.85 847.7 443.85 846.6 443.15 845.5 442.35 844.7 440.65 843.9 438.95 843.9 436.35 843.9 433.05 844.9 431.15 845.9 429.25 847.4 428.45 848.8 427.75 850.3 427.75 851.5 427.75 852.4 428.15
M 923.7 490.75
Q 923.3 491.45 923.3 492.45 924.8 492.45 925.5 492.75 926.2 493.05 926.4 493.75 926.6 494.45 926.6 495.55
L 926.6 515.25
Q 926.6 517.45 926 518.25 925.4 519.05 923.6 519.05 923.4 519.75 923.4 520.95 925.6 520.85 928.4 520.85 931.1 520.85 933.4 520.95 933.4 519.85 933.2 519.05 931.7 519.05 931.2 518.25 930.6 517.45 930.6 515.25
L 930.6 510.95
Q 932.8 513.25 935.3 516.25 937.7 519.15 939.1 521.25 941.6 520.85 944.7 520.85 944.9 520.25 944.9 518.95 943.4 518.85 942.5 518.25 941.7 517.75 940.3 516.15 936.6 511.65 934 508.95
L 938.2 505.15
Q 939.8 503.65 941 503.15 942.2 502.55 943.5 502.45 943.8 501.75 943.8 500.65 942.3 500.65 939.7 500.65 937 500.65 935.1 500.65 935.1 501.55 935.4 502.45 936.7 502.45 936.7 503.15 936.7 504.15 933.9 506.65
L 930.6 509.55 930.6 491.05
Q 930.6 489.65 929.6 489.35 928.9 489.85 926.9 490.35 924.8 490.75 923.7 490.75
M 895.4 490.05
Q 894.4 490.05 893.6 490.85 892.8 491.65 892.8 492.75 892.8 493.85 893.6 494.55 894.3 495.35 895.4 495.35 896.5 495.35 897.3 494.55 898.1 493.75 898.1 492.75 898.1 491.55 897.3 490.85 896.6 490.05 895.4 490.05
M 907.6 436.25
Q 907.6 439.55 908.9 441.95 910.2 444.25 912.3 445.45 914.4 446.65 916.7 446.65 921.5 446.65 923.9 442.85 923.8 442.45 923.5 442.05 923.2 441.75 922.8 441.55 921.9 442.85 920.6 443.45 919.4 444.15 917.9 444.15 916 444.15 914.6 442.95 913.1 441.75 912.4 439.85 911.6 437.85 911.6 435.55 911.6 431.85 912.9 429.85 914.2 427.75 916.4 427.75 918.3 427.75 919.5 429.15 920.8 430.55 921 433.05 922.4 433.05 923.1 432.65 923.1 429.65 923.4 427.65 920.8 425.75 916.7 425.75 913.9 425.75 911.8 427.15 909.7 428.65 908.6 431.15 907.6 433.55 907.6 436.25
M 901.5 430.05
Q 902.1 430.75 902.1 432.75 903.5 432.75 904.7 432.35 904.7 429.15 905 427.15 903.6 426.05 901.9 426.05 898.8 426.05 896.6 429.65 896.3 430.05 896 430.85 895.8 431.65 895.7 431.95 895.7 431.75 896 430.45 896.3 429.15 896.3 427.65 896.3 426.05 895.3 425.75 894.3 426.25 892.5 426.65 890.8 427.15 889.4 427.15 889 427.85 889 428.85 890.4 428.85 891.1 429.15 891.8 429.55 892 430.15 892.3 430.85 892.3 431.95
L 892.3 440.65
Q 892.3 442.85 891.7 443.65 891 444.45 889.2 444.45 889 445.15 889 446.35 890.8 446.25 894.8 446.25 898.4 446.25 900.4 446.35 900.4 445.15 900.2 444.45 898.7 444.45 897.8 444.05 897 443.65 896.6 442.65 896.3 441.65 896.3 439.75
L 896.3 435.55
Q 896.3 433.95 896.8 432.45 897.4 431.05 898.3 430.15 899.2 429.35 900 429.35 901 429.35 901.5 430.05
M 934.3 416.45
Q 934.3 415.05 933.3 414.75 932.6 415.25 930.6 415.75 928.5 416.15 927.4 416.15 927 416.85 927 417.85 928.5 417.85 929.2 418.15 929.9 418.45 930.1 419.15 930.3 419.85 930.3 420.95
L 930.3 440.65
Q 930.3 442.85 929.7 443.65 929 444.45 927.3 444.45 927.1 445.15 927.1 446.35 929 446.25 932.3 446.25 933.9 446.25 937.6 446.35 937.6 445.15 937.3 444.45 935.6 444.45 935 443.65 934.3 442.85 934.3 440.65
L 934.3 435.95
Q 934.3 433.45 935 431.75 935.7 430.05 936.9 429.35 938 428.65 939.3 428.65 941.2 428.65 942.3 429.85 943.4 431.05 943.4 433.95
L 943.4 440.65
Q 943.4 442.85 942.7 443.65 942 444.45 940.3 444.45 940.1 445.15 940.1 446.35 940.7 446.35 941 446.35 943.5 446.25 945.4 446.25 948.3 446.25 950.1 446.35 950.1 445.15 949.9 444.45 948.6 444.45 947.9 443.65 947.3 442.85 947.3 440.65
L 947.3 433.15
Q 947.3 429.35 945.6 427.65 943.8 425.95 941 425.95 938.9 425.95 937.2 426.85 935.5 427.85 934.7 429.05 934.4 429.45 934.2 429.75 934.1 430.05 934 430.25 934.3 429.05 934.3 427.65
L 934.3 416.45
M 966.6 416.55
Q 963.7 416.55 961.6 416.35 961.6 417.55 961.8 418.25 962.7 418.35 963.1 418.65 963.5 418.95 964 419.85 964.5 420.85 965.3 423.35 968.8 433.85 972.7 446.65 973.9 446.65 974.6 446.35
L 982.3 423.25
Q 986.5 434.15 990.9 446.65 992 446.65 992.7 446.35
L 999.5 424.65
Q 1000.3 422.15 1000.8 420.85 1001.4 419.55 1001.9 419.05 1002.4 418.45 1003.2 418.25 1003.5 417.35 1003.5 416.35 1001.8 416.55 999.3 416.55 996.9 416.55 995.1 416.35 995.1 417.45 995.4 418.25 996.9 418.45 997.5 419.05 998.2 419.75 998.2 420.95 998.2 422.15 997.5 424.55
L 992.8 439.25
Q 988.4 426.45 984.4 416.15 983.1 416.15 982.5 416.35
L 974.8 439.25
Q 972.9 432.95 969.6 422.75 968.9 420.65 968.9 419.75 968.9 418.95 969.5 418.65 970.1 418.35 971.7 418.25 971.9 417.35 971.9 416.35 969.5 416.55 966.6 416.55 Z"/>
</g>

<path id="Layer0_0_1_STROKES" stroke="#FFFFFF" stroke-width="3" stroke-linejoin="round" stroke-linecap="round" fill="none" d="
M 868.4 76.25
L 886 68.1 875.9 52.4
M 762.1 76.25
L 744.5 67.05 754.6 49.45
M 803 233.5
L 803 202.95 803 168.55
Q 790.5 146.05 779.9 168.55
L 779.9 243.35 779.9 260.75
M 785.9 321.5
Q 735.6 262.35 779.9 243.35
M 848.15 244.45
L 848.45 227.5
Q 847.1 194.75 827.45 210.4
L 827.45 237.9
M 855.9 323.6
Q 875.95 284.5 868.6 227.5 859.35 212.05 848.45 227.5
M 827.45 210.4
Q 817.8 189.4 803 202.95
M 868.4 61.2
Q 816.85 35.05 762.1 61.2
M 620.4 76.25
L 638 68.1 627.9 52.4
M 514.1 76.25
L 496.5 67.05 506.6 49.45
M 620.4 61.2
Q 568.85 35.05 514.1 61.2"/>

<path id="Phone_0_Layer0_0_1_STROKES" stroke="#FFFFFF" stroke-width="13" stroke-linejoin="round" stroke-linecap="round" fill="none" d="
M 197.6 0
L 228.05 0
Q 238.4 0 245.7 7.3 253.05 14.65 253.05 25
L 253.05 462.1
Q 253.05 472.45 245.7 479.75 238.4 487.1 228.05 487.1
L 25 487.1
Q 14.65 487.1 7.3 479.75 0 472.45 0 462.1
L 0 25
Q 0 14.65 7.3 7.3 14.65 0 25 0
L 55.45 0 197.6 0
Q 196.2 7.2 190.7 12.65 183.4 20 173.05 20
L 80 20
Q 69.65 20 62.3 12.65 56.85 7.2 55.45 0
M 78 468.1
L 176.05 468.1"/>
</defs>

<g transform="matrix( 1, 0, 0, 1, 0,0) ">
<use xlink:href="#Layer0_0_FILL"/>

<use xlink:href="#Layer0_0_1_STROKES"/>
</g>

<g transform="matrix( 0.492919921875, 0, 0, 0.492919921875, 508.6,123.2) ">
<g transform="matrix( 1, 0, 0, 1, 0,0) ">
<use xlink:href="#Phone_0_Layer0_0_1_STROKES"/>
</g>
</g>
</svg>
