
<svg xmlns="http://www.w3.org/2000/svg" version="1.1" xmlns:xlink="http://www.w3.org/1999/xlink" preserveAspectRatio="none" x="0px" y="0px" width="1000px" height="650px" viewBox="0 0 1000 650">
<defs>
<g id="Layer0_0_FILL">
<path fill="#FFFFFF" stroke="none" d="
M 499 603.2
Q 500.4 603.2 501.1 602.8 501.1 599.8 501.4 597.8 498.8 595.9 494.7 595.9 491.9 595.9 489.8 597.3 487.7 598.8 486.6 601.3 485.6 603.7 485.6 606.4 485.6 608.95 486.4 611 486.6 611.5 486.85 612 486.85 612.05 486.9 612.1 488.2 614.4 490.3 615.6 492.4 616.8 494.7 616.8 499.5 616.8 501.9 613 501.8 612.6 501.5 612.2 501.4 612.1 501.3 612 501.05 611.85 500.8 611.7 500.7 611.85 500.6 612 499.75 613.05 498.6 613.6 497.4 614.3 495.9 614.3 494 614.3 492.6 613.1 492 612.6 491.5 612 491.15 611.55 490.85 611 490.6 610.55 490.4 610 489.6 608 489.6 605.7 489.6 602 490.9 600 492.2 597.9 494.4 597.9 496.3 597.9 497.5 599.3 498.8 600.7 499 603.2
M 546.6 605
Q 546.3 600.8 544.3 598.3 542.4 595.9 538.4 595.9 535.6 595.9 533.6 597.3 531.5 598.7 530.4 601.1 529.3 603.5 529.3 606.3 529.3 608.85 530.05 611 530.15 611.35 530.3 611.7 530.35 611.85 530.45 612 531.55 614.1 533.5 615.4 535.6 616.8 538.6 616.8 541.1 616.8 543 615.9 544.9 615.1 546.4 613.1 546.4 612.8 546 612.4 545.8 612.15 545.65 612 545.5 611.9 545.4 611.8 545.3 611.9 545.2 612 544.2 613.05 542.9 613.7 541.5 614.3 540 614.3 536.8 614.3 535.3 612.2 535.25 612.1 535.15 612 534.85 611.55 534.6 611 533.75 609.2 533.6 606.7 538.2 606.5 545.9 606.5 546.4 605.8 546.6 605
M 540.9 599.7
Q 542 601.5 542 604.5
L 533.6 604.5
Q 533.8 601 535 599.5 536.2 598 538 598 539.9 598 540.9 599.7
M 570.3 603.3
Q 570.3 599.5 568.5 597.8 566.7 596.1 564 596.1 561.9 596.1 560.2 597 558.5 598 557.6 599.2 557.3 599.6 557.2 599.9 557 600.2 556.9 600.4 557.3 599.2 557.3 597.8 557.3 596.2 556.3 595.9 555.3 596.4 553.5 596.8 551.8 597.3 550.4 597.3 550 598 550 599 551.4 599 552.1 599.3 552.8 599.7 553 600.3 553.3 601 553.3 602.1
L 553.3 610.8
Q 553.3 610.9 553.3 611 553.3 611.55 553.25 612 553.1 613.25 552.6 613.8 552 614.6 550.2 614.6 550 615.3 550 616.5 551.9 616.4 555.3 616.4 556.8 616.4 560.5 616.5 560.5 615.3 560.3 614.6 558.6 614.6 557.9 613.8 557.5 613.25 557.35 612 557.3 611.55 557.3 611 557.3 610.9 557.3 610.8
L 557.3 606.1
Q 557.3 603.6 558 601.9 558.7 600.2 559.8 599.5 561 598.8 562.2 598.8 564.1 598.8 565.2 600 566.3 601.2 566.3 604.1
L 566.3 610.8
Q 566.3 610.9 566.3 611 566.3 611.55 566.25 612 566.1 613.25 565.6 613.8 564.9 614.6 563.3 614.6 563.1 615.3 563.1 616.5 563.6 616.5 563.9 616.5 566.5 616.4 568.3 616.4 571.2 616.4 573.1 616.5 573.1 615.3 572.9 614.6 571.5 614.6 570.9 613.8 570.5 613.25 570.35 612 570.3 611.55 570.3 611 570.3 610.9 570.3 610.8
L 570.3 603.3
M 600.5 600.3
Q 600.1 598.6 599.1 597.5 597.4 595.9 594.4 595.9 592.7 595.9 590.7 596.4 588.7 596.9 586.9 597.8 587.2 599.2 587.2 601.1 587.2 602.2 587.2 602.6 587.5 602.8 588.2 602.8 588.9 602.9 589.4 602.9 589.5 601.1 590.4 599.5 591.3 597.8 593.3 597.8 595 597.8 596 599.1 596.6 599.9 596.8 600.9 597 601.9 597 604.6 594.2 605 591.8 605.7 589.5 606.3 587.6 607.9 586.1 609.1 585.8 611 585.7 611.5 585.7 612 585.7 614.3 587.2 615.5 588.7 616.7 591.4 616.7 594.3 616.7 596 615.2 597.1 614.3 597.6 613 597.5 613.5 597.5 614.2 597.5 615.4 597.8 616 598.1 616.6 598.6 616.8 599.6 616.3 600.9 615.9 602.3 615.5 603.4 615.4 603.7 614.7 603.7 613.4 602.5 613.3 601.9 613 601.3 612.7 601.1 612 601 611.6 600.95 611 600.9 610.55 600.9 610
L 600.9 605.1
Q 600.9 602 600.5 600.3
M 596.3 611.6
Q 596.2 611.8 596.1 612 595.45 613.1 594.7 613.6 593.7 614.3 592.6 614.3 591.5 614.3 590.7 613.5 590.2 612.95 590.05 612 590 611.65 590 611.2 590 611.1 590 611 590.05 609.35 591 608.4 592 607.4 593.4 607.1 594.8 606.7 597 606.4
L 597 608.1
Q 597 609.7 596.55 611 596.45 611.3 596.3 611.6
M 628.2 615.4
Q 628.5 614.7 628.5 613.4 626.7 613.4 626.2 612.7 626 612.45 625.9 612 625.75 611.6 625.75 611 625.7 610.7 625.7 610.4
L 625.7 597.8
Q 625.7 596.2 624.8 595.9 623.7 596.3 622.1 596.7 620.4 597 618.8 597.1 618.5 597.5 618.5 597.8 618.5 598.1 618.5 598.8 619.9 598.8 620.6 599.1 621.3 599.5 621.5 600.1 621.8 600.7 621.8 601.9
L 621.8 606.4
Q 621.8 609.2 620.95 611 620.65 611.55 620.3 612 618.9 613.9 616.6 613.9 614.6 613.9 613.8 612.4 613.7 612.2 613.65 612 613.45 611.55 613.3 611 613 609.7 613 607.8
L 613 597.8
Q 613 596.2 612 595.9 611 596.4 609.4 596.8 607.8 597.3 606.4 597.3 606.1 598 606.1 599 607.4 599 608 599.3 608.7 599.7 608.8 600.3 609 600.9 609 602.1
L 609 608.8
Q 609 610 609.15 611 609.2 611.55 609.3 612 609.7 613.8 610.6 614.8 612.2 616.6 615.3 616.6 617.1 616.6 618.3 616.1 619.6 615.5 620.8 614.3 621.8 613.3 622.2 612.4 622.1 613.3 622.1 614.3 622.1 615.6 622.3 616.1 622.6 616.5 623.2 616.8 624.1 616.3 625.6 615.9 627.1 615.5 628.2 615.4
M 355.8 597.8
Q 355.8 596.2 354.9 595.9 353.8 596.3 352.2 596.7 350.5 597 348.9 597.1 348.6 597.5 348.6 597.8 348.6 598.1 348.6 598.8 350 598.8 350.7 599.1 351.4 599.5 351.6 600.1 351.9 600.7 351.9 601.9
L 351.9 606.4
Q 351.9 609.2 351.05 611 350.75 611.55 350.4 612 349 613.9 346.7 613.9 344.7 613.9 343.9 612.4 343.8 612.2 343.75 612 343.55 611.55 343.4 611 343.1 609.7 343.1 607.8
L 343.1 597.8
Q 343.1 596.2 342.1 595.9 341.1 596.4 339.5 596.8 337.9 597.3 336.5 597.3 336.2 598 336.2 599 337.5 599 338.1 599.3 338.8 599.7 338.9 600.3 339.1 600.9 339.1 602.1
L 339.1 608.8
Q 339.1 610 339.25 611 339.3 611.55 339.4 612 339.8 613.8 340.7 614.8 342.3 616.6 345.4 616.6 347.2 616.6 348.4 616.1 349.7 615.5 350.9 614.3 351.9 613.3 352.3 612.4 352.2 613.3 352.2 614.3 352.2 615.6 352.4 616.1 352.7 616.5 353.3 616.8 354.2 616.3 355.7 615.9 357.2 615.5 358.3 615.4 358.6 614.7 358.6 613.4 356.8 613.4 356.3 612.7 356.1 612.45 356 612 355.85 611.6 355.85 611 355.8 610.7 355.8 610.4
L 355.8 597.8
M 377.9 597.3
Q 376.5 596.2 374.8 596.2 371.7 596.2 369.5 599.8 369.2 600.2 368.9 601 368.7 601.8 368.6 602.1 368.6 601.9 368.9 600.6 369.2 599.3 369.2 597.8 369.2 596.2 368.2 595.9 367.2 596.4 365.4 596.8 363.7 597.3 362.3 597.3 361.9 598 361.9 599 363.3 599 364 599.3 364.7 599.7 364.9 600.3 365.2 601 365.2 602.1
L 365.2 610.8
Q 365.2 610.9 365.2 611 365.2 611.55 365.15 612 365 613.25 364.6 613.8 363.9 614.6 362.1 614.6 361.9 615.3 361.9 616.5 363.7 616.4 367.7 616.4 371.3 616.4 373.3 616.5 373.3 615.3 373.1 614.6 371.6 614.6 370.7 614.2 369.9 613.8 369.5 612.8 369.4 612.45 369.35 612 369.25 611.55 369.25 611 369.2 610.5 369.2 609.9
L 369.2 605.7
Q 369.2 604.1 369.7 602.6 370.3 601.2 371.2 600.3 372.1 599.5 372.9 599.5 373.9 599.5 374.4 600.2 375 600.9 375 602.9 376.4 602.9 377.6 602.5 377.6 599.3 377.9 597.3
M 396 602.8
Q 396 599.8 396.3 597.8 393.7 595.9 389.6 595.9 386.8 595.9 384.7 597.3 382.6 598.8 381.5 601.3 380.5 603.7 380.5 606.4 380.5 608.95 381.3 611 381.5 611.5 381.75 612 381.75 612.05 381.8 612.1 383.1 614.4 385.2 615.6 387.3 616.8 389.6 616.8 394.4 616.8 396.8 613 396.7 612.6 396.4 612.2 396.3 612.1 396.2 612 395.95 611.85 395.7 611.7 395.6 611.85 395.5 612 394.65 613.05 393.5 613.6 392.3 614.3 390.8 614.3 388.9 614.3 387.5 613.1 386.9 612.6 386.4 612 386.05 611.55 385.75 611 385.5 610.55 385.3 610 384.5 608 384.5 605.7 384.5 602 385.8 600 387.1 597.9 389.3 597.9 391.2 597.9 392.4 599.3 393.7 600.7 393.9 603.2 395.3 603.2 396 602.8
M 479.5 597.6
Q 479.5 596.2 478.5 595.9 477.7 596.4 475.7 596.9 475.35 596.95 475 597.05 473.5 597.3 472.6 597.3 472.2 598 472.2 599 473.6 599 474.3 599.3 474.7 599.5 475 599.8 475.2 600 475.3 600.3 475.5 601 475.5 602.1
L 475.5 610.8
Q 475.5 610.9 475.5 611 475.5 611.55 475.45 612 475.35 613.1 475 613.65 474.95 613.75 474.9 613.8 474.2 614.6 472.4 614.6 472.2 615.3 472.2 616.5 473.5 616.45 475 616.45 476.1 616.4 477.3 616.4 480 616.4 482.3 616.5 482.3 615.4 482 614.6 480.6 614.6 480 613.8 479.65 613.25 479.55 612 479.5 611.55 479.5 611 479.5 610.9 479.5 610.8
L 479.5 597.6
M 475.3 586.4
Q 475.15 586.55 475 586.75 474.5 587.45 474.5 588.3 474.5 589.15 475 589.8 475.15 589.95 475.3 590.1 476 590.9 477.1 590.9 478.2 590.9 479 590.1 479.8 589.3 479.8 588.3 479.8 587.1 479 586.4 478.3 585.6 477.1 585.6 476.1 585.6 475.3 586.4
M 461.1 588.3
Q 461.8 588.6 462 589.3 462.2 590 462.2 591.1
L 462.2 610.8
Q 462.2 610.9 462.2 611 462.2 611.55 462.15 612 462 613.25 461.6 613.8 461 614.6 459.2 614.6 459 615.3 459 616.5 461.2 616.4 464 616.4 466.7 616.4 469 616.5 469 615.4 468.8 614.6 467.3 614.6 466.8 613.8 466.4 613.25 466.25 612 466.2 611.55 466.2 611 466.2 610.9 466.2 610.8
L 466.2 586.6
Q 466.2 585.2 465.2 584.9 464.5 585.4 462.5 585.9 460.4 586.3 459.3 586.3 458.9 587 458.9 588 460.4 588 461.1 588.3
M 441.2 584.9
Q 440.5 585.4 438.5 585.9 436.4 586.3 435.3 586.3 434.9 587 434.9 588 436.4 588 437.1 588.3 437.8 588.6 438 589.3 438.2 590 438.2 591.1
L 438.2 610.8
Q 438.2 610.9 438.2 611 438.2 611.55 438.15 612 438 613.25 437.6 613.8 437 614.6 435.2 614.6 435 615.3 435 616.5 437.2 616.4 440 616.4 442.7 616.4 445 616.5 445 615.4 444.8 614.6 443.3 614.6 442.8 613.8 442.4 613.25 442.25 612 442.2 611.55 442.2 611 442.2 610.9 442.2 610.8
L 442.2 606.5
Q 444.1 608.5 446.25 611 446.55 611.4 446.9 611.8 447 611.9 447.1 612 449.35 614.75 450.7 616.8 453.2 616.4 456.3 616.4 456.5 615.8 456.5 614.5 455 614.4 454.1 613.8 453.4 613.35 452.2 612 452.05 611.85 451.9 611.7 451.6 611.35 451.35 611 448 607 445.6 604.5
L 449.8 600.7
Q 451.4 599.2 452.6 598.7 453.8 598.1 455.1 598 455.4 597.3 455.4 596.2 453.9 596.2 451.3 596.2 448.6 596.2 446.7 596.2 446.7 597.1 447 598 448.3 598 448.3 598.7 448.3 599.7 445.5 602.2
L 442.2 605.1 442.2 586.6
Q 442.2 585.2 441.2 584.9
M 422 521.3
Q 419.2 521.3 417.2 522.7 415.1 524.1 414 526.5 412.9 528.9 412.9 531.7 412.9 534.7 413.9 537.1 415 539.4 417.1 540.8 419.2 542.2 422.2 542.2 424.7 542.2 426.6 541.3 428.5 540.5 430 538.5 430 538.2 429.6 537.8 429.3 537.4 429 537.2 427.9 538.4 426.5 539.1 425.1 539.7 423.6 539.7 420.4 539.7 418.9 537.6 417.4 535.5 417.2 532.1 421.8 531.9 429.5 531.9 430 531.2 430.2 530.4 429.9 526.2 427.9 523.7 426 521.3 422 521.3
M 418.6 524.9
Q 419.8 523.4 421.6 523.4 423.5 523.4 424.5 525.1 425.6 526.9 425.6 529.9
L 417.2 529.9
Q 417.4 526.4 418.6 524.9
M 452.1 523.2
Q 450.3 521.5 447.6 521.5 445.5 521.5 443.8 522.4 442.1 523.4 441.2 524.6 440.9 525 440.8 525.3 440.6 525.6 440.5 525.8 440.9 524.6 440.9 523.2 440.9 521.6 439.9 521.3 438.9 521.8 437.1 522.2 435.4 522.7 434 522.7 433.6 523.4 433.6 524.4 435 524.4 435.7 524.7 436.4 525.1 436.6 525.7 436.9 526.4 436.9 527.5
L 436.9 536.2
Q 436.9 538.4 436.2 539.2 435.6 540 433.8 540 433.6 540.7 433.6 541.9 435.5 541.8 438.9 541.8 440.4 541.8 444.1 541.9 444.1 540.7 443.9 540 442.2 540 441.5 539.2 440.9 538.4 440.9 536.2
L 440.9 531.5
Q 440.9 529 441.6 527.3 442.3 525.6 443.4 524.9 444.6 524.2 445.8 524.2 447.7 524.2 448.8 525.4 449.9 526.6 449.9 529.5
L 449.9 536.2
Q 449.9 538.4 449.2 539.2 448.5 540 446.9 540 446.7 540.7 446.7 541.9 447.2 541.9 447.5 541.9 450.1 541.8 451.9 541.8 454.8 541.8 456.7 541.9 456.7 540.7 456.5 540 455.1 540 454.5 539.2 453.9 538.4 453.9 536.2
L 453.9 528.7
Q 453.9 524.9 452.1 523.2
M 400.3 586.3
Q 399.9 587 399.9 588 401.4 588 402.1 588.3 402.8 588.6 403 589.3 403.2 590 403.2 591.1
L 403.2 610.8
Q 403.2 610.9 403.2 611 403.2 611.55 403.15 612 403 613.25 402.6 613.8 401.9 614.6 400.2 614.6 400 615.3 400 616.5 401.9 616.4 405.2 616.4 406.8 616.4 410.5 616.5 410.5 615.3 410.2 614.6 408.5 614.6 407.9 613.8 407.4 613.25 407.3 612 407.2 611.55 407.2 611 407.2 610.9 407.2 610.8
L 407.2 606.1
Q 407.2 603.6 407.9 601.9 408.6 600.2 409.8 599.5 410.9 598.8 412.2 598.8 414.1 598.8 415.2 600 416.3 601.2 416.3 604.1
L 416.3 610.8
Q 416.3 610.9 416.3 611 416.3 611.55 416.25 612 416.1 613.25 415.6 613.8 414.9 614.6 413.2 614.6 413 615.3 413 616.5 413.6 616.5 413.9 616.5 416.4 616.4 418.3 616.4 421.2 616.4 423 616.5 423 615.3 422.8 614.6 421.5 614.6 420.8 613.8 420.4 613.25 420.25 612 420.2 611.55 420.2 611 420.2 610.9 420.2 610.8
L 420.2 603.3
Q 420.2 599.5 418.5 597.8 416.7 596.1 413.9 596.1 411.8 596.1 410.1 597 408.4 598 407.6 599.2 407.3 599.6 407.1 599.9 407 600.2 406.9 600.4 407.2 599.2 407.2 597.8
L 407.2 586.6
Q 407.2 585.2 406.2 584.9 405.5 585.4 403.5 585.9 401.4 586.3 400.3 586.3
M 358.9 511.8
Q 358.1 512.6 358.1 513.7 358.1 514.8 358.9 515.5 359.6 516.3 360.7 516.3 361.8 516.3 362.6 515.5 363.4 514.7 363.4 513.7 363.4 512.5 362.6 511.8 361.9 511 360.7 511 359.7 511 358.9 511.8
M 345.6 514.7
Q 345.8 515.4 345.8 516.5
L 345.8 536.2
Q 345.8 538.4 345.2 539.2 344.6 540 342.8 540 342.6 540.7 342.6 541.9 344.8 541.8 347.6 541.8 350.3 541.8 352.6 541.9 352.6 540.8 352.4 540 350.9 540 350.4 539.2 349.8 538.4 349.8 536.2
L 349.8 512
Q 349.8 510.6 348.8 510.3 348.1 510.8 346.1 511.3 344 511.7 342.9 511.7 342.5 512.4 342.5 513.4 344 513.4 344.7 513.7 345.4 514 345.6 514.7
M 365.9 541.9
Q 365.9 540.8 365.6 540 364.2 540 363.6 539.2 363.1 538.4 363.1 536.2
L 363.1 523
Q 363.1 521.6 362.1 521.3 361.3 521.8 359.3 522.3 357.3 522.7 356.2 522.7 355.8 523.4 355.8 524.4 357.2 524.4 357.9 524.7 358.6 525 358.9 525.7 359.1 526.4 359.1 527.5
L 359.1 536.2
Q 359.1 538.4 358.5 539.2 357.8 540 356 540 355.8 540.7 355.8 541.9 358 541.8 360.9 541.8 363.6 541.8 365.9 541.9
M 382.6 528.6
Q 384 528.6 384.7 528.2 384.7 525.2 385 523.2 382.4 521.3 378.3 521.3 375.5 521.3 373.4 522.7 371.3 524.2 370.2 526.7 369.2 529.1 369.2 531.8 369.2 535.1 370.5 537.5 371.8 539.8 373.9 541 376 542.2 378.3 542.2 383.1 542.2 385.5 538.4 385.4 538 385.1 537.6 384.8 537.3 384.4 537.1 383.5 538.4 382.2 539 381 539.7 379.5 539.7 377.6 539.7 376.2 538.5 374.7 537.3 374 535.4 373.2 533.4 373.2 531.1 373.2 527.4 374.5 525.4 375.8 523.3 378 523.3 379.9 523.3 381.1 524.7 382.4 526.1 382.6 528.6
M 390.8 513.7
Q 391.5 514 391.7 514.7 391.9 515.4 391.9 516.5
L 391.9 536.2
Q 391.9 538.4 391.3 539.2 390.7 540 388.9 540 388.7 540.7 388.7 541.9 390.9 541.8 393.7 541.8 396.4 541.8 398.7 541.9 398.7 540.8 398.5 540 397 540 396.5 539.2 395.9 538.4 395.9 536.2
L 395.9 531.9
Q 398.1 534.2 400.6 537.2 403 540.1 404.4 542.2 406.9 541.8 410 541.8 410.2 541.2 410.2 539.9 408.7 539.8 407.8 539.2 407 538.7 405.6 537.1 401.9 532.6 399.3 529.9
L 403.5 526.1
Q 405.1 524.6 406.3 524.1 407.5 523.5 408.8 523.4 409.1 522.7 409.1 521.6 407.6 521.6 405 521.6 402.3 521.6 400.4 521.6 400.4 522.5 400.7 523.4 402 523.4 402 524.1 402 525.1 399.2 527.6
L 395.9 530.5 395.9 512
Q 395.9 510.6 394.9 510.3 394.2 510.8 392.2 511.3 390.1 511.7 389 511.7 388.6 512.4 388.6 513.4 390.1 513.4 390.8 513.7
M 605.4 531.9
Q 605.9 531.2 606.1 530.4 605.8 526.2 603.8 523.7 601.9 521.3 597.9 521.3 595.1 521.3 593.1 522.7 591 524.1 589.9 526.5 588.8 528.9 588.8 531.7 588.8 534.7 589.8 537.1 590.9 539.4 593 540.8 595.1 542.2 598.1 542.2 600.6 542.2 602.5 541.3 604.4 540.5 605.9 538.5 605.9 538.2 605.5 537.8 605.2 537.4 604.9 537.2 603.8 538.4 602.4 539.1 601 539.7 599.5 539.7 596.3 539.7 594.8 537.6 593.3 535.5 593.1 532.1 597.7 531.9 605.4 531.9
M 597.5 523.4
Q 599.4 523.4 600.4 525.1 601.5 526.9 601.5 529.9
L 593.1 529.9
Q 593.3 526.4 594.5 524.9 595.7 523.4 597.5 523.4
M 581.7 521.3
Q 580.9 521.8 578.9 522.3 576.9 522.7 575.8 522.7 575.4 523.4 575.4 524.4 576.8 524.4 577.5 524.7 578.2 525 578.5 525.7 578.7 526.4 578.7 527.5
L 578.7 536.2
Q 578.7 538.4 578.1 539.2 577.4 540 575.6 540 575.4 540.7 575.4 541.9 577.6 541.8 580.5 541.8 583.2 541.8 585.5 541.9 585.5 540.8 585.2 540 583.8 540 583.2 539.2 582.7 538.4 582.7 536.2
L 582.7 523
Q 582.7 521.6 581.7 521.3
M 582.2 511.8
Q 581.5 511 580.3 511 579.3 511 578.5 511.8 577.7 512.6 577.7 513.7 577.7 514.8 578.5 515.5 579.2 516.3 580.3 516.3 581.4 516.3 582.2 515.5 583 514.7 583 513.7 583 512.5 582.2 511.8
M 615.7 510.3
Q 615 510.8 613 511.3 610.9 511.7 609.8 511.7 609.4 512.4 609.4 513.4 610.9 513.4 611.6 513.7 612.3 514 612.5 514.7 612.7 515.4 612.7 516.5
L 612.7 536.2
Q 612.7 538.4 612.1 539.2 611.4 540 609.7 540 609.5 540.7 609.5 541.9 611.4 541.8 614.7 541.8 616.3 541.8 620 541.9 620 540.7 619.7 540 618 540 617.4 539.2 616.7 538.4 616.7 536.2
L 616.7 531.5
Q 616.7 529 617.4 527.3 618.1 525.6 619.3 524.9 620.4 524.2 621.7 524.2 623.6 524.2 624.7 525.4 625.8 526.6 625.8 529.5
L 625.8 536.2
Q 625.8 538.4 625.1 539.2 624.4 540 622.7 540 622.5 540.7 622.5 541.9 623.1 541.9 623.4 541.9 625.9 541.8 627.8 541.8 630.7 541.8 632.5 541.9 632.5 540.7 632.3 540 631 540 630.3 539.2 629.7 538.4 629.7 536.2
L 629.7 528.7
Q 629.7 524.9 628 523.2 626.2 521.5 623.4 521.5 621.3 521.5 619.6 522.4 617.9 523.4 617.1 524.6 616.8 525 616.6 525.3 616.5 525.6 616.4 525.8 616.7 524.6 616.7 523.2
L 616.7 512
Q 616.7 510.6 615.7 510.3
M 505.4 586.3
Q 505 587 505 588 506.5 588 507.2 588.3 507.9 588.6 508.1 589.3 508.3 590 508.3 591.1
L 508.3 610.8
Q 508.3 610.9 508.3 611 508.3 611.55 508.25 612 508.1 613.25 507.7 613.8 507.1 614.6 505.3 614.6 505.1 615.3 505.1 616.5 507.3 616.4 510.1 616.4 512.8 616.4 515.1 616.5 515.1 615.4 514.9 614.6 513.4 614.6 512.9 613.8 512.5 613.25 512.35 612 512.3 611.55 512.3 611 512.3 610.9 512.3 610.8
L 512.3 606.5
Q 514.2 608.5 516.35 611 516.65 611.4 517 611.8 517.1 611.9 517.2 612 519.45 614.75 520.8 616.8 523.3 616.4 526.4 616.4 526.6 615.8 526.6 614.5 525.1 614.4 524.2 613.8 523.5 613.35 522.3 612 522.15 611.85 522 611.7 521.7 611.35 521.45 611 518.1 607 515.7 604.5
L 519.9 600.7
Q 521.5 599.2 522.7 598.7 523.9 598.1 525.2 598 525.5 597.3 525.5 596.2 524 596.2 521.4 596.2 518.7 596.2 516.8 596.2 516.8 597.1 517.1 598 518.4 598 518.4 598.7 518.4 599.7 515.6 602.2
L 512.3 605.1 512.3 586.6
Q 512.3 585.2 511.3 584.9 510.6 585.4 508.6 585.9 506.5 586.3 505.4 586.3
M 487.4 523.2
Q 487.4 521.6 486.5 521.3 485.4 521.7 483.8 522.1 482.1 522.4 480.5 522.5 480.2 522.9 480.2 523.2 480.2 523.5 480.2 524.2 481.6 524.2 482.3 524.5 483 524.9 483.2 525.5 483.5 526.1 483.5 527.3
L 483.5 531.8
Q 483.5 535.5 482 537.4 480.6 539.3 478.3 539.3 476.3 539.3 475.5 537.8 475.2 537.2 475 536.4 474.7 535.1 474.7 533.2
L 474.7 523.2
Q 474.7 521.6 473.7 521.3 472.7 521.8 471.1 522.2 469.5 522.7 468.1 522.7 467.8 523.4 467.8 524.4 469.1 524.4 469.7 524.7 470.4 525.1 470.5 525.7 470.7 526.3 470.7 527.5
L 470.7 534.2
Q 470.7 538.4 472.3 540.2 473.35 541.35 475 541.8 475.9 542 477 542 478.8 542 480 541.5 481.3 540.9 482.5 539.7 483.5 538.7 483.9 537.8 483.8 538.7 483.8 539.7 483.8 541 484 541.5 484.3 541.9 484.9 542.2 485.8 541.7 487.3 541.3 488.8 540.9 489.9 540.8 490.2 540.1 490.2 538.8 488.4 538.8 487.9 538.1 487.4 537.5 487.4 535.8
L 487.4 523.2
M 503.3 524.9
Q 504.5 524.2 505.7 524.2 507.6 524.2 508.7 525.4 509.8 526.6 509.8 529.5
L 509.8 536.2
Q 509.8 538.4 509.1 539.2 508.4 540 506.8 540 506.6 540.7 506.6 541.9 507.1 541.9 507.4 541.9 510 541.8 511.8 541.8 514.7 541.8 516.6 541.9 516.6 540.7 516.4 540 515 540 514.4 539.2 513.8 538.4 513.8 536.2
L 513.8 528.7
Q 513.8 524.9 512 523.2 510.2 521.5 507.5 521.5 505.4 521.5 503.7 522.4 502 523.4 501.1 524.6 500.8 525 500.7 525.3 500.5 525.6 500.4 525.8 500.8 524.6 500.8 523.2 500.8 521.6 499.8 521.3 498.8 521.8 497 522.2 495.3 522.7 493.9 522.7 493.5 523.4 493.5 524.4 494.9 524.4 495.6 524.7 496.3 525.1 496.5 525.7 496.8 526.4 496.8 527.5
L 496.8 536.2
Q 496.8 538.4 496.1 539.2 495.5 540 493.7 540 493.5 540.7 493.5 541.9 495.4 541.8 498.8 541.8 500.3 541.8 504 541.9 504 540.7 503.8 540 502.1 540 501.4 539.2 500.8 538.4 500.8 536.2
L 500.8 531.5
Q 500.8 529 501.5 527.3 502.2 525.6 503.3 524.9
M 559.1 524
Q 560 523.6 561.6 523.6
L 565.7 523.6
Q 564.1 526 560.4 531.1 556.8 536.3 554 540.1 554 541.2 554.7 541.9 557.9 541.8 562.6 541.8 566 541.8 570.4 541.9 571.5 541.9 571.9 541 571.5 538.9 571.5 535.2 570.4 534.9 569.2 534.9 569 537.1 568.6 538.1 568.2 539.1 567.4 539.5 566.5 539.8 564.9 539.8
L 559.3 539.8
Q 561.6 536.8 565.3 531.7 569 526.6 571.2 523.4 571.2 522.2 570.6 521.5 568 521.6 562.8 521.6 557.4 521.6 554.7 521.5 554.7 524.5 554.4 527.9 555.3 528.2 556.7 528.2 557.2 526.3 557.7 525.3 558.2 524.3 559.1 524
M 534.8 511.3
Q 532.8 511.7 531.7 511.7 531.3 512.4 531.3 513.4 532.7 513.4 533.4 513.7 534.1 514 534.4 514.7 534.6 515.4 534.6 516.5
L 534.6 521.9
Q 532.7 521.3 530.9 521.3 527.7 521.3 525.2 522.7 522.7 524.2 521.3 526.8 520 529.3 520 532.4 520 537.4 522.1 539.8 524.2 542.2 528.2 542.2 530.2 542.2 531.9 541.2 533.5 540.1 534.2 538.9 534.8 537.9 535.2 537.1 535.2 537.3 535 538.1 534.9 538.9 534.9 539.7 534.9 541 535.1 541.5 535.4 541.9 536 542.2 536.9 541.7 538.4 541.3 539.9 540.9 541 540.8 541.3 540.1 541.3 538.8 539.5 538.8 539 538.1 538.5 537.5 538.5 535.8
L 538.5 512
Q 538.5 510.6 537.6 510.3 536.8 510.8 534.8 511.3
M 530.7 523.3
Q 531.9 523.3 532.8 523.7 533.7 524.1 534.6 524.8
L 534.6 531
Q 534.6 535.3 533 537.4 531.4 539.4 529.2 539.4 528.1 539.4 527 538.7 525.9 537.9 525.1 536.2 524.3 534.5 524.3 531.9 524.3 528.6 525.3 526.7 526.3 524.8 527.8 524 529.2 523.3 530.7 523.3
M 209.1 598.7
Q 209.5 598.2 210.2 598.1 210.6 597.2 210.6 596.1 209.1 596.2 206.7 596.2 204.5 596.2 202.8 596.1 202.8 597.1 203.2 598.1 204.4 598.2 205 598.8 205.6 599.3 205.6 600.6 205.6 601.8 205 603.7
L 202.5 611.2
Q 198.7 601.7 196.3 596.1 195.1 596.1 194.5 596.2
L 188.7 611.2
Q 186.3 604.2 184.9 600.7 184.5 599.9 184.5 599.4 184.5 598.8 185.1 598.5 185.6 598.2 186.8 598.1 187 597.5 187 596.1 184.8 596.2 182.2 596.2 180.1 596.2 177.9 596.2 177.9 597.3 178.1 598.1 179.1 598.4 179.6 598.9 180.1 599.4 180.6 600.7 183.6 608 186.7 616.8 187.4 616.8 187.8 616.7 188.2 616.6 188.6 616.4
L 194.4 602
Q 197.5 609.1 200.5 616.8 201.9 616.8 202.6 616.4
L 207 603.6
Q 207.7 601.3 208.2 600.2 208.7 599.2 209.1 598.7
M 230.4 605
Q 230.1 600.8 228.1 598.3 226.2 595.9 222.2 595.9 220.05 595.9 218.4 596.7 217.9 596.95 217.4 597.3 215.3 598.7 214.2 601.1 213.1 603.5 213.1 606.3 213.1 609.3 214.1 611.7 215.2 614 217.3 615.4 219.4 616.8 222.4 616.8 224.9 616.8 226.8 615.9 228.7 615.1 230.2 613.1 230.2 612.8 229.8 612.4 229.6 612.15 229.45 612 229.3 611.9 229.2 611.8 229.1 611.9 229 612 228 613.05 226.7 613.7 225.3 614.3 223.8 614.3 220.6 614.3 219.1 612.2 219.05 612.1 218.95 612 218.65 611.55 218.4 611 217.55 609.2 217.4 606.7 217.9 606.7 218.4 606.65 222.8 606.5 229.7 606.5 230.2 605.8 230.4 605
M 224.7 599.7
Q 225.8 601.5 225.8 604.5
L 217.4 604.5
Q 217.55 601.65 218.4 600.1 218.6 599.75 218.8 599.5 220 598 221.8 598 223.7 598 224.7 599.7
M 250.7 602.9
Q 250.7 601.8 250.2 600.6 249.7 599.3 248.7 598.3 250.9 598.5 252.9 599 252.9 597.3 252.6 596.2
L 245.4 596.2
Q 244.2 595.9 242.6 595.9 238.8 595.9 236.8 597.9 234.7 600 234.7 603.2 234.7 605 235.4 606.4 236.2 607.8 237.5 608.8 236.35 609.9 235.75 611 235.45 611.5 235.3 612 235.1 612.7 235.1 613.4 235.1 614.7 235.6 615.5 236.1 616.3 237.3 616.7 234 618.2 234 621.4 234 624.4 235.9 625.9 237.7 627.4 241.7 627.4 244.7 627.4 247.2 626 249.7 624.7 251.1 622.6 252.6 620.5 252.6 618.5 252.6 616.7 251.8 615.6 251 614.6 249.3 614.1 247.6 613.6 244.6 613.6 241.7 613.6 240.4 613.5 239.1 613.4 238.7 613 238.25 612.65 238.2 612 238.2 611.9 238.2 611.8 238.2 611.4 238.4 611 238.65 610.35 239.3 609.7 240.9 610.3 242.7 610.3 246.5 610.3 248.6 608.2 250.7 606.1 250.7 602.9
M 245.4 599.5
Q 246.6 601.1 246.6 603.6 246.6 605.8 245.6 607 244.7 608.3 243.2 608.3 241.1 608.3 239.9 606.8 238.8 605.3 238.8 602.6 238.8 600.6 239.6 599.2 240.5 597.8 242.2 597.8 244.2 597.8 245.4 599.5
M 246.2 617.5
Q 247.8 617.8 248.4 618.4 248.9 619 248.9 620.2 248.9 621.5 248.2 622.6 247.4 623.7 246 624.4 244.6 625 242.7 625 240.1 625 238.9 623.9 237.8 622.8 237.8 620.5 237.8 619.3 238.1 618.5 238.5 617.8 239.3 617.1 240.6 617.2 241.7 617.2 244.7 617.2 246.2 617.5
M 271.5 598.3
Q 269.6 595.9 265.6 595.9 262.8 595.9 260.8 597.3 258.7 598.7 257.6 601.1 256.5 603.5 256.5 606.3 256.5 608.85 257.25 611 257.35 611.35 257.5 611.7 257.55 611.85 257.65 612 258.75 614.1 260.7 615.4 262.8 616.8 265.8 616.8 268.3 616.8 270.2 615.9 272.1 615.1 273.6 613.1 273.6 612.8 273.2 612.4 273 612.15 272.85 612 272.7 611.9 272.6 611.8 272.5 611.9 272.4 612 271.4 613.05 270.1 613.7 268.7 614.3 267.2 614.3 264 614.3 262.5 612.2 262.45 612.1 262.35 612 262.05 611.55 261.8 611 260.95 609.2 260.8 606.7 265.4 606.5 273.1 606.5 273.6 605.8 273.8 605 273.5 600.8 271.5 598.3
M 265.2 598
Q 267.1 598 268.1 599.7 269.2 601.5 269.2 604.5
L 260.8 604.5
Q 261 601 262.2 599.5 263.4 598 265.2 598
M 297.5 603.3
Q 297.5 599.5 295.7 597.8 293.9 596.1 291.2 596.1 289.1 596.1 287.4 597 285.7 598 284.8 599.2 284.5 599.6 284.4 599.9 284.2 600.2 284.1 600.4 284.5 599.2 284.5 597.8 284.5 596.2 283.5 595.9 282.5 596.4 280.7 596.8 279 597.3 277.6 597.3 277.2 598 277.2 599 278.6 599 279.3 599.3 280 599.7 280.2 600.3 280.5 601 280.5 602.1
L 280.5 610.8
Q 280.5 610.9 280.5 611 280.5 611.55 280.45 612 280.3 613.25 279.8 613.8 279.2 614.6 277.4 614.6 277.2 615.3 277.2 616.5 279.1 616.4 282.5 616.4 284 616.4 287.7 616.5 287.7 615.3 287.5 614.6 285.8 614.6 285.1 613.8 284.7 613.25 284.55 612 284.5 611.55 284.5 611 284.5 610.9 284.5 610.8
L 284.5 606.1
Q 284.5 603.6 285.2 601.9 285.9 600.2 287 599.5 288.2 598.8 289.4 598.8 291.3 598.8 292.4 600 293.5 601.2 293.5 604.1
L 293.5 610.8
Q 293.5 610.9 293.5 611 293.5 611.55 293.45 612 293.3 613.25 292.8 613.8 292.1 614.6 290.5 614.6 290.3 615.3 290.3 616.5 290.8 616.5 291.1 616.5 293.7 616.4 295.5 616.4 298.4 616.4 300.3 616.5 300.3 615.3 300.1 614.6 298.7 614.6 298.1 613.8 297.7 613.25 297.55 612 297.5 611.55 297.5 611 297.5 610.9 297.5 610.8
L 297.5 603.3
M 323.4 595.9
Q 320.2 595.9 317.7 597.3 315.2 598.8 313.8 601.4 312.5 603.9 312.5 607 312.5 609.25 312.95 611 313.05 611.5 313.25 612 313.75 613.4 314.6 614.4 316.7 616.8 320.7 616.8 322.7 616.8 324.4 615.8 326 614.7 326.7 613.5 327.2 612.7 327.55 612 327.65 611.85 327.7 611.7 327.7 611.8 327.65 612 327.6 612.25 327.5 612.7 327.4 613.5 327.4 614.3 327.4 615.6 327.6 616.1 327.9 616.5 328.5 616.8 329.4 616.3 330.9 615.9 332.4 615.5 333.5 615.4 333.8 614.7 333.8 613.4 332 613.4 331.5 612.7 331.3 612.45 331.2 612 331.05 611.6 331.05 611 331 610.7 331 610.4
L 331 586.6
Q 331 585.2 330.1 584.9 329.3 585.4 327.3 585.9 325.3 586.3 324.2 586.3 323.8 587 323.8 588 325.2 588 325.9 588.3 326.6 588.6 326.9 589.3 327.1 590 327.1 591.1
L 327.1 596.5
Q 325.2 595.9 323.4 595.9
M 317.8 601.3
Q 318.8 599.4 320.3 598.6 321.7 597.9 323.2 597.9 324.4 597.9 325.3 598.3 326.2 598.7 327.1 599.4
L 327.1 605.6
Q 327.1 609 326.1 611 325.85 611.55 325.5 612 323.9 614 321.7 614 320.6 614 319.5 613.3 318.85 612.8 318.3 612 317.95 611.55 317.7 611 317.65 610.9 317.6 610.8 316.8 609.1 316.8 606.5 316.8 603.2 317.8 601.3
M 158.1 606.3
Q 158.1 609.3 159.1 611.7 160.2 614 162.3 615.4 164.4 616.8 167.4 616.8 169.9 616.8 171.8 615.9 173.7 615.1 175.2 613.1 175.2 612.8 174.8 612.4 174.5 612 174.2 611.8 173.1 613 171.7 613.7 170.3 614.3 168.8 614.3 165.6 614.3 164.1 612.2 162.6 610.1 162.4 606.7 167 606.5 174.7 606.5 175.2 605.8 175.4 605 175.1 600.8 173.1 598.3 171.2 595.9 167.2 595.9 164.4 595.9 162.4 597.3 160.3 598.7 159.2 601.1 158.1 603.5 158.1 606.3
M 166.8 598
Q 168.7 598 169.7 599.7 170.8 601.5 170.8 604.5
L 162.4 604.5
Q 162.6 601 163.8 599.5 165 598 166.8 598
M 131.6 588.4
Q 133.4 588.5 134 589.3 134.7 590 134.7 592.3
L 134.7 610.3
Q 134.7 612 134.4 612.9 134.1 613.8 133.5 614.2 132.8 614.6 131.6 614.6 131.4 615.3 131.4 616.5 134.7 616.4 143.3 616.4 148.7 616.4 151.3 614 153.9 611.6 153.9 607.7 153.9 600.7 145.3 600.2 148.2 599.8 149.9 597.8 151.7 595.9 151.7 593 151.7 589.4 149.1 588 146.6 586.6 142.3 586.6 140.2 586.6 139.1 586.6
L 136 586.7
Q 133.2 586.7 131.4 586.5 131.4 587.8 131.6 588.4
M 138.8 588.7
Q 139.6 588.5 140.6 588.5 143.3 588.5 145.2 589.9 147.2 591.2 147.2 594.3 147.2 599.9 140.2 599.9
L 138.8 599.9 138.8 588.7
M 149.2 608.3
Q 149.2 611.3 147.6 612.9 146.1 614.5 142.9 614.5 141.1 614.5 140.3 614.2 139.5 613.9 139.1 613 138.8 612.2 138.8 610.3
L 138.8 601.8 139.8 601.8
Q 149.2 601.8 149.2 608.3
M 94.1 526.5
Q 93 528.9 93 531.7 93 534.7 94 537.1 95.1 539.4 97.2 540.8 99.3 542.2 102.3 542.2 104.8 542.2 106.7 541.3 108.6 540.5 110.1 538.5 110.1 538.2 109.7 537.8 109.4 537.4 109.1 537.2 108 538.4 106.6 539.1 105.2 539.7 103.7 539.7 100.5 539.7 99 537.6 97.5 535.5 97.3 532.1 101.9 531.9 109.6 531.9 110.1 531.2 110.3 530.4 110 526.2 108 523.7 106.1 521.3 102.1 521.3 99.3 521.3 97.3 522.7 95.2 524.1 94.1 526.5
M 97.3 529.9
Q 97.5 526.4 98.7 524.9 99.9 523.4 101.7 523.4 103.6 523.4 104.6 525.1 105.7 526.9 105.7 529.9
L 97.3 529.9
M 133.9 528.7
Q 133.9 524.9 132.2 523.2 130.4 521.5 127.6 521.5 125.5 521.5 123.8 522.4 122.1 523.4 121.3 524.6 121 525 120.8 525.3 120.7 525.6 120.6 525.8 120.9 524.6 120.9 523.2
L 120.9 512
Q 120.9 510.6 119.9 510.3 119.2 510.8 117.2 511.3 115.1 511.7 114 511.7 113.6 512.4 113.6 513.4 115.1 513.4 115.8 513.7 116.5 514 116.7 514.7 116.9 515.4 116.9 516.5
L 116.9 536.2
Q 116.9 538.4 116.3 539.2 115.6 540 113.9 540 113.7 540.7 113.7 541.9 115.6 541.8 118.9 541.8 120.5 541.8 124.2 541.9 124.2 540.7 123.9 540 122.2 540 121.6 539.2 120.9 538.4 120.9 536.2
L 120.9 531.5
Q 120.9 529 121.6 527.3 122.3 525.6 123.5 524.9 124.6 524.2 125.9 524.2 127.8 524.2 128.9 525.4 130 526.6 130 529.5
L 130 536.2
Q 130 538.4 129.3 539.2 128.6 540 126.9 540 126.7 540.7 126.7 541.9 127.3 541.9 127.6 541.9 130.1 541.8 132 541.8 134.9 541.8 136.7 541.9 136.7 540.7 136.5 540 135.2 540 134.5 539.2 133.9 538.4 133.9 536.2
L 133.9 528.7
M 141.2 526.5
Q 140.1 528.9 140.1 531.7 140.1 534.7 141.1 537.1 142.2 539.4 144.3 540.8 146.4 542.2 149.4 542.2 151.9 542.2 153.8 541.3 155.7 540.5 157.2 538.5 157.2 538.2 156.8 537.8 156.5 537.4 156.2 537.2 155.1 538.4 153.7 539.1 152.3 539.7 150.8 539.7 147.6 539.7 146.1 537.6 144.6 535.5 144.4 532.1 149 531.9 156.7 531.9 157.2 531.2 157.4 530.4 157.1 526.2 155.1 523.7 153.2 521.3 149.2 521.3 146.4 521.3 144.4 522.7 142.3 524.1 141.2 526.5
M 144.4 529.9
Q 144.6 526.4 145.8 524.9 147 523.4 148.8 523.4 150.7 523.4 151.7 525.1 152.8 526.9 152.8 529.9
L 144.4 529.9
M 80.7 521.3
Q 79.7 521.8 77.9 522.2 76.2 522.7 74.8 522.7 74.4 523.4 74.4 524.4 75.8 524.4 76.5 524.7 77.2 525.1 77.4 525.7 77.7 526.4 77.7 527.5
L 77.7 536.2
Q 77.7 538.4 77.1 539.2 76.4 540 74.6 540 74.4 540.7 74.4 541.9 76.2 541.8 80.2 541.8 83.8 541.8 85.8 541.9 85.8 540.7 85.6 540 84.1 540 83.2 539.6 82.4 539.2 82 538.2 81.7 537.2 81.7 535.3
L 81.7 531.1
Q 81.7 529.5 82.2 528 82.8 526.6 83.7 525.7 84.6 524.9 85.4 524.9 86.4 524.9 86.9 525.6 87.5 526.3 87.5 528.3 88.9 528.3 90.1 527.9 90.1 524.7 90.4 522.7 89 521.6 87.3 521.6 84.2 521.6 82 525.2 81.7 525.6 81.4 526.4 81.2 527.2 81.1 527.5 81.1 527.3 81.4 526 81.7 524.7 81.7 523.2 81.7 521.6 80.7 521.3
M 49.4 512.1
Q 45.2 512.1 43.2 511.9 43.2 513.2 43.4 513.8 45.2 513.9 45.8 514.7 46.5 515.4 46.5 517.7
L 46.5 535.7
Q 46.5 537.4 46.2 538.3 45.9 539.2 45.3 539.6 44.6 540 43.4 540 43.2 540.7 43.2 541.9 46.5 541.8 54.6 541.8 60.7 541.8 66 538.6 71.3 535.5 71.3 526.2 71.3 518 66.5 515 61.8 512 54.6 512 52.8 512 52 512
L 49.4 512.1
M 52.1 513.7
Q 53.1 513.6 53.8 513.6 57.4 513.6 60.3 515 63.2 516.4 65 519.3 66.7 522.3 66.7 526.8 66.7 533.9 63.5 536.9 60.3 539.8 54.6 539.8 52.9 539.8 52 539.5 51.2 539.1 50.9 538.3 50.6 537.4 50.6 535.7
L 50.6 514
Q 51.2 513.9 52.1 513.7
M 277.5 528.6
Q 278.9 528.6 279.6 528.2 279.6 525.2 279.9 523.2 277.3 521.3 273.2 521.3 270.4 521.3 268.3 522.7 266.2 524.2 265.1 526.7 264.1 529.1 264.1 531.8 264.1 535.1 265.4 537.5 266.7 539.8 268.8 541 270.9 542.2 273.2 542.2 278 542.2 280.4 538.4 280.3 538 280 537.6 279.7 537.3 279.3 537.1 278.4 538.4 277.1 539 275.9 539.7 274.4 539.7 272.5 539.7 271.1 538.5 269.6 537.3 268.9 535.4 268.1 533.4 268.1 531.1 268.1 527.4 269.4 525.4 270.7 523.3 272.9 523.3 274.8 523.3 276 524.7 277.3 526.1 277.5 528.6
M 261.2 527.9
Q 261.2 524.7 261.5 522.7 260.1 521.6 258.4 521.6 255.3 521.6 253.1 525.2 252.8 525.6 252.5 526.4 252.3 527.2 252.2 527.5 252.2 527.3 252.5 526 252.8 524.7 252.8 523.2 252.8 521.6 251.8 521.3 250.8 521.8 249 522.2 247.3 522.7 245.9 522.7 245.5 523.4 245.5 524.4 246.9 524.4 247.6 524.7 248.3 525.1 248.5 525.7 248.8 526.4 248.8 527.5
L 248.8 536.2
Q 248.8 538.4 248.2 539.2 247.5 540 245.7 540 245.5 540.7 245.5 541.9 247.3 541.8 251.3 541.8 254.9 541.8 256.9 541.9 256.9 540.7 256.7 540 255.2 540 254.3 539.6 253.5 539.2 253.1 538.2 252.8 537.2 252.8 535.3
L 252.8 531.1
Q 252.8 529.5 253.3 528 253.9 526.6 254.8 525.7 255.7 524.9 256.5 524.9 257.5 524.9 258 525.6 258.6 526.3 258.6 528.3 260 528.3 261.2 527.9
M 290.8 512
Q 290.8 510.6 289.8 510.3 289.1 510.8 287.1 511.3 285 511.7 283.9 511.7 283.5 512.4 283.5 513.4 285 513.4 285.7 513.7 286.4 514 286.6 514.7 286.8 515.4 286.8 516.5
L 286.8 536.2
Q 286.8 538.4 286.2 539.2 285.5 540 283.8 540 283.6 540.7 283.6 541.9 285.5 541.8 288.8 541.8 290.4 541.8 294.1 541.9 294.1 540.7 293.8 540 292.1 540 291.5 539.2 290.8 538.4 290.8 536.2
L 290.8 531.5
Q 290.8 529 291.5 527.3 292.2 525.6 293.4 524.9 294.5 524.2 295.8 524.2 297.7 524.2 298.8 525.4 299.9 526.6 299.9 529.5
L 299.9 536.2
Q 299.9 538.4 299.2 539.2 298.5 540 296.8 540 296.6 540.7 296.6 541.9 297.2 541.9 297.5 541.9 300 541.8 301.9 541.8 304.8 541.8 306.6 541.9 306.6 540.7 306.4 540 305.1 540 304.4 539.2 303.8 538.4 303.8 536.2
L 303.8 528.7
Q 303.8 524.9 302.1 523.2 300.3 521.5 297.5 521.5 295.4 521.5 293.7 522.4 292 523.4 291.2 524.6 290.9 525 290.7 525.3 290.6 525.6 290.5 525.8 290.8 524.6 290.8 523.2
L 290.8 512
M 318.9 511.7
Q 318.5 512.4 318.5 513.4 320 513.4 320.7 513.7 321.4 514 321.6 514.7 321.8 515.4 321.8 516.5
L 321.8 536.2
Q 321.8 538.4 321.2 539.2 320.6 540 318.8 540 318.6 540.7 318.6 541.9 320.8 541.8 323.6 541.8 326.3 541.8 328.6 541.9 328.6 540.8 328.4 540 326.9 540 326.4 539.2 325.8 538.4 325.8 536.2
L 325.8 531.9
Q 328 534.2 330.5 537.2 332.9 540.1 334.3 542.2 336.8 541.8 339.9 541.8 340.1 541.2 340.1 539.9 338.6 539.8 337.7 539.2 336.9 538.7 335.5 537.1 331.8 532.6 329.2 529.9
L 333.4 526.1
Q 335 524.6 336.2 524.1 337.4 523.5 338.7 523.4 339 522.7 339 521.6 337.5 521.6 334.9 521.6 332.2 521.6 330.3 521.6 330.3 522.5 330.6 523.4 331.9 523.4 331.9 524.1 331.9 525.1 329.1 527.6
L 325.8 530.5 325.8 512
Q 325.8 510.6 324.8 510.3 324.1 510.8 322.1 511.3 320 511.7 318.9 511.7
M 181.1 528.7
Q 181.1 524.9 179.3 523.2 177.5 521.5 174.8 521.5 172.7 521.5 171 522.4 169.3 523.4 168.4 524.6 168.1 525 168 525.3 167.8 525.6 167.7 525.8 168.1 524.6 168.1 523.2 168.1 521.6 167.1 521.3 166.1 521.8 164.3 522.2 162.6 522.7 161.2 522.7 160.8 523.4 160.8 524.4 162.2 524.4 162.9 524.7 163.6 525.1 163.8 525.7 164.1 526.4 164.1 527.5
L 164.1 536.2
Q 164.1 538.4 163.4 539.2 162.8 540 161 540 160.8 540.7 160.8 541.9 162.7 541.8 166.1 541.8 167.6 541.8 171.3 541.9 171.3 540.7 171.1 540 169.4 540 168.7 539.2 168.1 538.4 168.1 536.2
L 168.1 531.5
Q 168.1 529 168.8 527.3 169.5 525.6 170.6 524.9 171.8 524.2 173 524.2 174.9 524.2 176 525.4 177.1 526.6 177.1 529.5
L 177.1 536.2
Q 177.1 538.4 176.4 539.2 175.7 540 174.1 540 173.9 540.7 173.9 541.9 174.4 541.9 174.7 541.9 177.3 541.8 179.1 541.8 182 541.8 183.9 541.9 183.9 540.7 183.7 540 182.3 540 181.7 539.2 181.1 538.4 181.1 536.2
L 181.1 528.7
M 222.5 525.7
Q 222.7 526.3 222.7 527.5
L 222.7 534.2
Q 222.7 538.4 224.3 540.2 225.9 542 229 542 230.8 542 232 541.5 233.3 540.9 234.5 539.7 235.5 538.7 235.9 537.8 235.8 538.7 235.8 539.7 235.8 541 236 541.5 236.3 541.9 236.9 542.2 237.8 541.7 239.3 541.3 240.8 540.9 241.9 540.8 242.2 540.1 242.2 538.8 240.4 538.8 239.9 538.1 239.4 537.5 239.4 535.8
L 239.4 523.2
Q 239.4 521.6 238.5 521.3 237.4 521.7 235.8 522.1 234.1 522.4 232.5 522.5 232.2 522.9 232.2 523.2 232.2 523.5 232.2 524.2 233.6 524.2 234.3 524.5 235 524.9 235.2 525.5 235.5 526.1 235.5 527.3
L 235.5 531.8
Q 235.5 535.5 234 537.4 232.6 539.3 230.3 539.3 228.3 539.3 227.5 537.8 226.7 536.3 226.7 533.2
L 226.7 523.2
Q 226.7 521.6 225.7 521.3 224.7 521.8 223.1 522.2 221.5 522.7 220.1 522.7 219.8 523.4 219.8 524.4 221.1 524.4 221.7 524.7 222.4 525.1 222.5 525.7
M 207.4 513.1
Q 208.8 513.1 209.5 513.4 210.2 513.7 210.5 514.4 210.7 515.1 210.7 516.2
L 210.7 521.6
Q 208.8 521 207 521 203.8 521 201.3 522.4 198.8 523.9 197.4 526.5 196.1 529 196.1 532.1 196.1 537.1 198.2 539.5 200.3 541.9 204.3 541.9 206.3 541.9 208 540.9 209.6 539.8 210.3 538.6 210.9 537.6 211.3 536.8 211.3 537 211.1 537.8 211 538.6 211 539.4 211 540.7 211.2 541.2 211.5 541.6 212.1 541.9 213 541.4 214.5 541 216 540.6 217.1 540.5 217.4 539.8 217.4 538.5 215.6 538.5 215.1 537.8 214.6 537.2 214.6 535.5
L 214.6 511.7
Q 214.6 510.3 213.7 510 212.9 510.5 210.9 511 208.9 511.4 207.8 511.4 207.4 512.1 207.4 513.1
M 208.9 523.4
Q 209.8 523.8 210.7 524.5
L 210.7 530.7
Q 210.7 535 209.1 537.1 207.5 539.1 205.3 539.1 204.2 539.1 203.1 538.4 202 537.6 201.2 535.9 200.4 534.2 200.4 531.6 200.4 528.3 201.4 526.4 202.4 524.5 203.9 523.7 205.3 523 206.8 523 208 523 208.9 523.4
M 498.95 161.75
Q 499.05 161.75 499.1 161.75
L 499.1 101.15 470.05 101.15
Q 456.9 101.15 446.2 107 439.9 110.4 434.45 115.85 419.75 130.6 419.75 151.45
L 419.75 171.2
Q 419.75 179.8 419.75 188.1
L 481.65 188.1 481.65 179.05
Q 481.65 171.9 486.75 166.8 491.8 161.75 498.95 161.75
M 829.5 605
Q 829.2 600.8 827.2 598.3 825.3 595.9 821.3 595.9 818.5 595.9 816.5 597.3 814.4 598.7 813.3 601.1 812.2 603.5 812.2 606.3 812.2 609.3 813.2 611.7 813.25 611.85 813.35 612 814.45 614.1 816.4 615.4 818.5 616.8 821.5 616.8 824 616.8 825.9 615.9 827.8 615.1 829.3 613.1 829.3 612.8 828.9 612.4 828.7 612.15 828.55 612 828.4 611.9 828.3 611.8 828.2 611.9 828.1 612 827.1 613.05 825.8 613.7 824.4 614.3 822.9 614.3 819.7 614.3 818.2 612.2 818.15 612.1 818.05 612 816.7 609.95 816.5 606.7 821.1 606.5 828.8 606.5 829.3 605.8 829.5 605
M 823.8 599.7
Q 824.9 601.5 824.9 604.5
L 816.5 604.5
Q 816.7 601 817.9 599.5 819.1 598 820.9 598 822.8 598 823.8 599.7
M 860.6 611.9
Q 860.55 611.95 860.5 612 859.7 612.85 859.7 614 859.7 615.3 860.5 616.1 861.3 616.8 862.7 616.8 864.1 616.8 864.9 616.1 865.8 615.3 865.8 613.8 865.8 612.75 865.1 612 865.05 611.95 865 611.9 864.2 611 862.9 611 861.5 611 860.6 611.9
M 853.2 603.3
Q 853.2 599.5 851.4 597.8 849.6 596.1 846.9 596.1 844.8 596.1 843.1 597 841.4 598 840.5 599.2 840.2 599.6 840.1 599.9 839.9 600.2 839.8 600.4 840.2 599.2 840.2 597.8 840.2 596.2 839.2 595.9 838.2 596.4 836.4 596.8 834.7 597.3 833.3 597.3 832.9 598 832.9 599 834.3 599 835 599.3 835.7 599.7 835.9 600.3 836.2 601 836.2 602.1
L 836.2 610.8
Q 836.2 611.45 836.15 612 836 613.25 835.5 613.8 834.9 614.6 833.1 614.6 832.9 615.3 832.9 616.5 834.8 616.4 838.2 616.4 839.7 616.4 843.4 616.5 843.4 615.3 843.2 614.6 841.5 614.6 840.8 613.8 840.4 613.25 840.25 612 840.2 611.45 840.2 610.8
L 840.2 606.1
Q 840.2 603.6 840.9 601.9 841.6 600.2 842.7 599.5 843.9 598.8 845.1 598.8 847 598.8 848.1 600 849.2 601.2 849.2 604.1
L 849.2 610.8
Q 849.2 611.45 849.15 612 849 613.25 848.5 613.8 847.8 614.6 846.2 614.6 846 615.3 846 616.5 846.5 616.5 846.8 616.5 849.4 616.4 851.2 616.4 854.1 616.4 856 616.5 856 615.3 855.8 614.6 854.4 614.6 853.8 613.8 853.4 613.25 853.25 612 853.2 611.45 853.2 610.8
L 853.2 603.3
M 695.6 598.3
Q 693.7 595.9 689.7 595.9 686.9 595.9 684.9 597.3 682.8 598.7 681.7 601.1 680.6 603.5 680.6 606.3 680.6 608.85 681.35 611 681.45 611.35 681.6 611.7 681.65 611.85 681.75 612 682.85 614.1 684.8 615.4 686.9 616.8 689.9 616.8 692.4 616.8 694.3 615.9 696.2 615.1 697.7 613.1 697.7 612.8 697.3 612.4 697.1 612.15 696.95 612 696.8 611.9 696.7 611.8 696.6 611.9 696.5 612 695.5 613.05 694.2 613.7 692.8 614.3 691.3 614.3 688.1 614.3 686.6 612.2 686.55 612.1 686.45 612 686.15 611.55 685.9 611 685.05 609.2 684.9 606.7 689.5 606.5 697.2 606.5 697.7 605.8 697.9 605 697.6 600.8 695.6 598.3
M 689.3 598
Q 691.2 598 692.2 599.7 693.3 601.5 693.3 604.5
L 684.9 604.5
Q 685.1 601 686.3 599.5 687.5 598 689.3 598
M 721.6 603.3
Q 721.6 599.5 719.8 597.8 718 596.1 715.3 596.1 713.2 596.1 711.5 597 709.8 598 708.9 599.2 708.6 599.6 708.5 599.9 708.3 600.2 708.2 600.4 708.6 599.2 708.6 597.8 708.6 596.2 707.6 595.9 706.6 596.4 704.8 596.8 703.1 597.3 701.7 597.3 701.3 598 701.3 599 702.7 599 703.4 599.3 704.1 599.7 704.3 600.3 704.6 601 704.6 602.1
L 704.6 610.8
Q 704.6 610.9 704.6 611 704.6 611.55 704.55 612 704.4 613.25 703.9 613.8 703.3 614.6 701.5 614.6 701.3 615.3 701.3 616.5 703.2 616.4 706.6 616.4 708.1 616.4 711.8 616.5 711.8 615.3 711.6 614.6 709.9 614.6 709.2 613.8 708.8 613.25 708.65 612 708.6 611.55 708.6 611 708.6 610.9 708.6 610.8
L 708.6 606.1
Q 708.6 603.6 709.3 601.9 710 600.2 711.1 599.5 712.3 598.8 713.5 598.8 715.4 598.8 716.5 600 717.6 601.2 717.6 604.1
L 717.6 610.8
Q 717.6 610.9 717.6 611 717.6 611.55 717.55 612 717.4 613.25 716.9 613.8 716.2 614.6 714.6 614.6 714.4 615.3 714.4 616.5 714.9 616.5 715.2 616.5 717.8 616.4 719.6 616.4 722.5 616.4 724.4 616.5 724.4 615.3 724.2 614.6 722.8 614.6 722.2 613.8 721.8 613.25 721.65 612 721.6 611.55 721.6 611 721.6 610.9 721.6 610.8
L 721.6 603.3
M 783.9 606.3
Q 783.9 601.6 781.2 598.7 778.5 595.9 773.9 595.9 771.1 595.9 768.8 597.2 766.5 598.6 765.2 601 764 603.4 764 606.3 764 608.9 764.85 611 765 611.4 765.2 611.8 765.25 611.9 765.3 612 766.5 614.25 768.7 615.5 770.9 616.8 773.9 616.8 776.8 616.8 779.1 615.4 781.15 614.2 782.45 612 782.5 611.85 782.6 611.7 782.8 611.35 782.95 611 783.9 608.85 783.9 606.3
M 776.5 599.1
Q 777.8 600.2 778.6 602.2 779.5 604.2 779.5 606.9 779.5 609.3 778.9 611 778.7 611.55 778.45 612 778.3 612.3 778.1 612.6 776.8 614.7 774.3 614.7 771.5 614.7 770 612.2 769.95 612.1 769.9 612 769.6 611.55 769.35 611 768.4 608.8 768.4 605.4 768.4 602 769.7 600 771 598 773.5 598 775.1 598 776.5 599.1
M 805.9 586.6
Q 805.9 585.2 805 584.9 804.2 585.4 802.2 585.9 800.2 586.3 799.1 586.3 798.7 587 798.7 588 800.1 588 800.8 588.3 801.5 588.6 801.8 589.3 802 590 802 591.1
L 802 596.5
Q 800.1 595.9 798.3 595.9 795.1 595.9 792.6 597.3 791.35 598.05 790.4 599.05 789.4 600.1 788.7 601.4 787.4 603.9 787.4 607 787.4 609.25 787.85 611 787.95 611.5 788.15 612 788.65 613.4 789.5 614.4 791.6 616.8 795.6 616.8 797.6 616.8 799.3 615.8 800.9 614.7 801.6 613.5 802.1 612.7 802.45 612 802.55 611.85 802.6 611.7 802.6 611.8 802.55 612 802.5 612.25 802.4 612.7 802.3 613.5 802.3 614.3 802.3 615.6 802.5 616.1 802.8 616.5 803.4 616.8 804.3 616.3 805.8 615.9 807.3 615.5 808.4 615.4 808.7 614.7 808.7 613.4 806.9 613.4 806.4 612.7 806.2 612.45 806.1 612 805.9 611.4 805.9 610.4
L 805.9 586.6
M 800.2 598.3
Q 801.1 598.7 802 599.4
L 802 605.6
Q 802 609.9 800.4 612 798.8 614 796.6 614 795.5 614 794.4 613.3 793.75 612.8 793.2 612 792.8 611.45 792.5 610.8 791.7 609.1 791.7 606.5 791.7 603.2 792.7 601.3 793.7 599.4 795.2 598.6 796.6 597.9 798.1 597.9 799.3 597.9 800.2 598.3
M 737.5 588.4
Q 739.3 588.5 739.9 589.3 740.6 590 740.6 592.3
L 740.6 610.3
Q 740.6 610.65 740.6 611 740.55 611.55 740.5 612 740.45 612.5 740.3 612.9 740 613.8 739.4 614.2 738.7 614.6 737.5 614.6 737.3 615.3 737.3 616.5 740.6 616.4 749.2 616.4 754.6 616.4 757.2 614 758.15 613.1 758.8 612 759.05 611.5 759.25 611 759.8 609.5 759.8 607.7 759.8 600.7 751.2 600.2 754.1 599.8 755.8 597.8 757.6 595.9 757.6 593 757.6 589.4 755 588 752.5 586.6 748.2 586.6 746.1 586.6 745 586.6
L 741.9 586.7
Q 739.1 586.7 737.3 586.5 737.3 587.8 737.5 588.4
M 744.7 588.7
Q 745.5 588.5 746.5 588.5 749.2 588.5 751.1 589.9 753.1 591.2 753.1 594.3 753.1 599.9 746.1 599.9
L 744.7 599.9 744.7 588.7
M 755.1 608.3
Q 755.1 609.85 754.7 611 754.5 611.55 754.2 612 753.9 612.5 753.5 612.9 752 614.5 748.8 614.5 747 614.5 746.2 614.2 745.4 613.9 745 613 744.85 612.6 744.8 612 744.7 611.55 744.7 611 744.7 610.65 744.7 610.3
L 744.7 601.8 745.7 601.8
Q 755.1 601.8 755.1 608.3
M 736.9 521.3
Q 736.1 521.8 734.1 522.3 732.1 522.7 731 522.7 730.6 523.4 730.6 524.4 732 524.4 732.7 524.7 733.4 525 733.7 525.7 733.9 526.4 733.9 527.5
L 733.9 536.2
Q 733.9 538.4 733.3 539.2 732.6 540 730.8 540 730.6 540.7 730.6 541.9 732.8 541.8 735.7 541.8 738.4 541.8 740.7 541.9 740.7 540.8 740.4 540 739 540 738.4 539.2 737.9 538.4 737.9 536.2
L 737.9 523
Q 737.9 521.6 736.9 521.3
M 735.5 516.3
Q 736.6 516.3 737.4 515.5 738.2 514.7 738.2 513.7 738.2 512.5 737.4 511.8 736.7 511 735.5 511 734.5 511 733.7 511.8 732.9 512.6 732.9 513.7 732.9 514.8 733.7 515.5 734.4 516.3 735.5 516.3
M 750.1 515.1
Q 749.9 514.7 749.5 514.5 748 515.8 746.2 516.3
L 746.2 522.1 743.5 522.1
Q 743.1 523 743.1 524 744.9 524.2 746.2 524.6
L 746.2 536.5
Q 746.2 539.5 747.5 540.9 748.7 542.2 751.4 542.2 752.7 542.2 754.1 541.6 755.6 541 756.3 540.2 756.2 539.4 755.7 538.8 755 539.3 754.3 539.6 753.6 539.8 752.8 539.8 750.2 539.8 750.2 535.6
L 750.2 524.6
Q 752.3 524.2 755.5 524 755.9 523 755.9 522.1
L 750.2 522.1 750.2 516.8
Q 750.2 515.5 750.1 515.1
M 808 523.7
Q 806.1 521.3 802.1 521.3 799.3 521.3 797.3 522.7 795.2 524.1 794.1 526.5 793 528.9 793 531.7 793 534.7 794 537.1 795.1 539.4 797.2 540.8 799.3 542.2 802.3 542.2 804.8 542.2 806.7 541.3 808.6 540.5 810.1 538.5 810.1 538.2 809.7 537.8 809.4 537.4 809.1 537.2 808 538.4 806.6 539.1 805.2 539.7 803.7 539.7 800.5 539.7 799 537.6 797.5 535.5 797.3 532.1 801.9 531.9 809.6 531.9 810.1 531.2 810.3 530.4 810 526.2 808 523.7
M 804.6 525.1
Q 805.7 526.9 805.7 529.9
L 797.3 529.9
Q 797.5 526.4 798.7 524.9 799.9 523.4 801.7 523.4 803.6 523.4 804.6 525.1
M 785.8 510.3
Q 785 510.8 783 511.3 781 511.7 779.9 511.7 779.5 512.4 779.5 513.4 780.9 513.4 781.6 513.7 782.3 514 782.6 514.7 782.8 515.4 782.8 516.5
L 782.8 521.9
Q 780.9 521.3 779.1 521.3 775.9 521.3 773.4 522.7 770.9 524.2 769.5 526.8 768.2 529.3 768.2 532.4 768.2 537.4 770.3 539.8 772.4 542.2 776.4 542.2 778.4 542.2 780.1 541.2 781.7 540.1 782.4 538.9 783 537.9 783.4 537.1 783.4 537.3 783.2 538.1 783.1 538.9 783.1 539.7 783.1 541 783.3 541.5 783.6 541.9 784.2 542.2 785.1 541.7 786.6 541.3 788.1 540.9 789.2 540.8 789.5 540.1 789.5 538.8 787.7 538.8 787.2 538.1 786.7 537.5 786.7 535.8
L 786.7 512
Q 786.7 510.6 785.8 510.3
M 781 523.7
Q 781.9 524.1 782.8 524.8
L 782.8 531
Q 782.8 535.3 781.2 537.4 779.6 539.4 777.4 539.4 776.3 539.4 775.2 538.7 774.1 537.9 773.3 536.2 772.5 534.5 772.5 531.9 772.5 528.6 773.5 526.7 774.5 524.8 776 524 777.4 523.3 778.9 523.3 780.1 523.3 781 523.7
M 648.5 591.2
Q 648.5 588.6 648.7 586.1 647.8 585.5 646.9 585.2 646 585 644.5 585 642.1 585 640 586.1 637.9 587.3 636.6 589.5 635.3 591.8 635.3 594.9
L 635.3 596.7 632.4 596.7
Q 631.8 597.5 631.8 598.7 633.6 598.7 635.3 599
L 635.3 610.8
Q 635.3 610.9 635.3 611 635.3 611.55 635.25 612 635.1 613.25 634.7 613.8 634 614.6 632.3 614.6 632 615.3 632 616.5 633.8 616.4 637.8 616.4 641.4 616.4 643.4 616.5 643.4 615.3 643.2 614.6 641.7 614.6 640.9 614.2 640.1 613.8 639.7 612.8 639.55 612.45 639.5 612 639.4 611.55 639.35 611 639.3 610.5 639.3 609.9
L 639.3 599.1
Q 641.1 598.7 643.3 598.7 643.8 598 643.8 596.7
L 639.3 596.7 639.3 593.6
Q 639.3 590.5 640.1 589 640.9 587.4 642.6 587.4 644.3 587.4 645.2 588.6 646 589.7 646 591.6 647.3 591.6 648.5 591.2
M 667.5 586.3
Q 667.1 587 667.1 588 668.5 588 669.2 588.3 669.9 588.6 670.2 589.3 670.4 590 670.4 591.1
L 670.4 596.5
Q 668.5 595.9 666.7 595.9 663.5 595.9 661 597.3 658.5 598.8 657.1 601.4 655.8 603.9 655.8 607 655.8 609.25 656.25 611 656.35 611.5 656.55 612 657.05 613.4 657.9 614.4 660 616.8 664 616.8 666 616.8 667.7 615.8 669.3 614.7 670 613.5 670.5 612.7 670.85 612 670.95 611.85 671 611.7 671 611.8 670.95 612 670.9 612.25 670.8 612.7 670.7 613.5 670.7 614.3 670.7 615.6 670.9 616.1 671.2 616.5 671.8 616.8 672.7 616.3 674.2 615.9 675.7 615.5 676.8 615.4 677.1 614.7 677.1 613.4 675.3 613.4 674.8 612.7 674.6 612.45 674.5 612 674.35 611.6 674.35 611 674.3 610.7 674.3 610.4
L 674.3 586.6
Q 674.3 585.2 673.4 584.9 672.6 585.4 670.6 585.9 668.6 586.3 667.5 586.3
M 670.4 599.4
L 670.4 605.6
Q 670.4 609 669.4 611 669.15 611.55 668.8 612 667.2 614 665 614 663.9 614 662.8 613.3 662.15 612.8 661.6 612 661.25 611.55 661 611 660.95 610.9 660.9 610.8 660.1 609.1 660.1 606.5 660.1 603.2 661.1 601.3 662.1 599.4 663.6 598.6 665 597.9 666.5 597.9 667.7 597.9 668.6 598.3 669.5 598.7 670.4 599.4
M 653.2 530.4
Q 652.9 526.2 650.9 523.7 649 521.3 645 521.3 642.2 521.3 640.2 522.7 638.1 524.1 637 526.5 635.9 528.9 635.9 531.7 635.9 534.7 636.9 537.1 638 539.4 640.1 540.8 642.2 542.2 645.2 542.2 647.7 542.2 649.6 541.3 651.5 540.5 653 538.5 653 538.2 652.6 537.8 652.3 537.4 652 537.2 650.9 538.4 649.5 539.1 648.1 539.7 646.6 539.7 643.4 539.7 641.9 537.6 640.4 535.5 640.2 532.1 644.8 531.9 652.5 531.9 653 531.2 653.2 530.4
M 644.6 523.4
Q 646.5 523.4 647.5 525.1 648.6 526.9 648.6 529.9
L 640.2 529.9
Q 640.4 526.4 641.6 524.9 642.8 523.4 644.6 523.4
M 664.2 524.6
Q 663.9 525 663.8 525.3 663.6 525.6 663.5 525.8 663.9 524.6 663.9 523.2 663.9 521.6 662.9 521.3 661.9 521.8 660.1 522.2 658.4 522.7 657 522.7 656.6 523.4 656.6 524.4 658 524.4 658.7 524.7 659.4 525.1 659.6 525.7 659.9 526.4 659.9 527.5
L 659.9 536.2
Q 659.9 538.4 659.2 539.2 658.6 540 656.8 540 656.6 540.7 656.6 541.9 658.5 541.8 661.9 541.8 663.4 541.8 667.1 541.9 667.1 540.7 666.9 540 665.2 540 664.5 539.2 663.9 538.4 663.9 536.2
L 663.9 531.5
Q 663.9 529 664.6 527.3 665.3 525.6 666.4 524.9 667.6 524.2 668.8 524.2 670.7 524.2 671.8 525.4 672.9 526.6 672.9 529.5
L 672.9 536.2
Q 672.9 538.4 672.2 539.2 671.5 540 669.9 540 669.7 540.7 669.7 541.9 670.2 541.9 670.5 541.9 673.1 541.8 674.9 541.8 677.8 541.8 679.7 541.9 679.7 540.7 679.5 540 678.1 540 677.5 539.2 676.9 538.4 676.9 536.2
L 676.9 528.7
Q 676.9 524.9 675.1 523.2 673.3 521.5 670.6 521.5 668.5 521.5 666.8 522.4 665.1 523.4 664.2 524.6
M 703.8 523.9
Q 705.7 523.9 706.8 525.1 707.8 526.4 707.8 529.3
L 707.8 536.2
Q 707.8 538.4 707.2 539.2 706.6 540 704.8 540 704.6 540.7 704.6 541.9 706.9 541.8 709.8 541.8 712.8 541.8 715 541.9 715 540.7 714.8 540 713.1 540 712.4 539.2 711.8 538.4 711.8 536.2
L 711.8 531.5
Q 711.8 529 712.5 527.3 713.2 525.6 714.3 524.9 715.4 524.2 716.6 524.2 718.6 524.2 719.6 525.4 720.7 526.6 720.7 529.5
L 720.7 536.2
Q 720.7 538.4 720 539.2 719.4 540 717.6 540 717.4 540.7 717.4 541.9 719.6 541.8 722.7 541.8 725.5 541.8 727.5 541.9 727.5 540.7 727.2 540 725.8 540 725.2 539.2 724.6 538.4 724.6 536.2
L 724.6 528.7
Q 724.6 524.9 722.9 523.2 721.1 521.5 718.4 521.5 716.3 521.5 714.6 522.4 713 523.4 712.1 524.6 711.7 525.2 711.3 526.1 711.3 525.6 711.2 525 710.5 523.1 709 522.2 707.5 521.3 705.5 521.3 703.4 521.3 701.8 522.2 700.1 523.2 699.3 524.4 699.1 524.6 698.5 525.8 698.7 524.1 698.7 523 698.7 521.6 697.7 521.3 696.9 521.7 695.1 522.2 693.2 522.7 692.1 522.7 691.7 523.4 691.7 524.4 693.1 524.4 693.8 524.7 694.5 525.1 694.7 525.7 695 526.4 695 527.5
L 695 536.2
Q 695 538.4 694.4 539.2 693.7 540 691.9 540 691.7 540.7 691.7 541.9 693.8 541.8 697 541.8 700 541.8 702.2 541.9 702.2 540.7 702 540 700.2 540 699.6 539.2 698.9 538.4 698.9 536.2
L 698.9 531.3
Q 698.9 528.8 699.6 527.1 700.3 525.4 701.4 524.7 702.6 523.9 703.8 523.9
M 909.8 523.2
Q 909.8 521.6 908.8 521.3 907.8 521.8 906.2 522.2 904.6 522.7 903.2 522.7 902.9 523.4 902.9 524.4 904.2 524.4 904.8 524.7 905.5 525.1 905.6 525.7 905.8 526.3 905.8 527.5
L 905.8 534.2
Q 905.8 538.4 907.4 540.2 909 542 912.1 542 913.9 542 915.1 541.5 916.4 540.9 917.6 539.7 918.6 538.7 919 537.8 918.9 538.7 918.9 539.7 918.9 541 919.1 541.5 919.4 541.9 920 542.2 920.9 541.7 922.4 541.3 923.9 540.9 925 540.8 925.3 540.1 925.3 538.8 923.5 538.8 923 538.1 922.5 537.5 922.5 535.8
L 922.5 523.2
Q 922.5 521.6 921.6 521.3 920.5 521.7 918.9 522.1 917.2 522.4 915.6 522.5 915.3 522.9 915.3 523.2 915.3 523.5 915.3 524.2 916.7 524.2 917.4 524.5 918.1 524.9 918.3 525.5 918.6 526.1 918.6 527.3
L 918.6 531.8
Q 918.6 535.5 917.1 537.4 915.7 539.3 913.4 539.3 911.4 539.3 910.6 537.8 909.8 536.3 909.8 533.2
L 909.8 523.2
M 947.9 539.4
Q 947.9 540.7 948.7 541.5 949.5 542.2 950.9 542.2 952.3 542.2 953.1 541.5 954 540.7 954 539.2 954 538.1 953.2 537.3 952.4 536.4 951.1 536.4 949.7 536.4 948.8 537.3 947.9 538.2 947.9 539.4
M 942.5 524.9
Q 942.5 524.1 942.6 522.8 941.2 522 939.7 521.6 938.2 521.3 936.3 521.3 934.7 521.3 933 521.9 931.3 522.5 930.1 523.8 929 525 929 526.8 929 528.5 929.6 529.6 930.2 530.8 931.6 531.6 932.9 532.4 935.5 533.4 937.5 534.2 938.5 534.8 939.5 535.4 939.9 536 940.2 536.5 940.2 537.3 940.2 538.5 939.2 539.3 938.2 540.1 936.5 540.1 934.2 540.1 932.8 538.7 931.4 537.4 931.1 534.6 929.5 534.6 928.8 535.1 928.9 536.4 928.9 537.6 928.9 539.4 928.8 540.6 930.4 541.4 931.9 541.8 933.5 542.2 936 542.2 939.5 542.2 941.8 540.5 944.1 538.8 944.1 536 944.1 534.4 943.5 533.3 942.9 532.3 941.6 531.4 940.2 530.5 937.8 529.6 935.5 528.7 934.4 528 933.3 527.4 932.9 526.9 932.6 526.3 932.6 525.5 932.6 524.4 933.4 523.7 934.2 523.1 935.6 523.1 937.7 523.1 939 524.5 940.4 526 940.5 527.9 941.9 527.9 942.7 527.4 942.5 526.3 942.5 524.9
M 829.7 522.7
Q 828.3 521.6 826.6 521.6 823.5 521.6 821.3 525.2 821 525.6 820.7 526.4 820.5 527.2 820.4 527.5 820.4 527.3 820.7 526 821 524.7 821 523.2 821 521.6 820 521.3 819 521.8 817.2 522.2 815.5 522.7 814.1 522.7 813.7 523.4 813.7 524.4 815.1 524.4 815.8 524.7 816.5 525.1 816.7 525.7 817 526.4 817 527.5
L 817 536.2
Q 817 538.4 816.4 539.2 815.7 540 813.9 540 813.7 540.7 813.7 541.9 815.5 541.8 819.5 541.8 823.1 541.8 825.1 541.9 825.1 540.7 824.9 540 823.4 540 822.5 539.6 821.7 539.2 821.3 538.2 821 537.2 821 535.3
L 821 531.1
Q 821 529.5 821.5 528 822.1 526.6 823 525.7 823.9 524.9 824.7 524.9 825.7 524.9 826.2 525.6 826.8 526.3 826.8 528.3 828.2 528.3 829.4 527.9 829.4 524.7 829.7 522.7
M 884 528
Q 884.3 528.2 885 528.2 885.7 528.3 886.2 528.3 886.3 526.5 887.2 524.9 888.1 523.2 890.1 523.2 891.8 523.2 892.8 524.5 893.4 525.3 893.6 526.3 893.8 527.3 893.8 530 891 530.4 888.6 531.1 886.3 531.7 884.4 533.3 882.5 534.8 882.5 537.4 882.5 539.7 884 540.9 885.5 542.1 888.2 542.1 891.1 542.1 892.8 540.6 893.9 539.7 894.4 538.4 894.3 538.9 894.3 539.6 894.3 540.8 894.6 541.4 894.9 542 895.4 542.2 896.4 541.7 897.7 541.3 899.1 540.9 900.2 540.8 900.5 540.1 900.5 538.8 899.3 538.7 898.7 538.4 898.1 538.1 897.9 537.4 897.7 536.7 897.7 535.4
L 897.7 530.5
Q 897.7 527.4 897.3 525.7 896.9 524 895.9 522.9 894.2 521.3 891.2 521.3 889.5 521.3 887.5 521.8 885.5 522.3 883.7 523.2 884 524.6 884 526.5 884 527.6 884 528
M 886.8 536.6
Q 886.8 534.8 887.8 533.8 888.8 532.8 890.2 532.5 891.6 532.1 893.8 531.8
L 893.8 533.5
Q 893.8 535.5 893.1 537 892.4 538.4 891.5 539 890.5 539.7 889.4 539.7 888.3 539.7 887.5 538.9 886.8 538.1 886.8 536.6
M 876.9 511.9
Q 875.2 512.1 873.6 512.1 871.6 512.1 870.2 511.9
L 860.5 536.3 849.5 511.9
Q 847.8 512.1 846.2 512.1 844.2 512.1 842.9 511.9 842.9 513.1 843.1 513.8 844.7 513.8 845.4 514.5 846.1 515.2 846.1 516.9 846.1 517.6 846 518
L 844.6 533.7
Q 844.4 536.3 844 537.6 843.6 538.9 843 539.4 842.3 539.9 841.1 540 840.8 540.8 840.8 541.9 842.7 541.8 845.2 541.8 847.8 541.8 850 541.9 850 540.8 849.7 540 848.1 539.9 847.4 539.1 846.7 538.4 846.7 536.3 846.7 535.4 846.9 534.1
L 848.3 519.9 858.5 542.2
Q 859.6 542.2 860.3 541.9
L 869.4 519.9 871 535
Q 871.2 536.3 871.2 537.2 871.2 538.7 870.6 539.3 870 539.9 868.3 540 868.1 540.9 868.1 541.9 870.3 541.8 873.4 541.8 876.7 541.8 878.7 541.9 878.7 540.7 878.5 540 877.5 539.9 876.8 539.4 876.2 538.9 875.9 537.8 875.5 536.6 875.3 534.4
L 873.7 518.3
Q 873.7 517.9 873.7 517.2 873.7 515.3 874.4 514.6 875.2 513.8 876.7 513.8 876.9 513 876.9 511.9 Z"/>

<path fill="#CCCCCC" stroke="none" d="
M 578.55 188.1
L 516.3 188.1 516.3 234.45
Q 516.3 241.55 511.25 246.65 506.15 251.75 499 251.75
L 498.95 251.75
Q 491.8 251.75 486.75 246.65 481.65 241.55 481.65 234.45
L 481.65 188.1 419.75 188.1
Q 419.75 242.95 419.75 284.45 419.75 305.8 419.75 314.35
L 419.75 316.4
Q 420.5 348.3 443.2 371.05 459.15 387 479.6 392.1 485.3 393.55 491.25 394.15 494.3 394.4 498.55 394.5 504.4 394.4 507.25 394.15 513.1 393.55 518.7 392.1 539.1 387 555.05 371.05 577.8 348.3 578.55 316.4
L 578.55 314.35
Q 578.55 305.8 578.55 284.45 578.55 242.95 578.55 188.1
M 563.8 115.85
Q 558.35 110.4 552.1 107 541.35 101.15 528.25 101.15
L 499.1 101.15 499.1 161.75
Q 506.2 161.8 511.25 166.8 516.3 171.9 516.3 179.05
L 516.3 188.1 578.55 188.1
Q 578.55 179.8 578.55 171.2
L 578.55 151.45
Q 578.55 130.6 563.8 115.85 Z"/>
</g>

<g id="Arrow_0_Layer0_0_FILL">
<path fill="#FFFFFF" stroke="none" d="
M 21.85 0
L 21.85 30.2 0 30.2 0 64.55 21.85 64.55 21.85 97.15 59 47.8 21.85 0 Z"/>
</g>

<path id="Layer0_0_1_STROKES" stroke="#999999" stroke-width="15" stroke-linejoin="round" stroke-linecap="round" fill="none" d="
M 499.1 101.15
L 528.25 101.15
Q 541.35 101.15 552.1 107 558.35 110.4 563.8 115.85 578.55 130.6 578.55 151.45
L 578.55 171.2
Q 578.55 179.8 578.55 188.1 578.55 242.95 578.55 284.45 578.55 305.8 578.55 314.35
L 578.55 316.4
Q 577.8 348.3 555.05 371.05 539.1 387 518.7 392.1 513.1 393.55 507.25 394.15 504.4 394.4 498.55 394.5 494.3 394.4 491.25 394.15 485.3 393.55 479.6 392.1 459.15 387 443.2 371.05 420.5 348.3 419.75 316.4
L 419.75 314.35
Q 419.75 305.8 419.75 284.45 419.75 242.95 419.75 188.1 419.75 179.8 419.75 171.2
L 419.75 151.45
Q 419.75 130.6 434.45 115.85 439.9 110.4 446.2 107 456.9 101.15 470.05 101.15
L 499.1 101.15 499.1 161.75
Q 506.2 161.8 511.25 166.8 516.3 171.9 516.3 179.05
L 516.3 188.1 578.55 188.1
M 481.65 188.1
L 481.65 179.05
Q 481.65 171.9 486.75 166.8 491.8 161.75 498.95 161.75 499.05 161.75 499.1 161.75
M 419.75 188.1
L 481.65 188.1 481.65 234.45
Q 481.65 241.55 486.75 246.65 491.8 251.75 498.95 251.75
L 499 251.75
Q 506.15 251.75 511.25 246.65 516.3 241.55 516.3 234.45
L 516.3 188.1"/>
</defs>

<g transform="matrix( 1, 0, 0, 1, 0,0) ">
<use xlink:href="#Layer0_0_FILL"/>

<use xlink:href="#Layer0_0_1_STROKES"/>
</g>

<g transform="matrix( 1.00616455078125, 0, 0, 1.0060272216796875, 603.75,197.15) ">
<g transform="matrix( 1, 0, 0, 1, 0,0) ">
<use xlink:href="#Arrow_0_Layer0_0_FILL"/>
</g>
</g>

<g transform="matrix( -1.0061492919921875, 0, 0, 1.0060272216796875, 394.05,197.15) ">
<g transform="matrix( 1, 0, 0, 1, 0,0) ">
<use xlink:href="#Arrow_0_Layer0_0_FILL"/>
</g>
</g>

<g transform="matrix( 0, -1.00616455078125, 1.0060272216796875, 0, 450.05,67.15) ">
<g transform="matrix( 1, 0, 0, 1, 0,0) ">
<use xlink:href="#Arrow_0_Layer0_0_FILL"/>
</g>
</g>

<g transform="matrix( 0, 1.0061492919921875, 1.0060272216796875, 0, 450.05,420.85) ">
<g transform="matrix( 1, 0, 0, 1, 0,0) ">
<use xlink:href="#Arrow_0_Layer0_0_FILL"/>
</g>
</g>
</svg>
